<svg width="134" height="106" viewBox="0 0 134 106" fill="none" xmlns="http://www.w3.org/2000/svg">
    <path d="M53.6258 66.3915L91.7319 28.2922C90.1452 26.706 88.9741 24.753 88.3225 22.6061C87.6708 20.4592 87.5587 18.1848 87.996 15.9842C88.4333 13.7836 89.4065 11.7249 90.8295 9.99026C92.2525 8.25565 94.0813 6.89873 96.1539 6.03969C98.2265 5.18065 100.479 4.846 102.712 5.06539C104.945 5.28477 107.089 6.05142 108.955 7.29742C110.821 8.54342 112.35 10.2303 113.408 12.2087C114.467 14.1871 115.021 16.3959 115.021 18.6395C117.265 18.6379 119.475 19.1899 121.455 20.2466C123.435 21.3033 125.123 22.8321 126.371 24.6974C127.619 26.5627 128.387 28.7071 128.608 30.9403C128.829 33.1736 128.495 35.4269 127.637 37.5005C126.779 39.5741 125.423 41.4039 123.688 42.8279C121.953 44.2519 119.894 45.2261 117.693 45.664C115.492 46.102 113.217 45.9902 111.07 45.3387C108.922 44.6871 106.969 43.5159 105.382 41.9288L80.9126 66.3915" stroke="black" stroke-width="10" stroke-linecap="round" stroke-linejoin="round"/>
    <path d="M67.2692 52.748L42.8066 28.2922C44.3933 26.706 45.5643 24.753 46.216 22.6061C46.8676 20.4592 46.9797 18.1848 46.5425 15.9842C46.1052 13.7836 45.1319 11.7249 43.709 9.99026C42.286 8.25565 40.4572 6.89873 38.3846 6.03969C36.3119 5.18065 34.0595 4.846 31.8266 5.06539C29.5938 5.28477 27.4495 6.05142 25.5837 7.29742C23.7179 8.54342 22.1882 10.2303 21.13 12.2087C20.0719 14.1871 19.5179 16.3959 19.5173 18.6395C17.2731 18.6379 15.0632 19.1899 13.0834 20.2466C11.1036 21.3033 9.41496 22.8321 8.16724 24.6974C6.91952 26.5627 6.15119 28.7071 5.93036 30.9403C5.70952 33.1736 6.04299 35.4269 6.90121 37.5005C7.75944 39.5741 9.11591 41.4039 10.8504 42.8279C12.585 44.2519 14.644 45.2261 16.845 45.664C19.046 46.102 21.3211 45.9902 23.4686 45.3387C25.6161 44.6871 27.5697 43.5159 29.1564 41.9288L53.6258 66.3915" stroke="black" stroke-width="10" stroke-linecap="round" stroke-linejoin="round"/>
    <path d="M5.87384 100.5H128.665C127.471 89.1009 128.351 77.6814 115.021 66.3915H19.5173C10.4239 73.2132 5.87384 84.585 5.87384 100.5Z" stroke="black" stroke-width="10" stroke-linecap="round" stroke-linejoin="round"/>
</svg>


