<svg width="336" height="336" viewBox="0 0 336 336" fill="none" xmlns="http://www.w3.org/2000/svg">
    <path d="M214.384 195.799C216.353 195.799 218.321 195.694 220.238 195.484C220.92 195.405 221.576 195.3 222.259 195.195C223.519 195.038 224.779 194.854 225.986 194.644C226.774 194.486 227.535 194.276 228.296 194.093C229.425 193.83 230.528 193.568 231.63 193.253C232.418 193.016 233.179 192.728 233.94 192.465C234.99 192.098 236.014 191.756 237.011 191.336C237.773 191.021 238.56 190.68 239.295 190.339C240.266 189.893 241.238 189.446 242.183 188.948C242.918 188.554 243.653 188.16 244.388 187.714C245.306 187.189 246.199 186.664 247.118 186.086C247.826 185.64 248.509 185.141 249.191 184.669C250.031 184.065 250.898 183.461 251.738 182.805C252.368 182.28 253.05 181.729 253.68 181.204C254.468 180.521 255.255 179.812 256.016 179.104C256.62 178.526 257.224 177.949 257.828 177.345C258.563 176.584 259.271 175.796 259.954 175.009C260.505 174.379 261.056 173.749 261.581 173.092C262.238 172.279 262.894 171.412 263.524 170.546C264.023 169.864 264.495 169.181 264.968 168.499C265.545 167.606 266.123 166.661 266.648 165.716C267.094 165.007 267.514 164.299 267.881 163.59C268.433 162.619 268.879 161.595 269.351 160.571C269.693 159.836 270.06 159.128 270.349 158.366C270.821 157.29 271.189 156.161 271.583 155.033C271.845 154.324 272.108 153.615 272.344 152.88C272.738 151.62 273.026 150.307 273.341 148.995C273.499 148.391 273.683 147.761 273.814 147.131C274.208 145.162 274.523 143.194 274.733 141.172C278.119 107.782 253.811 77.9362 220.421 74.5237C218.321 74.3137 216.248 74.2087 214.174 74.2087C212.179 74.2087 210.21 74.3137 208.268 74.4975C207.611 74.5762 206.955 74.6812 206.299 74.76C205.039 74.9437 203.753 75.1012 202.493 75.3375C201.731 75.495 200.97 75.705 200.209 75.8887C199.106 76.1512 197.978 76.4137 196.901 76.7287C196.088 76.965 195.3 77.28 194.539 77.5163C193.515 77.8837 192.491 78.1987 191.468 78.6187C190.706 78.96 189.945 79.3012 189.158 79.6425C188.213 80.0887 187.241 80.5087 186.323 81.0075C185.561 81.4275 184.8 81.8475 184.091 82.2675C183.173 82.7925 182.306 83.3175 181.44 83.8687C180.679 84.3412 179.996 84.84 179.288 85.3387C178.448 85.9162 177.634 86.5462 176.82 87.15C176.111 87.675 175.455 88.2525 174.799 88.8037C174.011 89.46 173.25 90.1425 172.515 90.8512C171.859 91.455 171.255 92.0587 170.651 92.6887C169.943 93.4237 169.234 94.185 168.578 94.9462C167.301 96.3556 166.117 97.8462 165.034 99.4087C164.509 100.091 164.01 100.8 163.538 101.535C162.96 102.401 162.435 103.294 161.884 104.239C161.438 104.974 161.018 105.709 160.598 106.444C160.099 107.415 159.653 108.386 159.18 109.384C158.839 110.145 158.445 110.906 158.13 111.667C157.684 112.717 157.316 113.82 156.949 114.896C156.686 115.631 156.398 116.392 156.188 117.154C155.794 118.387 155.505 119.674 155.19 120.96C155.059 121.616 154.849 122.246 154.691 122.902C154.298 124.845 154.009 126.84 153.799 128.861C150.386 162.251 174.72 192.098 208.11 195.484C210.21 195.694 212.31 195.799 214.384 195.799ZM208.504 62.1862L234.544 64.8375H234.911C235.253 64.8375 235.515 64.7325 235.856 64.6275C236.04 64.575 236.198 64.6012 236.381 64.5225C236.906 64.2862 237.379 63.9712 237.746 63.5512C238.534 62.6062 238.849 61.3987 238.534 60.2175L229.058 23.625C228.69 22.1287 227.43 21.0262 225.881 20.895C225.75 20.8687 225.619 20.8687 225.619 20.8687C225.068 20.8687 224.674 21.0787 224.28 21.21C224.044 21.2887 223.808 21.2887 223.624 21.3937C222.994 21.7612 222.469 22.26 222.154 22.9162L205.538 56.8837C205.013 57.9862 205.039 59.2725 205.669 60.3225C206.246 61.3725 207.323 62.055 208.504 62.1862ZM278.224 99.75C278.828 100.511 279.746 100.984 280.718 101.089C280.823 101.115 280.954 101.115 281.085 101.115H281.269C282.555 101.01 283.658 100.354 284.261 99.3037L303.476 66.7537C304.238 65.415 304.133 63.735 303.161 62.5275C302.715 61.9762 302.138 61.6612 301.508 61.425C301.324 61.3725 301.166 61.3462 300.983 61.32C300.746 61.2675 300.536 61.1625 300.3 61.1625C299.906 61.1625 299.486 61.2412 299.093 61.3725L263.34 73.6575C262.211 74.0512 261.319 74.97 261.004 76.125C260.689 77.3062 260.925 78.5662 261.686 79.485L278.224 99.75ZM326.34 142.931L292.346 126.315C291.821 126.052 291.296 125.947 290.719 125.947H290.666C290.089 125.947 289.485 126.105 288.934 126.42C287.884 126.997 287.175 128.047 287.044 129.255L284.393 155.295C284.339 155.779 284.382 156.268 284.52 156.734C284.658 157.201 284.888 157.635 285.196 158.012C285.504 158.388 285.884 158.7 286.314 158.927C286.744 159.155 287.215 159.294 287.7 159.337C287.805 159.337 287.936 159.364 287.936 159.364C288.356 159.364 288.671 159.311 288.986 159.232L325.579 149.809C327.075 149.415 328.178 148.155 328.335 146.606C328.545 145.084 327.731 143.614 326.34 142.931ZM166.819 190.575L150.255 170.284C149.888 169.837 149.415 169.496 148.916 169.26C148.759 169.181 148.575 169.181 148.391 169.129C148.05 169.05 147.735 168.892 147.394 168.892C147.394 168.892 147.236 168.919 147.131 168.919C145.924 168.997 144.848 169.68 144.244 170.73L125.029 203.306C124.53 204.094 124.504 204.986 124.661 205.852C124.478 206.929 124.556 208.057 125.291 208.924C125.974 209.816 127.05 210.289 128.153 210.289C128.573 210.289 128.966 210.236 129.36 210.079L165.349 197.558C166.504 197.164 167.396 196.219 167.711 195.038C167.948 194.25 167.816 193.462 167.528 192.727C167.528 191.94 167.344 191.152 166.819 190.575ZM152.88 85.9162C153.274 87.0712 154.219 87.9112 155.374 88.2525C155.584 88.305 155.82 88.3575 156.004 88.3837C156.161 88.3837 156.293 88.41 156.424 88.41C156.66 88.41 156.87 88.3312 157.08 88.2787C157.238 88.2525 157.369 88.2525 157.526 88.2C157.973 88.0687 158.34 87.8587 158.734 87.57L179.025 71.0325C179.944 70.2712 180.469 69.09 180.364 67.8825C180.285 66.7012 179.603 65.5987 178.553 64.995L145.976 45.78C145.425 45.4387 144.769 45.255 144.113 45.255L143.929 45.3075C143.824 45.3075 143.771 45.3337 143.666 45.3337C143.01 45.4125 142.328 45.6487 141.776 46.095C140.569 47.0662 140.096 48.6937 140.595 50.1637L152.88 85.9162ZM276.701 184.669C276.308 183.514 275.363 182.647 274.181 182.306H274.155C273.814 182.096 273.525 181.834 273.131 181.729C272.79 181.65 272.475 181.597 272.134 181.597C271.95 181.597 271.766 181.65 271.635 181.676C271.478 181.702 271.346 181.729 271.215 181.755C270.69 181.886 270.218 182.096 269.798 182.411L249.506 198.975C248.588 199.736 248.089 200.917 248.141 202.099C248.246 203.306 248.903 204.409 249.953 205.012L250.11 205.091C250.373 205.38 250.583 205.669 250.924 205.852L283.841 225.094C284.419 225.435 285.075 225.593 285.705 225.593H285.758C288.041 225.75 289.564 223.965 289.564 221.865C289.564 221.077 289.328 220.369 288.934 219.765L276.701 184.669ZM222.941 210C222.915 209.895 222.915 209.79 222.863 209.685C222.572 209.166 222.16 208.725 221.662 208.401C221.163 208.076 220.593 207.877 220.001 207.821L193.961 205.17H193.594C193.279 205.17 192.99 205.275 192.675 205.354C192.491 205.38 192.308 205.38 192.124 205.459C191.599 205.695 191.153 206.01 190.785 206.43C189.971 207.349 189.683 208.583 189.998 209.764L199.421 246.356C199.526 246.776 199.841 247.012 200.051 247.38L200.156 247.774C200.55 249.296 201.836 250.399 203.385 250.53C203.516 250.53 203.621 250.556 203.753 250.556C205.17 250.556 206.456 249.743 207.113 248.456L223.703 214.148C224.254 213.071 224.201 211.759 223.598 210.709C223.414 210.42 223.178 210.236 222.941 210ZM137.55 144.874C138.18 144.874 138.81 144.716 139.361 144.401C140.438 143.824 141.173 142.721 141.251 141.514L141.304 141.172C141.33 141.015 141.435 140.884 141.435 140.726L144.113 114.686C144.244 113.479 143.745 112.297 142.853 111.51C142.433 111.142 141.934 110.959 141.435 110.801C141.278 110.749 141.146 110.749 140.989 110.722C140.805 110.696 140.621 110.617 140.411 110.617C140.096 110.617 139.808 110.644 139.493 110.722L102.874 120.172C101.903 120.409 101.22 121.091 100.748 121.905C100.091 122.535 99.6188 123.27 99.5138 124.189C99.3825 125.737 100.196 127.207 101.614 127.916L135.923 144.506C136.448 144.769 136.999 144.874 137.55 144.874Z" fill="#FFB74D"/>
    <path d="M289.222 178.185H289.196C289.196 178.001 289.222 177.817 289.222 177.634C289.222 152.407 268.774 131.959 243.547 131.959C240.292 131.959 237.142 132.3 234.071 132.956C225.015 110.933 203.385 95.4187 178.106 95.4187C159.127 95.4187 142.196 104.186 131.092 117.863C123.736 114.108 115.596 112.147 107.336 112.14C80.01 112.14 57.5662 132.956 54.9412 159.6C25.2 161.175 1.33873 185.535 0.971234 215.749C0.551234 247.249 25.7775 273.105 57.2512 273.525C59.6925 273.551 62.1075 273.394 64.47 273.105C76.6237 298.751 102.769 316.522 133.035 316.522C151.305 316.522 168.052 310.065 181.151 299.302C191.152 306.705 203.516 311.141 216.93 311.141C244.44 311.141 267.592 292.687 274.811 267.461C279.352 268.957 284.182 269.797 289.222 269.797C314.527 269.797 335.029 249.296 335.029 223.991C335.055 198.712 314.527 178.185 289.222 178.185Z" fill="#E3EBEE"/>
    <path d="M316.155 186.926C326.524 197.4 319.2 221.445 312.06 229.294C298.016 244.676 272.212 241.106 261.87 238.875C259.061 238.271 258.615 238.481 257.722 239.032C256.909 239.531 256.515 240.319 255.649 242.209C252.315 249.401 243.705 263.314 225.54 268.931C206.614 274.785 188.764 265.886 180.39 260.557C177.214 258.536 177.082 258.51 175.665 258.51C174.221 258.536 172.777 259.586 171.071 260.951C163.537 266.884 146.265 277.357 119.674 275.835C93.6075 274.339 78.6712 258.274 73.5787 250.005C72.6075 248.43 71.5312 247.091 70.35 246.96C68.9587 246.829 67.41 248.246 66.2287 249.401C55.125 260.216 20.2387 263.445 8.63623 245.044C20.3962 263.917 38.6137 273.262 57.2775 273.525C59.7187 273.551 62.1337 273.394 64.4962 273.105C76.65 298.751 102.795 316.522 133.061 316.522C151.331 316.522 168.079 310.065 181.177 299.302C191.179 306.705 203.542 311.141 216.956 311.141C244.466 311.141 267.619 292.687 274.837 267.461C279.379 268.957 284.209 269.797 289.249 269.797C314.554 269.797 335.055 249.296 335.055 223.991C335.055 210.525 328.282 195.326 316.155 186.926Z" fill="#B9CDD2"/>
</svg>
