<svg width="224" height="324" viewBox="0 0 224 324" fill="none" xmlns="http://www.w3.org/2000/svg">
    <g clip-path="url(#clip0_65_124)">
    <path d="M50.5978 134.008C52.427 134.915 54.6596 134.183 55.5857 132.35C56.5154 130.521 55.78 128.277 53.9543 127.337C53.4131 127.057 40.6302 120.262 37.2812 100.184C37.0086 98.5338 35.6686 97.2685 33.9995 97.0891C32.2932 96.8988 30.7554 97.8618 30.1316 99.4114C22.0304 119.672 37.307 142.957 37.9602 143.939C38.6768 145.018 39.8642 145.6 41.0664 145.6C41.7756 145.6 42.4962 145.395 43.1345 144.973C44.8482 143.83 45.3146 141.515 44.1762 139.798C44.083 139.657 37.7624 129.991 35.8134 118.608C41.9554 129.558 50.1161 133.765 50.5978 134.008Z" fill="black"/>
    <path d="M67.932 141.792C69.9519 141.389 71.2658 139.421 70.8628 137.402C70.4559 135.382 68.5108 134.068 66.4686 134.475C58.9759 135.972 44.8001 144.129 44.8001 164.267C44.8001 178.879 47.8613 189.015 50.2246 194.653C42.0521 196.239 37.3333 201.38 37.3333 209.067C37.3333 217.721 45.1846 224 56.0001 224H59.7333C65.923 224 69.731 219.359 70.1418 218.833C71.411 217.209 71.1236 214.861 69.4961 213.591C67.8721 212.318 65.524 212.613 64.2583 214.234C64.2395 214.26 62.3429 216.534 59.7337 216.534H56.0001C50.4338 216.534 44.8001 213.969 44.8001 209.067C44.8001 207.219 44.8001 201.6 56.0001 201.6C57.3703 201.6 58.6246 200.842 59.2778 199.636C59.931 198.43 59.8641 196.959 59.1173 195.813C59.0464 195.705 52.2664 185.069 52.2664 164.266C52.2669 145.335 67.3121 141.926 67.932 141.792Z" fill="black"/>
    <path d="M173.775 194.652C176.139 189.015 179.2 178.879 179.2 164.266C179.2 144.129 165.025 135.971 157.532 134.474C155.509 134.075 153.545 135.378 153.138 137.401C152.734 139.421 154.049 141.389 156.069 141.792C156.711 141.922 171.734 145.148 171.734 164.266C171.734 185.069 164.954 195.705 164.894 195.794C164.133 196.941 164.058 198.415 164.707 199.629C165.357 200.842 166.623 201.6 168 201.6C179.2 201.6 179.2 207.219 179.2 209.067C179.2 213.969 173.566 216.534 168 216.534H164.267C161.691 216.534 159.794 214.298 159.719 214.208C158.446 212.614 156.121 212.33 154.504 213.592C152.876 214.861 152.589 217.21 153.858 218.834C154.269 219.36 158.077 224 164.267 224H168C178.819 224 186.667 217.721 186.667 209.067C186.667 201.38 181.948 196.239 173.775 194.652Z" fill="black"/>
    <path d="M135.027 194.417L141.815 153.683C142.154 151.648 140.781 149.726 138.746 149.386C136.704 149.05 134.789 150.42 134.453 152.451L127.505 194.134H126.934C124.869 194.134 123.2 195.806 123.2 197.867C123.2 199.927 124.869 201.6 126.934 201.6H130.667C141.867 201.6 141.867 207.219 141.867 209.067C141.867 213.969 136.233 216.534 130.667 216.534H126.934C120.759 216.534 115.734 211.508 115.734 205.334V153.067C115.734 151.006 114.065 149.334 112 149.334C109.936 149.334 108.267 151.006 108.267 153.067V205.334C108.267 211.508 103.242 216.534 97.0673 216.534H93.3341C87.7678 216.534 82.1341 213.969 82.1341 209.067C82.1341 207.219 82.1341 201.6 93.3341 201.6H97.0673C99.1318 201.6 100.8 199.927 100.8 197.867C100.8 195.806 99.1318 194.134 97.0673 194.134H96.4959L89.5484 152.451C89.2164 150.42 87.2935 149.05 85.2552 149.386C83.2204 149.726 81.8467 151.648 82.1866 153.683L88.974 194.417C79.9317 195.668 74.6677 200.947 74.6677 209.067C74.6677 217.721 82.5191 224 93.3345 224H97.0677C103.168 224 108.592 221.058 112.001 216.522C115.409 221.058 120.833 224 126.933 224H130.666C141.486 224 149.333 217.721 149.333 209.067C149.333 200.947 144.069 195.668 135.027 194.417Z" fill="black"/>
    <path d="M204.938 31.9314C196.732 15.5159 176.964 0 164.267 0C157.058 0 144.652 11.1777 138.421 17.2703C131.219 11.0994 122.453 7.46681 112 7.46681C101.547 7.46681 92.7807 11.0994 85.5794 17.2708C79.3481 11.1777 66.9424 0 59.7332 0C47.0361 0 27.2681 15.5159 19.0624 31.9314C16.5909 36.8668 14.9332 43.5382 14.9332 48.5336C14.9332 58.8262 23.307 67.2004 33.6 67.2004C42.8772 67.2004 47.0287 61.1004 50.3589 56.1982C50.7658 55.6045 51.1692 55.0073 51.6395 54.3388L66.5727 31.9388C67.7189 30.2216 67.256 27.9029 65.5384 26.7606C63.8138 25.6108 61.5025 26.0772 60.3602 27.7948L45.483 50.1126C45.0424 50.736 44.6132 51.3669 44.1836 51.9977C40.8271 56.9406 38.6768 59.7332 33.5996 59.7332C27.4247 59.7332 22.3996 54.7081 22.3996 48.5332C22.3996 44.6543 23.7734 39.2 25.7408 35.2686C33.0956 20.5555 50.8774 7.46637 59.7328 7.46637C62.9174 7.46637 72.3962 14.8807 80.2997 22.5641C66.2734 38.8714 59.7328 66.1732 59.7328 93.3332C59.7328 127.803 74.8751 141.866 112 141.866C149.124 141.866 164.266 127.803 164.266 93.3332C164.266 66.1692 157.726 38.8714 143.7 22.5641C151.603 14.8807 161.078 7.46637 164.266 7.46637C173.122 7.46637 190.904 20.5555 198.262 35.2686C200.226 39.2 201.6 44.6543 201.6 48.5332C201.6 54.7081 196.575 59.7332 190.4 59.7332C185.14 59.7332 183.064 56.9704 179.562 51.6806L163.639 27.7948C162.497 26.0776 160.179 25.6108 158.461 26.7606C156.744 27.9029 156.281 30.2212 157.427 31.9388L173.335 55.8022C176.874 61.1446 180.88 67.2 190.4 67.2C200.693 67.2 209.067 58.8262 209.067 48.5332C209.067 43.5382 207.409 36.8668 204.938 31.9314ZM156.8 93.3332C156.8 123.655 145.074 134.4 112 134.4C78.9264 134.4 67.2 123.655 67.2 93.3332C67.2 54.3086 81.0544 14.9332 112 14.9332C142.946 14.9332 156.8 54.3086 156.8 93.3332Z" fill="black"/>
    <path d="M131.081 110.29C130.443 111.534 127.949 111.985 126.933 112C122.562 112 118.044 108.278 116.413 103.999C122.55 102.611 126.933 98.448 126.933 93.3332C126.933 87.0537 120.374 82.1332 112 82.1332C103.626 82.1332 97.0668 87.0537 97.0668 93.3332C97.0668 98.448 101.45 102.61 107.587 103.999C105.959 108.278 101.442 112 97.0926 112C96.0212 111.985 93.5795 111.533 92.8966 110.249C91.9297 108.427 89.6709 107.737 87.8491 108.703C86.0274 109.67 85.3331 111.929 86.3034 113.751C89.2526 119.306 96.2754 119.467 97.0668 119.467C102.865 119.467 108.472 116.155 112 111.418C115.528 116.155 121.135 119.467 126.933 119.467C127.732 119.467 134.833 119.303 137.719 113.71C138.663 111.877 137.943 109.626 136.11 108.682C134.277 107.737 132.029 108.453 131.081 110.29ZM112 97.0668C107.513 97.0668 104.533 94.8194 104.533 93.3336C104.533 91.8479 107.513 89.6004 112 89.6004C116.558 89.6004 119.467 91.8107 119.467 93.3336C119.467 94.8566 116.558 97.0668 112 97.0668Z" fill="black"/>
    <path d="M128.8 67.2C131.888 67.2 134.4 64.6874 134.4 61.6C134.4 58.5126 131.888 56 128.8 56C125.713 56 123.2 58.5126 123.2 61.6C123.2 64.6874 125.713 67.2 128.8 67.2Z" fill="black"/>
    <path d="M95.2 67.2C98.2874 67.2 100.8 64.6874 100.8 61.6C100.8 58.5126 98.2874 56 95.2 56C92.1125 56 89.6 58.5126 89.6 61.6C89.6 64.6874 92.1125 67.2 95.2 67.2Z" fill="black"/>
    </g>
    <path d="M21.3125 259.375C21.5 259.375 21.625 259.427 21.6875 259.531C21.7708 259.635 21.8125 259.75 21.8125 259.875C21.8125 260.125 21.6354 260.479 21.2812 260.938C20.9271 261.396 20.5312 261.938 20.0938 262.562C19.6562 263.167 19.2604 263.823 18.9062 264.531C18.5521 265.24 18.375 265.948 18.375 266.656C18.375 267.385 18.4688 268.198 18.6562 269.094C18.8438 269.99 19.0729 270.917 19.3438 271.875C19.6354 272.812 19.9479 273.74 20.2812 274.656C20.6146 275.573 20.9375 276.406 21.25 277.156C21.3542 277.469 21.5417 277.948 21.8125 278.594C22.0833 279.219 22.3854 279.917 22.7188 280.688C23.0521 281.458 23.4062 282.25 23.7812 283.062C24.1771 283.875 24.5521 284.625 24.9062 285.312C25.2604 285.979 25.5833 286.531 25.875 286.969C26.1667 287.385 26.3958 287.594 26.5625 287.594C26.7292 287.594 26.9583 287.417 27.25 287.062C27.5417 286.688 27.875 286.177 28.25 285.531C28.6458 284.865 29.0938 284.094 29.5938 283.219C30.1146 282.323 30.6771 281.344 31.2812 280.281C32.2188 278.635 33.0417 277.156 33.75 275.844C34.4792 274.531 35.1042 273.417 35.625 272.5C36.1458 271.583 36.5729 270.885 36.9062 270.406C37.2396 269.906 37.5 269.656 37.6875 269.656C37.875 269.656 38.1146 269.812 38.4062 270.125C38.7188 270.438 39.1562 271 39.7188 271.812C40.3021 272.625 41.0521 273.74 41.9688 275.156C42.9062 276.573 44.1042 278.385 45.5625 280.594C45.7917 280.948 46.1146 281.458 46.5312 282.125C46.9688 282.792 47.4479 283.531 47.9688 284.344C48.4896 285.156 49.0312 285.99 49.5938 286.844C50.1771 287.677 50.7188 288.438 51.2188 289.125C51.7396 289.812 52.1979 290.385 52.5938 290.844C53.0104 291.281 53.3125 291.5 53.5 291.5C53.7083 291.5 54 291.229 54.375 290.688C54.75 290.125 55.1562 289.448 55.5938 288.656C56.0312 287.844 56.4688 286.99 56.9062 286.094C57.3646 285.198 57.7604 284.396 58.0938 283.688C58.2396 283.375 58.4896 282.833 58.8438 282.062C59.1979 281.292 59.6042 280.365 60.0625 279.281C60.5417 278.198 61.0625 277 61.625 275.688C62.1875 274.354 62.7396 272.99 63.2812 271.594C63.8438 270.198 64.3854 268.802 64.9062 267.406C65.4271 265.99 65.8854 264.656 66.2812 263.406C66.6979 262.156 67.0208 261.031 67.25 260.031C67.5 259.01 67.625 258.188 67.625 257.562C67.625 257.021 67.4479 256.531 67.0938 256.094C66.7396 255.656 66.2396 255.271 65.5938 254.938C64.6146 254.438 63.7396 254.031 62.9688 253.719C62.2188 253.385 61.5729 253.104 61.0312 252.875C60.5104 252.625 60.1146 252.406 59.8438 252.219C59.5729 252.01 59.4375 251.771 59.4375 251.5C59.4375 251.271 59.5208 251.094 59.6875 250.969C59.8542 250.844 60.0521 250.781 60.2812 250.781C60.5938 250.781 61 250.875 61.5 251.062C62 251.229 62.6562 251.448 63.4688 251.719C64.3021 251.969 65.3333 252.25 66.5625 252.562C67.8125 252.875 69.3438 253.156 71.1562 253.406C72.5938 253.594 73.9167 253.729 75.125 253.812C76.3333 253.875 77.4688 253.906 78.5312 253.906C79.1771 253.906 79.7188 253.896 80.1562 253.875C80.5938 253.854 80.9479 253.844 81.2188 253.844C81.8021 253.844 82.1979 253.927 82.4062 254.094C82.6354 254.24 82.75 254.438 82.75 254.688C82.75 254.938 82.6667 255.135 82.5 255.281C82.3333 255.406 82.125 255.51 81.875 255.594C81.6458 255.677 81.3854 255.729 81.0938 255.75C80.8229 255.771 80.5625 255.781 80.3125 255.781C79.2292 255.781 78.3021 255.812 77.5312 255.875C76.7812 255.917 76.1146 256.021 75.5312 256.188C74.9688 256.333 74.4583 256.573 74 256.906C73.5417 257.219 73.0833 257.635 72.625 258.156C72.1458 258.698 71.5938 259.531 70.9688 260.656C70.3438 261.76 69.6771 263.062 68.9688 264.562C68.2604 266.042 67.5104 267.656 66.7188 269.406C65.9479 271.156 65.1667 272.938 64.375 274.75C63.6042 276.542 62.8333 278.312 62.0625 280.062C61.2917 281.812 60.5521 283.427 59.8438 284.906C59.4062 285.823 58.875 286.969 58.25 288.344C57.6458 289.698 57 291.135 56.3125 292.656C55.625 294.177 54.9271 295.698 54.2188 297.219C53.5312 298.719 52.875 300.073 52.25 301.281C51.625 302.49 51.0729 303.469 50.5938 304.219C50.1146 304.99 49.7604 305.375 49.5312 305.375C49.1771 305.375 48.6042 304.625 47.8125 303.125C47.0417 301.646 46.0104 299.521 44.7188 296.75C43.9271 295.021 43.1667 293.333 42.4375 291.688C41.7292 290.021 41.0521 288.458 40.4062 287C39.7812 285.521 39.2083 284.167 38.6875 282.938C38.1667 281.708 37.6979 280.646 37.2812 279.75C36.8646 278.854 36.5104 278.156 36.2188 277.656C35.9271 277.156 35.7083 276.906 35.5625 276.906C35.4167 276.906 35.1562 277.188 34.7812 277.75C34.4271 278.312 34 279.031 33.5 279.906C33.0208 280.781 32.5104 281.75 31.9688 282.812C31.4271 283.875 30.9062 284.896 30.4062 285.875C29.9062 286.854 29.4583 287.74 29.0625 288.531C28.6667 289.323 28.3854 289.885 28.2188 290.219L23.5312 299.094C23.2396 299.615 22.9896 299.979 22.7812 300.188C22.5938 300.396 22.3958 300.5 22.1875 300.5C21.8333 300.5 21.5 300.125 21.1875 299.375C20.9375 298.792 20.6562 298.115 20.3438 297.344C20.0521 296.573 19.7396 295.75 19.4062 294.875C19.0938 293.979 18.7604 293.062 18.4062 292.125C18.0729 291.167 17.7396 290.229 17.4062 289.312C16.8021 287.625 16.2604 285.99 15.7812 284.406C15.3021 282.802 14.8333 281.292 14.375 279.875C13.9167 278.438 13.4479 277.125 12.9688 275.938C12.4896 274.75 11.9583 273.729 11.375 272.875C10.7917 272 10.125 271.323 9.375 270.844C8.64583 270.365 7.80208 270.125 6.84375 270.125C6.36458 270.125 5.89583 270.156 5.4375 270.219C5 270.26 4.57292 270.312 4.15625 270.375C3.76042 270.438 3.38542 270.5 3.03125 270.562C2.69792 270.604 2.40625 270.625 2.15625 270.625C1.44792 270.625 1.09375 270.365 1.09375 269.844C1.09375 269.552 1.1875 269.344 1.375 269.219C1.5625 269.073 1.80208 268.948 2.09375 268.844C2.46875 268.719 2.96875 268.604 3.59375 268.5C4.21875 268.396 4.9375 268.24 5.75 268.031C6.58333 267.823 7.51042 267.542 8.53125 267.188C9.55208 266.833 10.6562 266.354 11.8438 265.75C13.5104 264.917 14.8958 264.115 16 263.344C17.1042 262.573 18.0104 261.896 18.7188 261.312C19.4479 260.708 20 260.24 20.375 259.906C20.7708 259.552 21.0833 259.375 21.3125 259.375ZM102.406 268.438C102.719 268.438 102.927 268.479 103.031 268.562C103.156 268.646 103.219 268.76 103.219 268.906C103.219 269.198 102.906 269.531 102.281 269.906C101.469 270.427 100.646 271.021 99.8125 271.688C98.9792 272.354 98.2396 273.219 97.5938 274.281C97.9271 275.219 98.1875 276.177 98.375 277.156C98.5833 278.135 98.6875 279.156 98.6875 280.219C98.6875 281.469 98.5625 282.667 98.3125 283.812C98.0833 284.938 97.7604 286 97.3438 287C97.5521 287.354 97.8333 287.698 98.1875 288.031C98.5417 288.365 98.9479 288.667 99.4062 288.938C99.8854 289.208 100.417 289.427 101 289.594C101.604 289.74 102.24 289.812 102.906 289.812C103.969 289.812 104.927 289.594 105.781 289.156C106.656 288.719 107.406 288.115 108.031 287.344C108.656 286.573 109.135 285.656 109.469 284.594C109.823 283.531 110 282.375 110 281.125C110 279.292 109.74 277.51 109.219 275.781C108.698 274.052 107.917 272.615 106.875 271.469C106.75 271.302 106.604 271.146 106.438 271C106.271 270.833 106.104 270.667 105.938 270.5C105.792 270.312 105.667 270.135 105.562 269.969C105.458 269.781 105.406 269.594 105.406 269.406C105.406 269.094 105.5 268.844 105.688 268.656C105.875 268.469 106.146 268.375 106.5 268.375C106.979 268.375 107.542 268.406 108.188 268.469C108.854 268.531 109.594 268.562 110.406 268.562C111.906 268.562 113.396 268.406 114.875 268.094C116.354 267.781 117.76 267.354 119.094 266.812C120.448 266.25 121.708 265.604 122.875 264.875C124.042 264.146 125.062 263.354 125.938 262.5C126.812 261.667 127.583 260.781 128.25 259.844C128.938 258.906 129.51 257.969 129.969 257.031C130.448 256.094 130.812 255.177 131.062 254.281C131.312 253.385 131.438 252.542 131.438 251.75C131.438 251.083 131.302 250.51 131.031 250.031C130.781 249.552 130.458 249.135 130.062 248.781C129.688 248.406 129.271 248.062 128.812 247.75C128.354 247.417 127.927 247.073 127.531 246.719C127.156 246.344 126.833 245.927 126.562 245.469C126.312 245.01 126.188 244.458 126.188 243.812C126.188 242.75 126.531 241.875 127.219 241.188C127.906 240.5 128.885 240.156 130.156 240.156C130.781 240.156 131.385 240.271 131.969 240.5C132.552 240.708 133.062 241.042 133.5 241.5C133.938 241.958 134.292 242.542 134.562 243.25C134.833 243.938 134.969 244.76 134.969 245.719C134.969 246.885 134.812 248.219 134.5 249.719C134.188 251.219 133.698 252.771 133.031 254.375C132.385 255.958 131.562 257.542 130.562 259.125C129.562 260.688 128.365 262.135 126.969 263.469C125.49 264.885 123.958 266.021 122.375 266.875C120.792 267.729 119.281 268.406 117.844 268.906C116.427 269.385 115.146 269.719 114 269.906C112.875 270.073 112.031 270.167 111.469 270.188C111.635 270.292 111.99 270.583 112.531 271.062C113.073 271.521 113.635 272.156 114.219 272.969C114.802 273.76 115.323 274.729 115.781 275.875C116.24 277.021 116.469 278.323 116.469 279.781C116.469 281.656 116.115 283.333 115.406 284.812C114.719 286.271 113.781 287.5 112.594 288.5C111.406 289.5 110.021 290.26 108.438 290.781C106.854 291.302 105.177 291.562 103.406 291.562C102.031 291.562 100.708 291.417 99.4375 291.125C98.1667 290.812 97 290.354 95.9375 289.75C94.7083 291.583 93.125 293.042 91.1875 294.125C89.25 295.188 87.0104 295.719 84.4688 295.719C82.7604 295.719 81.0729 295.469 79.4062 294.969C77.7604 294.448 76.2812 293.635 74.9688 292.531C73.6562 291.427 72.5938 290.01 71.7812 288.281C70.9896 286.531 70.5938 284.417 70.5938 281.938C70.5938 279.312 70.9896 276.99 71.7812 274.969C72.5938 272.948 73.6875 271.26 75.0625 269.906C76.4375 268.531 78.0417 267.5 79.875 266.812C81.7083 266.104 83.6458 265.75 85.6875 265.75C86.7708 265.75 87.8125 265.875 88.8125 266.125C89.8333 266.375 90.7812 266.74 91.6562 267.219C92.5521 267.677 93.3646 268.24 94.0938 268.906C94.8229 269.552 95.4583 270.271 96 271.062C96.6042 270.625 97.2188 270.24 97.8438 269.906C98.4688 269.573 99.0625 269.302 99.625 269.094C100.208 268.865 100.74 268.698 101.219 268.594C101.698 268.49 102.094 268.438 102.406 268.438ZM86.2812 267.031C84.9688 267.031 83.7396 267.354 82.5938 268C81.4688 268.646 80.4792 269.625 79.625 270.938C78.7917 272.25 78.1354 273.885 77.6562 275.844C77.1771 277.802 76.9375 280.094 76.9375 282.719C76.9375 284.385 77.1042 285.885 77.4375 287.219C77.7917 288.531 78.2812 289.646 78.9062 290.562C79.5521 291.479 80.3229 292.188 81.2188 292.688C82.1146 293.167 83.1146 293.406 84.2188 293.406C85.2812 293.406 86.2396 293.198 87.0938 292.781C87.9688 292.365 88.7396 291.802 89.4062 291.094C90.0729 290.385 90.625 289.573 91.0625 288.656C91.5208 287.719 91.8646 286.74 92.0938 285.719C91.7396 285.01 91.4479 284.219 91.2188 283.344C90.9896 282.469 90.875 281.531 90.875 280.531C90.875 279.24 91.0729 278.031 91.4688 276.906C91.8854 275.76 92.3958 274.75 93 273.875C92.6458 271.604 91.8646 269.896 90.6562 268.75C89.4688 267.604 88.0104 267.031 86.2812 267.031ZM149.625 264.031C150.167 264.031 150.604 264.062 150.938 264.125C151.292 264.167 151.562 264.229 151.75 264.312C151.938 264.396 152.062 264.5 152.125 264.625C152.208 264.75 152.25 264.875 152.25 265C152.25 265.354 152.052 265.625 151.656 265.812C151.281 266 150.583 266.094 149.562 266.094C148.833 266.094 147.906 266.125 146.781 266.188C145.656 266.25 144.51 266.365 143.344 266.531C143.552 268.594 143.812 270.667 144.125 272.75C144.438 274.812 144.781 276.823 145.156 278.781C145.552 280.719 145.969 282.583 146.406 284.375C146.844 286.146 147.292 287.781 147.75 289.281C148.208 290.76 148.656 292.073 149.094 293.219C149.552 294.344 149.979 295.24 150.375 295.906C150.771 296.573 151.208 297.125 151.688 297.562C152.188 298 152.74 298.365 153.344 298.656C153.781 298.865 154.219 299.031 154.656 299.156C155.115 299.26 155.521 299.354 155.875 299.438C156.25 299.5 156.542 299.583 156.75 299.688C156.979 299.771 157.094 299.896 157.094 300.062C157.094 300.521 156.438 300.844 155.125 301.031C154.708 301.094 154.26 301.156 153.781 301.219C153.323 301.281 152.812 301.375 152.25 301.5C151.688 301.625 151.073 301.792 150.406 302C149.76 302.208 149.052 302.479 148.281 302.812C147.406 303.188 146.615 303.594 145.906 304.031C145.198 304.469 144.552 304.885 143.969 305.281C143.406 305.677 142.906 306 142.469 306.25C142.052 306.521 141.688 306.656 141.375 306.656C140.979 306.656 140.781 306.448 140.781 306.031C140.781 305.76 140.938 305.448 141.25 305.094C141.583 304.76 141.938 304.375 142.312 303.938C142.708 303.521 143.062 303.062 143.375 302.562C143.708 302.062 143.875 301.531 143.875 300.969C143.875 300.302 143.771 299.365 143.562 298.156C143.375 296.948 143.115 295.531 142.781 293.906C142.469 292.26 142.115 290.438 141.719 288.438C141.344 286.417 140.969 284.271 140.594 282C140.219 279.708 139.875 277.312 139.562 274.812C139.271 272.292 139.042 269.719 138.875 267.094L137.344 267.281C136.615 267.385 135.927 267.5 135.281 267.625C134.656 267.75 134.042 267.875 133.438 268C133.625 270.833 133.844 273.531 134.094 276.094C134.365 278.656 134.656 281.146 134.969 283.562C135.281 285.979 135.615 288.344 135.969 290.656C136.323 292.948 136.688 295.25 137.062 297.562C137.354 299.396 137.635 301.292 137.906 303.25C138.198 305.229 138.521 307.146 138.875 309C139.25 310.854 139.688 312.583 140.188 314.188C140.708 315.812 141.333 317.167 142.062 318.25C142.771 319.292 143.521 320.042 144.312 320.5C145.125 320.979 145.875 321.312 146.562 321.5C147.25 321.708 147.823 321.854 148.281 321.938C148.74 322.042 148.969 322.24 148.969 322.531C148.969 322.844 148.708 323.094 148.188 323.281C147.688 323.469 146.885 323.562 145.781 323.562C144.927 323.562 144.01 323.49 143.031 323.344C142.052 323.219 141.042 323.062 140 322.875C138.958 322.708 137.906 322.552 136.844 322.406C135.781 322.281 134.75 322.219 133.75 322.219C132.896 322.219 132.094 322.24 131.344 322.281C130.615 322.344 129.948 322.406 129.344 322.469C128.76 322.531 128.25 322.583 127.812 322.625C127.375 322.688 127.052 322.719 126.844 322.719C126.073 322.719 125.542 322.635 125.25 322.469C124.979 322.302 124.844 322.021 124.844 321.625C124.844 321.438 124.896 321.281 125 321.156C125.104 321.031 125.219 320.927 125.344 320.844C125.49 320.781 125.646 320.729 125.812 320.688C125.979 320.646 126.125 320.615 126.25 320.594C126.583 320.552 127.031 320.469 127.594 320.344C128.156 320.24 128.719 320.052 129.281 319.781C129.844 319.51 130.344 319.146 130.781 318.688C131.24 318.229 131.521 317.635 131.625 316.906C131.688 316.49 131.74 316.031 131.781 315.531C131.823 315.052 131.844 314.521 131.844 313.938C131.844 311.958 131.708 309.5 131.438 306.562C131.167 303.646 130.854 300.302 130.5 296.531C130.167 292.74 129.844 288.552 129.531 283.969C129.219 279.365 129.021 274.406 128.938 269.094C128.167 269.281 127.49 269.427 126.906 269.531C126.344 269.615 125.938 269.656 125.688 269.656C125.292 269.656 125.094 269.51 125.094 269.219C125.094 268.885 125.458 268.562 126.188 268.25C126.938 267.938 127.854 267.615 128.938 267.281V264.344C128.938 256.635 129.438 250.156 130.438 244.906C131.438 239.656 132.771 235.688 134.438 233C135.062 232 135.729 231.146 136.438 230.438C137.146 229.708 137.875 229.125 138.625 228.688C139.396 228.229 140.167 227.896 140.938 227.688C141.729 227.479 142.51 227.375 143.281 227.375C144.177 227.375 145.01 227.51 145.781 227.781C146.552 228.052 147.219 228.448 147.781 228.969C148.365 229.49 148.812 230.115 149.125 230.844C149.458 231.573 149.625 232.396 149.625 233.312C149.625 234.25 149.49 235.062 149.219 235.75C148.948 236.438 148.583 237.01 148.125 237.469C147.667 237.906 147.146 238.229 146.562 238.438C145.979 238.646 145.375 238.75 144.75 238.75C143.438 238.75 142.49 238.396 141.906 237.688C141.323 236.958 141.031 236.01 141.031 234.844C141.031 234.406 141.01 233.979 140.969 233.562C140.948 233.146 140.875 232.781 140.75 232.469C140.625 232.135 140.438 231.875 140.188 231.688C139.958 231.5 139.646 231.406 139.25 231.406C138.333 231.406 137.542 231.802 136.875 232.594C136.208 233.385 135.635 234.438 135.156 235.75C134.698 237.042 134.312 238.521 134 240.188C133.708 241.833 133.479 243.521 133.312 245.25C133.167 246.979 133.062 248.677 133 250.344C132.938 251.99 132.906 253.458 132.906 254.75C132.906 256.708 132.948 258.667 133.031 260.625C133.115 262.583 133.229 264.469 133.375 266.281C133.562 266.24 133.781 266.188 134.031 266.125C134.302 266.062 134.573 266.01 134.844 265.969C135.115 265.906 135.365 265.854 135.594 265.812C135.844 265.771 136.042 265.729 136.188 265.688L138.75 265.25C138.708 264.583 138.688 263.906 138.688 263.219C138.688 262.51 138.688 261.802 138.688 261.094C138.688 259.427 138.781 257.708 138.969 255.938C139.156 254.167 139.458 252.448 139.875 250.781C140.312 249.094 140.875 247.5 141.562 246C142.271 244.479 143.125 243.156 144.125 242.031C145.146 240.906 146.323 240.021 147.656 239.375C149.01 238.708 150.562 238.375 152.312 238.375C153.771 238.375 155.031 238.604 156.094 239.062C157.156 239.521 158.031 240.146 158.719 240.938C159.406 241.708 159.917 242.625 160.25 243.688C160.583 244.75 160.75 245.875 160.75 247.062C160.75 248.354 160.604 249.542 160.312 250.625C160.042 251.708 159.635 252.635 159.094 253.406C158.552 254.177 157.885 254.781 157.094 255.219C156.302 255.635 155.406 255.844 154.406 255.844C152.844 255.844 151.615 255.427 150.719 254.594C149.823 253.76 149.375 252.594 149.375 251.094C149.375 250.406 149.479 249.802 149.688 249.281C149.896 248.74 150.156 248.25 150.469 247.812C150.802 247.375 151.146 246.969 151.5 246.594C151.875 246.219 152.219 245.833 152.531 245.438C152.865 245.042 153.135 244.625 153.344 244.188C153.552 243.729 153.656 243.219 153.656 242.656C153.656 241.865 153.427 241.24 152.969 240.781C152.531 240.323 151.865 240.094 150.969 240.094C149.906 240.094 148.885 240.427 147.906 241.094C146.948 241.76 146.094 242.812 145.344 244.25C144.615 245.688 144.021 247.542 143.562 249.812C143.125 252.083 142.906 254.823 142.906 258.031C142.906 259.115 142.917 260.208 142.938 261.312C142.979 262.396 143.052 263.521 143.156 264.688C143.802 264.583 144.438 264.49 145.062 264.406C145.688 264.323 146.281 264.26 146.844 264.219C147.406 264.156 147.927 264.115 148.406 264.094C148.885 264.052 149.292 264.031 149.625 264.031ZM179.562 264.031C180.104 264.031 180.542 264.062 180.875 264.125C181.229 264.167 181.5 264.229 181.688 264.312C181.875 264.396 182 264.5 182.062 264.625C182.146 264.75 182.188 264.875 182.188 265C182.188 265.354 181.99 265.625 181.594 265.812C181.219 266 180.521 266.094 179.5 266.094C178.771 266.094 177.844 266.125 176.719 266.188C175.594 266.25 174.448 266.365 173.281 266.531C173.49 268.594 173.75 270.667 174.062 272.75C174.375 274.812 174.719 276.823 175.094 278.781C175.49 280.719 175.906 282.583 176.344 284.375C176.781 286.146 177.229 287.781 177.688 289.281C178.146 290.76 178.594 292.073 179.031 293.219C179.49 294.344 179.917 295.24 180.312 295.906C180.708 296.573 181.146 297.125 181.625 297.562C182.125 298 182.677 298.365 183.281 298.656C183.719 298.865 184.156 299.031 184.594 299.156C185.052 299.26 185.458 299.354 185.812 299.438C186.188 299.5 186.479 299.583 186.688 299.688C186.917 299.771 187.031 299.896 187.031 300.062C187.031 300.521 186.375 300.844 185.062 301.031C184.646 301.094 184.198 301.156 183.719 301.219C183.26 301.281 182.75 301.375 182.188 301.5C181.625 301.625 181.01 301.792 180.344 302C179.698 302.208 178.99 302.479 178.219 302.812C177.344 303.188 176.552 303.594 175.844 304.031C175.135 304.469 174.49 304.885 173.906 305.281C173.344 305.677 172.844 306 172.406 306.25C171.99 306.521 171.625 306.656 171.312 306.656C170.917 306.656 170.719 306.448 170.719 306.031C170.719 305.76 170.875 305.448 171.188 305.094C171.521 304.76 171.875 304.375 172.25 303.938C172.646 303.521 173 303.062 173.312 302.562C173.646 302.062 173.812 301.531 173.812 300.969C173.812 300.302 173.708 299.365 173.5 298.156C173.312 296.948 173.052 295.531 172.719 293.906C172.406 292.26 172.052 290.438 171.656 288.438C171.281 286.417 170.906 284.271 170.531 282C170.156 279.708 169.812 277.312 169.5 274.812C169.208 272.292 168.979 269.719 168.812 267.094L167.281 267.281C166.552 267.385 165.865 267.5 165.219 267.625C164.594 267.75 163.979 267.875 163.375 268C163.562 270.833 163.781 273.531 164.031 276.094C164.302 278.656 164.594 281.146 164.906 283.562C165.219 285.979 165.552 288.344 165.906 290.656C166.26 292.948 166.625 295.25 167 297.562C167.292 299.396 167.573 301.292 167.844 303.25C168.135 305.229 168.458 307.146 168.812 309C169.188 310.854 169.625 312.583 170.125 314.188C170.646 315.812 171.271 317.167 172 318.25C172.708 319.292 173.458 320.042 174.25 320.5C175.062 320.979 175.812 321.312 176.5 321.5C177.188 321.708 177.76 321.854 178.219 321.938C178.677 322.042 178.906 322.24 178.906 322.531C178.906 322.844 178.646 323.094 178.125 323.281C177.625 323.469 176.823 323.562 175.719 323.562C174.865 323.562 173.948 323.49 172.969 323.344C171.99 323.219 170.979 323.062 169.938 322.875C168.896 322.708 167.844 322.552 166.781 322.406C165.719 322.281 164.688 322.219 163.688 322.219C162.833 322.219 162.031 322.24 161.281 322.281C160.552 322.344 159.885 322.406 159.281 322.469C158.698 322.531 158.188 322.583 157.75 322.625C157.312 322.688 156.99 322.719 156.781 322.719C156.01 322.719 155.479 322.635 155.188 322.469C154.917 322.302 154.781 322.021 154.781 321.625C154.781 321.438 154.833 321.281 154.938 321.156C155.042 321.031 155.156 320.927 155.281 320.844C155.427 320.781 155.583 320.729 155.75 320.688C155.917 320.646 156.062 320.615 156.188 320.594C156.521 320.552 156.969 320.469 157.531 320.344C158.094 320.24 158.656 320.052 159.219 319.781C159.781 319.51 160.281 319.146 160.719 318.688C161.177 318.229 161.458 317.635 161.562 316.906C161.625 316.49 161.677 316.031 161.719 315.531C161.76 315.052 161.781 314.521 161.781 313.938C161.781 311.958 161.646 309.5 161.375 306.562C161.104 303.646 160.792 300.302 160.438 296.531C160.104 292.74 159.781 288.552 159.469 283.969C159.156 279.365 158.958 274.406 158.875 269.094C158.104 269.281 157.427 269.427 156.844 269.531C156.281 269.615 155.875 269.656 155.625 269.656C155.229 269.656 155.031 269.51 155.031 269.219C155.031 268.885 155.396 268.562 156.125 268.25C156.875 267.938 157.792 267.615 158.875 267.281V264.344C158.875 256.635 159.375 250.156 160.375 244.906C161.375 239.656 162.708 235.688 164.375 233C165 232 165.667 231.146 166.375 230.438C167.083 229.708 167.812 229.125 168.562 228.688C169.333 228.229 170.104 227.896 170.875 227.688C171.667 227.479 172.448 227.375 173.219 227.375C174.115 227.375 174.948 227.51 175.719 227.781C176.49 228.052 177.156 228.448 177.719 228.969C178.302 229.49 178.75 230.115 179.062 230.844C179.396 231.573 179.562 232.396 179.562 233.312C179.562 234.25 179.427 235.062 179.156 235.75C178.885 236.438 178.521 237.01 178.062 237.469C177.604 237.906 177.083 238.229 176.5 238.438C175.917 238.646 175.312 238.75 174.688 238.75C173.375 238.75 172.427 238.396 171.844 237.688C171.26 236.958 170.969 236.01 170.969 234.844C170.969 234.406 170.948 233.979 170.906 233.562C170.885 233.146 170.812 232.781 170.688 232.469C170.562 232.135 170.375 231.875 170.125 231.688C169.896 231.5 169.583 231.406 169.188 231.406C168.271 231.406 167.479 231.802 166.812 232.594C166.146 233.385 165.573 234.438 165.094 235.75C164.635 237.042 164.25 238.521 163.938 240.188C163.646 241.833 163.417 243.521 163.25 245.25C163.104 246.979 163 248.677 162.938 250.344C162.875 251.99 162.844 253.458 162.844 254.75C162.844 256.708 162.885 258.667 162.969 260.625C163.052 262.583 163.167 264.469 163.312 266.281C163.5 266.24 163.719 266.188 163.969 266.125C164.24 266.062 164.51 266.01 164.781 265.969C165.052 265.906 165.302 265.854 165.531 265.812C165.781 265.771 165.979 265.729 166.125 265.688L168.688 265.25C168.646 264.583 168.625 263.906 168.625 263.219C168.625 262.51 168.625 261.802 168.625 261.094C168.625 259.427 168.719 257.708 168.906 255.938C169.094 254.167 169.396 252.448 169.812 250.781C170.25 249.094 170.812 247.5 171.5 246C172.208 244.479 173.062 243.156 174.062 242.031C175.083 240.906 176.26 240.021 177.594 239.375C178.948 238.708 180.5 238.375 182.25 238.375C183.708 238.375 184.969 238.604 186.031 239.062C187.094 239.521 187.969 240.146 188.656 240.938C189.344 241.708 189.854 242.625 190.188 243.688C190.521 244.75 190.688 245.875 190.688 247.062C190.688 248.354 190.542 249.542 190.25 250.625C189.979 251.708 189.573 252.635 189.031 253.406C188.49 254.177 187.823 254.781 187.031 255.219C186.24 255.635 185.344 255.844 184.344 255.844C182.781 255.844 181.552 255.427 180.656 254.594C179.76 253.76 179.312 252.594 179.312 251.094C179.312 250.406 179.417 249.802 179.625 249.281C179.833 248.74 180.094 248.25 180.406 247.812C180.74 247.375 181.083 246.969 181.438 246.594C181.812 246.219 182.156 245.833 182.469 245.438C182.802 245.042 183.073 244.625 183.281 244.188C183.49 243.729 183.594 243.219 183.594 242.656C183.594 241.865 183.365 241.24 182.906 240.781C182.469 240.323 181.802 240.094 180.906 240.094C179.844 240.094 178.823 240.427 177.844 241.094C176.885 241.76 176.031 242.812 175.281 244.25C174.552 245.688 173.958 247.542 173.5 249.812C173.062 252.083 172.844 254.823 172.844 258.031C172.844 259.115 172.854 260.208 172.875 261.312C172.917 262.396 172.99 263.521 173.094 264.688C173.74 264.583 174.375 264.49 175 264.406C175.625 264.323 176.219 264.26 176.781 264.219C177.344 264.156 177.865 264.115 178.344 264.094C178.823 264.052 179.229 264.031 179.562 264.031ZM190.75 291.875C191.542 291.875 192.208 292.021 192.75 292.312C193.312 292.583 193.76 292.948 194.094 293.406C194.448 293.844 194.698 294.344 194.844 294.906C195.01 295.448 195.094 295.99 195.094 296.531C195.094 297.49 194.979 298.323 194.75 299.031C194.521 299.74 194.208 300.323 193.812 300.781C193.417 301.24 192.948 301.573 192.406 301.781C191.865 302.01 191.292 302.125 190.688 302.125C190.042 302.125 189.448 302.01 188.906 301.781C188.365 301.552 187.885 301.219 187.469 300.781C187.073 300.344 186.76 299.823 186.531 299.219C186.302 298.594 186.188 297.896 186.188 297.125C186.188 296.312 186.302 295.583 186.531 294.938C186.76 294.292 187.073 293.75 187.469 293.312C187.885 292.854 188.365 292.5 188.906 292.25C189.469 292 190.083 291.875 190.75 291.875ZM206.062 291.875C206.854 291.875 207.521 292.021 208.062 292.312C208.625 292.583 209.073 292.948 209.406 293.406C209.76 293.844 210.01 294.344 210.156 294.906C210.323 295.448 210.406 295.99 210.406 296.531C210.406 297.49 210.292 298.323 210.062 299.031C209.833 299.74 209.521 300.323 209.125 300.781C208.729 301.24 208.26 301.573 207.719 301.781C207.177 302.01 206.604 302.125 206 302.125C205.354 302.125 204.76 302.01 204.219 301.781C203.677 301.552 203.198 301.219 202.781 300.781C202.385 300.344 202.073 299.823 201.844 299.219C201.615 298.594 201.5 297.896 201.5 297.125C201.5 296.312 201.615 295.583 201.844 294.938C202.073 294.292 202.385 293.75 202.781 293.312C203.198 292.854 203.677 292.5 204.219 292.25C204.781 292 205.396 291.875 206.062 291.875Z" fill="black"/>
    <defs>
    <clipPath id="clip0_65_124">
    <rect width="224" height="224" fill="white"/>
    </clipPath>
    </defs>
</svg>
