<svg width="139" height="111" viewBox="0 0 139 111" fill="none" xmlns="http://www.w3.org/2000/svg">
    <path d="M133.842 26.8475C130.222 24.3164 126.512 24.1356 122.711 26.3051C115.471 29.3785 109.499 34.7119 104.793 42.3051C99.7253 32.5424 91.8522 25.5819 81.1738 21.4237V12.2034C81.1738 9.12994 79.8164 6.0565 77.1016 2.98305C74.2057 0.99435 70.8574 0.271186 67.0566 0.813559C56.9212 2.98305 50.2246 8.94915 46.9668 18.7119C33.9355 21.4237 22.8499 26.8475 13.71 34.983C4.56999 43.1186 0 52.7006 0 63.7288C0 76.7458 6.33464 87.7288 19.0039 96.678C31.6732 105.627 45.6094 110.102 60.8125 110.102C70.9479 110.102 79.8617 107.932 87.5537 103.593C95.2458 99.2542 100.992 93.2881 104.793 85.6949C109.499 93.2881 115.471 98.7119 122.711 101.966C125.245 102.689 126.783 103.051 127.326 103.051C129.679 103.051 131.851 102.508 133.842 101.424C137.281 99.0734 139 95.8192 139 91.661V36.0678C139 31.548 137.281 28.4746 133.842 26.8475ZM60.8125 17.6271C61.7174 15.4576 64.6133 13.6497 69.5 12.2034V17.6271H60.8125ZM11.6738 63.7288C11.6738 58.3051 13.6195 53.1525 17.5107 48.2712C21.402 43.3898 26.6055 39.322 33.1211 36.0678C38.0078 42.0339 40.4512 51.2542 40.4512 63.7288C40.4512 76.2034 38.0078 85.5141 33.1211 91.661C26.6055 88.4068 21.402 84.2938 17.5107 79.322C13.6195 74.3503 11.6738 69.1525 11.6738 63.7288ZM60.8125 98.4407C56.4688 98.4407 50.8581 97.7175 43.9805 96.2712C49.4102 87.0508 52.125 76.2034 52.125 63.7288C52.125 51.435 49.4102 40.678 43.9805 31.4576C48.3242 29.8305 53.9349 29.0169 60.8125 29.0169C72.0339 29.0169 81.1286 32.1808 88.0967 38.5085C95.0648 44.8362 98.5488 53.2429 98.5488 63.7288C98.5488 74.2147 95.0648 82.6215 88.0967 88.9491C81.1286 95.2768 72.0339 98.4407 60.8125 98.4407ZM127.326 93.2881C115.743 85.6949 109.951 76.2034 109.951 64.8136C109.951 58.8474 111.716 53.1073 115.245 47.5932C118.774 42.0791 122.801 38.4181 127.326 36.6102V93.2881ZM34.75 58.0339C34.75 59.661 34.1618 61.0169 32.9854 62.1017C31.8089 63.1864 30.4967 63.7288 29.0488 63.7288C27.4199 63.7288 26.0173 63.1864 24.8408 62.1017C23.6644 61.0169 23.0762 59.661 23.0762 58.0339C23.0762 56.4068 23.6644 55.0508 24.8408 53.9661C26.0173 52.8813 27.4199 52.339 29.0488 52.339C30.4967 52.339 31.8089 52.8813 32.9854 53.9661C34.1618 55.0508 34.75 56.4068 34.75 58.0339Z" fill="black"/>
</svg>


