<svg width="54" height="54" viewBox="0 0 54 54" fill="none" xmlns="http://www.w3.org/2000/svg">
    <path d="M22.95 8.09998C25.7724 8.09949 28.5365 8.90334 30.9184 10.4174C33.3004 11.9314 35.2016 14.0928 36.3992 16.6485C37.5969 19.2042 38.0414 22.0483 37.6808 24.8475C37.3201 27.6468 36.1692 30.2853 34.3629 32.454L45.5058 43.5942C45.745 43.8323 45.8863 44.1513 45.9019 44.4885C45.9175 44.8256 45.8063 45.1564 45.5901 45.4156C45.3739 45.6747 45.0685 45.8436 44.7341 45.8887C44.3996 45.9339 44.0604 45.8522 43.7832 45.6597L43.5942 45.5058L32.454 34.3629C30.6212 35.8886 28.448 36.9505 26.118 37.4588C23.7881 37.967 21.37 37.9067 19.0684 37.2829C16.7667 36.659 14.6491 35.4901 12.8947 33.8748C11.1403 32.2596 9.80072 30.2456 8.98923 28.0032C8.17775 25.7608 7.91825 23.3559 8.23267 20.992C8.5471 18.6281 9.4262 16.3747 10.7956 14.4224C12.165 12.4701 13.9845 10.8762 16.1001 9.77575C18.2157 8.67526 20.5653 8.10046 22.95 8.09998V8.09998ZM22.95 10.8C19.7276 10.8 16.6372 12.0801 14.3586 14.3586C12.0801 16.6372 10.8 19.7276 10.8 22.95C10.8 26.1724 12.0801 29.2628 14.3586 31.5413C16.6372 33.8199 19.7276 35.1 22.95 35.1C26.1724 35.1 29.2628 33.8199 31.5413 31.5413C33.8199 29.2628 35.1 26.1724 35.1 22.95C35.1 19.7276 33.8199 16.6372 31.5413 14.3586C29.2628 12.0801 26.1724 10.8 22.95 10.8Z" fill="black"/>
</svg>
