<svg width="314" height="314" viewBox="0 0 314 314" fill="none" xmlns="http://www.w3.org/2000/svg">
    <path d="M100.578 292.903L134.922 257.578C122.656 255.125 111.372 250.219 101.069 243.35L100.578 292.903ZM213.422 21.0969L179.078 56.4219C191.344 58.875 202.628 63.7813 212.931 70.65L213.422 21.0969ZM21.0969 213.422L70.6501 212.931C63.7813 202.628 58.8751 191.344 56.4219 179.078L21.0969 213.422ZM292.903 100.578L243.35 101.069C249.728 111.372 254.634 122.656 257.578 134.922L292.903 100.578ZM21.0969 100.578L56.4219 134.922C58.8751 122.656 63.7813 111.372 70.6501 101.069L21.0969 100.578ZM292.903 213.422L257.578 179.078C255.125 191.344 250.219 202.628 243.35 212.931L292.903 213.422ZM100.578 21.0969L101.069 70.65C111.372 64.2719 122.656 59.3656 134.922 56.4219L100.578 21.0969ZM213.422 292.903L212.931 243.35C202.628 250.219 191.344 255.125 179.078 257.578L213.422 292.903Z" fill="#FFE62E"/>
    <path d="M72.6125 215.875L52.9875 261.503L98.6156 241.878C88.3125 234.519 79.4813 225.688 72.6125 215.875ZM241.387 98.125L261.012 52.4969L215.875 72.1219C225.688 79.4812 234.519 88.3125 241.387 98.125ZM55.9312 138.847L9.8125 157L55.9312 175.153C54.4594 169.266 53.9688 163.378 53.9688 157C53.9688 150.622 54.4594 144.734 55.9312 138.847ZM258.069 175.153L304.188 157L258.069 138.847C259.05 144.734 260.031 151.113 260.031 157C260.031 163.378 259.541 169.266 258.069 175.153ZM98.125 72.6125L52.4969 52.9875L72.1219 98.6156C79.4812 88.3125 88.3125 79.4813 98.125 72.6125ZM215.875 241.387L261.503 261.012L241.878 215.384C234.519 225.688 225.688 234.519 215.875 241.387ZM175.153 55.9312L157 9.8125L138.847 55.9312C144.734 54.95 151.113 53.9688 157 53.9688C162.887 53.9688 169.266 54.4594 175.153 55.9312ZM138.847 258.069L157 304.188L175.153 258.069C169.266 259.541 163.378 260.031 157 260.031C150.622 260.031 144.734 259.541 138.847 258.069Z" fill="#FFCE31"/>
    <path d="M157 250.219C208.483 250.219 250.219 208.483 250.219 157C250.219 105.517 208.483 63.7812 157 63.7812C105.517 63.7812 63.7812 105.517 63.7812 157C63.7812 208.483 105.517 250.219 157 250.219Z" fill="#FFCE31"/>
</svg>
