<svg width="211" height="185" viewBox="0 0 211 185" fill="none" xmlns="http://www.w3.org/2000/svg">
    <path d="M197.812 79.2857C201.453 79.2857 204.561 80.5762 207.136 83.1571C209.712 85.738 211 88.8523 211 92.5C211 96.1477 209.712 99.262 207.136 101.843C204.561 104.424 201.453 105.714 197.812 105.714H196.267L184.419 174.057C183.869 177.223 182.358 179.838 179.886 181.903C177.413 183.968 174.597 185 171.438 185H39.5625C36.403 185 33.5869 183.968 31.1143 181.903C28.6416 179.838 27.1305 177.223 26.5811 174.057L14.7329 105.714H13.1875C9.5472 105.714 6.43921 104.424 3.86353 101.843C1.28784 99.262 0 96.1477 0 92.5C0 88.8523 1.28784 85.738 3.86353 83.1571C6.43921 80.5762 9.5472 79.2857 13.1875 79.2857H197.812ZM49.9683 161.875C51.7541 161.737 53.248 160.963 54.45 159.552C55.6519 158.141 56.1842 156.541 56.0469 154.752L52.75 111.805C52.6126 110.016 51.8399 108.519 50.4319 107.314C49.0238 106.11 47.4269 105.577 45.6411 105.714C43.8553 105.852 42.3614 106.626 41.1594 108.037C39.9574 109.448 39.4251 111.048 39.5625 112.838L42.8594 155.784C42.9967 157.505 43.7008 158.95 44.9714 160.12C46.2421 161.29 47.736 161.875 49.4531 161.875H49.9683ZM92.3125 155.268V112.321C92.3125 110.532 91.66 108.983 90.355 107.676C89.05 106.368 87.5046 105.714 85.7188 105.714C83.9329 105.714 82.3875 106.368 81.0825 107.676C79.7775 108.983 79.125 110.532 79.125 112.321V155.268C79.125 157.057 79.7775 158.606 81.0825 159.914C82.3875 161.221 83.9329 161.875 85.7188 161.875C87.5046 161.875 89.05 161.221 90.355 159.914C91.66 158.606 92.3125 157.057 92.3125 155.268ZM131.875 155.268V112.321C131.875 110.532 131.222 108.983 129.917 107.676C128.612 106.368 127.067 105.714 125.281 105.714C123.495 105.714 121.95 106.368 120.645 107.676C119.34 108.983 118.688 110.532 118.688 112.321V155.268C118.688 157.057 119.34 158.606 120.645 159.914C121.95 161.221 123.495 161.875 125.281 161.875C127.067 161.875 128.612 161.221 129.917 159.914C131.222 158.606 131.875 157.057 131.875 155.268ZM168.141 155.784L171.438 112.838C171.575 111.048 171.043 109.448 169.841 108.037C168.639 106.626 167.145 105.852 165.359 105.714C163.573 105.577 161.976 106.11 160.568 107.314C159.16 108.519 158.387 110.016 158.25 111.805L154.953 154.752C154.816 156.541 155.348 158.141 156.55 159.552C157.752 160.963 159.246 161.737 161.032 161.875H161.547C163.264 161.875 164.758 161.29 166.029 160.12C167.299 158.95 168.003 157.505 168.141 155.784ZM49.041 30.1451L39.4595 72.6786H25.8599L36.2656 27.1512C37.5706 21.0947 40.6271 16.1565 45.4351 12.3368C50.243 8.51702 55.7378 6.60714 61.9194 6.60714H79.125C79.125 4.81771 79.7775 3.26916 81.0825 1.9615C82.3875 0.653832 83.9329 0 85.7188 0H125.281C127.067 0 128.612 0.653832 129.917 1.9615C131.222 3.26916 131.875 4.81771 131.875 6.60714H149.081C155.262 6.60714 160.757 8.51702 165.565 12.3368C170.373 16.1565 173.429 21.0947 174.734 27.1512L185.14 72.6786H171.541L161.959 30.1451C161.203 27.1168 159.641 24.6391 157.271 22.7121C154.902 20.785 152.171 19.8214 149.081 19.8214H131.875C131.875 21.6109 131.222 23.1594 129.917 24.4671C128.612 25.7747 127.067 26.4286 125.281 26.4286H85.7188C83.9329 26.4286 82.3875 25.7747 81.0825 24.4671C79.7775 23.1594 79.125 21.6109 79.125 19.8214H61.9194C58.8286 19.8214 56.0984 20.785 53.7288 22.7121C51.3591 24.6391 49.7965 27.1168 49.041 30.1451Z" fill="black"/>
    <line y1="-10.5" x2="62.0508" y2="-10.5" transform="matrix(-0.0262244 0.999656 -0.999652 -0.0263892 67.2596 17.9559)" stroke="black" stroke-width="21"/>
    <line y1="-10.5" x2="62.0318" y2="-10.5" transform="matrix(0.00874422 0.999962 -0.999961 0.00879905 99.8046 17.9559)" stroke="black" stroke-width="21"/>
    <line y1="-10.5" x2="62.0318" y2="-10.5" transform="matrix(0.00874446 0.999962 -0.999961 0.00879881 134.519 17.9559)" stroke="black" stroke-width="21"/>
    <ellipse cx="105.771" cy="79.9853" rx="16.2725" ry="7.61765" fill="#FEE100"/>
</svg>
