<svg width="309" height="81" viewBox="0 0 309 81" fill="none" xmlns="http://www.w3.org/2000/svg">
    <path d="M17.7812 40.3125C17.5521 38.9375 17.125 37.8542 16.5 37.0625C15.875 36.25 15.2396 35.6667 14.5938 35.3125C14.0729 35.0208 13.5521 34.8021 13.0312 34.6562C12.5312 34.5104 12.0938 34.375 11.7188 34.25C11.3229 34.1042 11.0312 33.9479 10.8438 33.7812C10.6562 33.6146 10.5625 33.3854 10.5625 33.0938C10.5625 32.4896 10.9688 32.1875 11.7812 32.1875C12.1562 32.1875 12.5208 32.2292 12.875 32.3125C13.2292 32.3958 13.6562 32.4896 14.1562 32.5938C14.6562 32.6979 15.25 32.8229 15.9375 32.9688C16.625 33.0938 17.4792 33.1979 18.5 33.2812C19.4375 33.3646 20.2292 33.4167 20.875 33.4375C21.5208 33.4375 22.0625 33.4479 22.5 33.4688C22.9583 33.4688 23.3438 33.4896 23.6562 33.5312C23.9688 33.5521 24.25 33.6146 24.5 33.7188C24.875 33.8854 25.3646 34.2917 25.9688 34.9375C26.5938 35.5833 27.2812 36.375 28.0312 37.3125C28.8021 38.25 29.6146 39.2917 30.4688 40.4375C31.3229 41.5833 32.1667 42.75 33 43.9375C33.8542 45.1042 34.6771 46.2396 35.4688 47.3438C36.2812 48.4479 37.0104 49.4271 37.6562 50.2812C38.3229 51.1354 38.8854 51.8229 39.3438 52.3438C39.8229 52.8646 40.1458 53.125 40.3125 53.125C40.6667 53.125 41.3542 52.1667 42.375 50.25C43.4167 48.3125 44.8854 45.4271 46.7812 41.5938C47.3021 40.5312 47.8333 39.4062 48.375 38.2188C48.9375 37.0104 49.4792 35.8229 50 34.6562C50.5417 33.4688 51.0521 32.3333 51.5312 31.25C52.0104 30.1667 52.4479 29.2083 52.8438 28.375C53.2604 27.5417 53.625 26.875 53.9375 26.375C54.25 25.8542 54.4896 25.5729 54.6562 25.5312C54.7604 25.4896 54.8646 25.4688 54.9688 25.4688C55.0938 25.4688 55.2292 25.4688 55.375 25.4688C55.75 25.4688 56.2708 25.4792 56.9375 25.5C57.6042 25.5208 58.4688 25.5312 59.5312 25.5312C60.1771 25.5312 60.7604 25.5104 61.2812 25.4688C61.8021 25.4062 62.2604 25.3438 62.6562 25.2812C63.0729 25.2188 63.4479 25.1667 63.7812 25.125C64.1146 25.0625 64.4271 25.0312 64.7188 25.0312C65.1562 25.0312 65.4375 25.0938 65.5625 25.2188C65.7083 25.3438 65.7812 25.4896 65.7812 25.6562C65.7812 26.0312 65.4688 26.3125 64.8438 26.5C64.2396 26.6875 63.3854 26.8854 62.2812 27.0938C61.1979 27.2812 59.9792 27.6146 58.625 28.0938C57.7917 28.3854 57.2083 28.9167 56.875 29.6875C56.5417 30.4375 56.375 31.375 56.375 32.5C56.375 33.3125 56.4375 34.3542 56.5625 35.625C56.7083 36.875 56.8958 38.2708 57.125 39.8125C57.375 41.3333 57.6667 42.9583 58 44.6875C58.3333 46.3958 58.6875 48.125 59.0625 49.875C59.4583 51.6042 59.8646 53.2917 60.2812 54.9375C60.7188 56.5833 61.1562 58.1042 61.5938 59.5C62.0312 60.8958 62.4583 62.125 62.875 63.1875C63.3125 64.2292 63.7292 65.0104 64.125 65.5312C64.5 66.0312 64.875 66.4583 65.25 66.8125C65.6458 67.1667 66.0729 67.4688 66.5312 67.7188C67.0104 67.9688 67.5208 68.1875 68.0625 68.375C68.625 68.5625 69.25 68.75 69.9375 68.9375C70.6042 69.1042 71.0625 69.2812 71.3125 69.4688C71.5625 69.6562 71.6875 69.8854 71.6875 70.1562C71.6875 70.4479 71.5104 70.6875 71.1562 70.875C70.8229 71.0625 70.2917 71.1562 69.5625 71.1562C68.6875 71.1562 67.7708 71.125 66.8125 71.0625C65.875 71 64.8333 70.9688 63.6875 70.9688C61.8333 70.9688 60.1354 71.1042 58.5938 71.375C57.0729 71.6458 55.6771 71.9479 54.4062 72.2812C53.1562 72.6146 52.0208 72.9167 51 73.1875C49.9792 73.4583 49.0417 73.5938 48.1875 73.5938C47.9583 73.5938 47.7292 73.5521 47.5 73.4688C47.2708 73.3854 47.1562 73.1979 47.1562 72.9062C47.1562 72.5938 47.3438 72.3333 47.7188 72.125C48.0938 71.9375 48.5729 71.7604 49.1562 71.5938C49.7604 71.4062 50.4271 71.2188 51.1562 71.0312C51.8854 70.8438 52.6042 70.5938 53.3125 70.2812C54.0417 69.9479 54.5625 69.5208 54.875 69C55.2083 68.4583 55.375 67.7708 55.375 66.9375C55.375 66.4583 55.2917 65.7083 55.125 64.6875C54.9792 63.6667 54.7812 62.4792 54.5312 61.125C54.2812 59.7708 53.9896 58.3125 53.6562 56.75C53.3438 55.1875 53.0104 53.625 52.6562 52.0625C52.3229 50.5 51.9792 49 51.625 47.5625C51.2917 46.1042 50.9896 44.8229 50.7188 43.7188C50.4479 42.6146 50.2083 41.7292 50 41.0625C49.8125 40.3958 49.6979 40.0625 49.6562 40.0625C49.5938 40.0625 49.3958 40.3438 49.0625 40.9062C48.75 41.4688 48.3542 42.2188 47.875 43.1562C47.3958 44.0938 46.8542 45.1667 46.25 46.375C45.6458 47.5833 45.0312 48.8229 44.4062 50.0938C43.8021 51.3646 43.1979 52.625 42.5938 53.875C41.9896 55.125 41.4375 56.2708 40.9375 57.3125C40.4375 58.3333 40.0208 59.1979 39.6875 59.9062C39.3542 60.5938 39.1354 61.0208 39.0312 61.1875C38.8229 61.5833 38.6042 62 38.375 62.4375C38.1458 62.875 37.9062 63.2812 37.6562 63.6562C37.4271 64.0104 37.2083 64.3125 37 64.5625C36.7917 64.7917 36.6146 64.9062 36.4688 64.9062C36.3438 64.9062 36.1771 64.8125 35.9688 64.625C35.7812 64.4167 35.5833 64.1667 35.375 63.875C35.1667 63.5833 34.9479 63.2708 34.7188 62.9375C34.5104 62.6042 34.3333 62.3021 34.1875 62.0312C33.6458 61.0938 33.0104 59.9896 32.2812 58.7188C31.5521 57.4271 30.7812 56.0833 29.9688 54.6875C29.1771 53.2708 28.3854 51.8542 27.5938 50.4375C26.8229 49.0208 26.0938 47.7188 25.4062 46.5312C24.7396 45.3229 24.1667 44.2917 23.6875 43.4375C23.2083 42.5625 22.8854 41.9688 22.7188 41.6562C22.3646 41.0312 22.0625 40.5104 21.8125 40.0938C21.5625 39.6562 21.3438 39.3125 21.1562 39.0625C20.9896 38.8125 20.8438 38.6354 20.7188 38.5312C20.5938 38.4062 20.4688 38.3438 20.3438 38.3438C20.1771 38.3438 20.0938 38.5104 20.0938 38.8438C20.0938 39.1771 20.125 39.6354 20.1875 40.2188C20.25 40.7812 20.3021 41.2812 20.3438 41.7188C20.5521 43.7396 20.6875 45.6354 20.75 47.4062C20.8333 49.1562 20.875 50.8438 20.875 52.4688C20.875 53.9271 20.7917 55.5104 20.625 57.2188C20.4583 58.9062 20.1771 60.6042 19.7812 62.3125C19.3854 64 18.8438 65.625 18.1562 67.1875C17.4896 68.75 16.6354 70.1354 15.5938 71.3438C14.5521 72.5521 13.3125 73.5104 11.875 74.2188C10.4583 74.9479 8.80208 75.3125 6.90625 75.3125C5.80208 75.3125 4.82292 75.1354 3.96875 74.7812C3.11458 74.4271 2.38542 73.9479 1.78125 73.3438C1.19792 72.7604 0.75 72.0938 0.4375 71.3438C0.145833 70.5729 0 69.7708 0 68.9375C0 68.3542 0.0729167 67.7708 0.21875 67.1875C0.385417 66.6042 0.645833 66.0938 1 65.6562C1.35417 65.1979 1.80208 64.8333 2.34375 64.5625C2.88542 64.2708 3.55208 64.125 4.34375 64.125C4.96875 64.125 5.52083 64.2396 6 64.4688C6.5 64.6771 6.9375 64.9479 7.3125 65.2812C7.70833 65.5938 8.0625 65.9479 8.375 66.3438C8.6875 66.7396 8.96875 67.1146 9.21875 67.4688C10.0938 68.6562 11.0521 69.25 12.0938 69.25C13.0104 69.25 13.8021 68.9688 14.4688 68.4062C15.1354 67.8438 15.7083 67.0938 16.1875 66.1562C16.6875 65.1979 17.0938 64.1042 17.4062 62.875C17.7188 61.6458 17.9583 60.3646 18.125 59.0312C18.3125 57.6979 18.4375 56.3646 18.5 55.0312C18.5833 53.6771 18.625 52.4167 18.625 51.25C18.625 49.1875 18.5417 47.2188 18.375 45.3438C18.2083 43.4688 18.0104 41.7917 17.7812 40.3125ZM95.3438 55.4375C95.6354 55.9167 95.8958 56.5625 96.125 57.375C96.375 58.1875 96.5 59.0104 96.5 59.8438C96.5 61.3646 96.25 62.7292 95.75 63.9375C95.25 65.125 94.5312 66.1354 93.5938 66.9688C92.6562 67.7812 91.5208 68.4062 90.1875 68.8438C88.875 69.2812 87.3958 69.5 85.75 69.5C83.375 69.5 81.25 69.1042 79.375 68.3125C77.5208 67.5 75.9583 66.375 74.6875 64.9375C73.4167 63.5 72.4479 61.7917 71.7812 59.8125C71.1146 57.8125 70.7812 55.625 70.7812 53.25C70.7812 51.1042 71.0104 49.1562 71.4688 47.4062C71.9271 45.6562 72.5521 44.0938 73.3438 42.7188C74.1354 41.3438 75.0521 40.1458 76.0938 39.125C77.1354 38.1042 78.2396 37.2604 79.4062 36.5938C80.5729 35.9271 81.7604 35.4375 82.9688 35.125C84.1771 34.7917 85.3438 34.625 86.4688 34.625C87.5729 34.625 88.7188 34.7708 89.9062 35.0625C91.0938 35.3542 92.1771 35.8542 93.1562 36.5625C94.1562 37.2708 94.9688 38.2083 95.5938 39.375C96.2396 40.5208 96.5625 41.9688 96.5625 43.7188C96.5625 45.2396 96.3333 46.5729 95.875 47.7188C95.4375 48.8646 94.8542 49.8542 94.125 50.6875C93.3958 51.5208 92.5625 52.2083 91.625 52.75C90.7083 53.2917 89.7604 53.7292 88.7812 54.0625C87.8229 54.375 86.875 54.5938 85.9375 54.7188C85.0208 54.8438 84.2083 54.9062 83.5 54.9062C82.4792 54.9062 81.4792 54.8333 80.5 54.6875C79.5417 54.5417 78.7917 54.3854 78.25 54.2188C78.3333 55.8438 78.5833 57.4167 79 58.9375C79.4375 60.4375 80.0521 61.7604 80.8438 62.9062C81.6354 64.0521 82.6146 64.9688 83.7812 65.6562C84.9688 66.3438 86.3542 66.6875 87.9375 66.6875C89.0417 66.6875 89.9896 66.5 90.7812 66.125C91.5938 65.75 92.2604 65.25 92.7812 64.625C93.3021 63.9792 93.6875 63.2396 93.9375 62.4062C94.1875 61.5729 94.3125 60.6979 94.3125 59.7812C94.3125 59.2396 94.2708 58.6771 94.1875 58.0938C94.125 57.5104 94 56.9583 93.8125 56.4375C93.6875 56.125 93.5833 55.8333 93.5 55.5625C93.4167 55.2917 93.375 55.0729 93.375 54.9062C93.375 54.4896 93.5625 54.2812 93.9375 54.2812C94.125 54.2812 94.3438 54.375 94.5938 54.5625C94.8646 54.75 95.1146 55.0417 95.3438 55.4375ZM78.125 52.1562C78.6667 52.3229 79.2812 52.4688 79.9688 52.5938C80.6562 52.6979 81.5208 52.75 82.5625 52.75C83.7708 52.75 84.8854 52.5208 85.9062 52.0625C86.9271 51.6042 87.8021 50.9688 88.5312 50.1562C89.2604 49.3229 89.8333 48.3229 90.25 47.1562C90.6667 45.9896 90.875 44.6875 90.875 43.25C90.875 41.9792 90.7292 40.9167 90.4375 40.0625C90.1667 39.1875 89.8021 38.4896 89.3438 37.9688C88.8854 37.4479 88.3542 37.0833 87.75 36.875C87.1667 36.6458 86.5625 36.5312 85.9375 36.5312C85.1458 36.5312 84.2917 36.7708 83.375 37.25C82.4583 37.7292 81.6042 38.5625 80.8125 39.75C80.0417 40.9375 79.3958 42.5417 78.875 44.5625C78.375 46.5625 78.125 49.0938 78.125 52.1562ZM98.9062 52.8125C98.9062 50.4792 99.2708 48.375 100 46.5C100.729 44.6042 101.76 42.9896 103.094 41.6562C104.427 40.3229 106.031 39.3021 107.906 38.5938C109.802 37.8646 111.896 37.5 114.188 37.5C116.25 37.5 118.146 37.8438 119.875 38.5312C121.625 39.2188 123.135 40.2083 124.406 41.5C125.677 42.7708 126.667 44.3229 127.375 46.1562C128.104 47.9688 128.469 50.0104 128.469 52.2812C128.469 54.9688 128.021 57.2708 127.125 59.1875C126.25 61.1042 125.115 62.6771 123.719 63.9062C122.344 65.1354 120.802 66.0417 119.094 66.625C117.385 67.1875 115.708 67.4688 114.062 67.4688C112.083 67.4688 110.177 67.1458 108.344 66.5C106.531 65.8333 104.927 64.875 103.531 63.625C102.135 62.375 101.01 60.8438 100.156 59.0312C99.3229 57.1979 98.9062 55.125 98.9062 52.8125ZM113.75 38.7188C112.562 38.7188 111.531 39.0208 110.656 39.625C109.802 40.2083 109.094 41.0104 108.531 42.0312C107.969 43.0312 107.552 44.2083 107.281 45.5625C107.031 46.8958 106.906 48.3021 106.906 49.7812C106.906 51.0104 106.979 52.25 107.125 53.5C107.271 54.75 107.49 55.9583 107.781 57.125C108.094 58.2708 108.469 59.3542 108.906 60.375C109.365 61.375 109.906 62.25 110.531 63C111.156 63.75 111.865 64.3438 112.656 64.7812C113.469 65.1979 114.365 65.4062 115.344 65.4062C116.615 65.4062 117.677 65.125 118.531 64.5625C119.406 63.9792 120.104 63.2292 120.625 62.3125C121.146 61.375 121.51 60.3333 121.719 59.1875C121.948 58.0208 122.062 56.8542 122.062 55.6875C122.062 52.8125 121.854 50.3125 121.438 48.1875C121.021 46.0625 120.438 44.3021 119.688 42.9062C118.938 41.4896 118.052 40.4375 117.031 39.75C116.031 39.0625 114.938 38.7188 113.75 38.7188ZM147.094 41.0312C147.094 41.1979 147 41.3646 146.812 41.5312C146.646 41.6771 146.438 41.8229 146.188 41.9688C145.958 42.1146 145.708 42.2708 145.438 42.4375C145.188 42.5833 144.969 42.7292 144.781 42.875C144.427 43.2083 144.188 43.5729 144.062 43.9688C143.958 44.3646 143.906 44.7708 143.906 45.1875C143.906 45.6667 144.01 46.4167 144.219 47.4375C144.427 48.4583 144.698 49.5938 145.031 50.8438C145.365 52.0729 145.719 53.3438 146.094 54.6562C146.49 55.9688 146.865 57.1667 147.219 58.25C147.573 59.3333 147.885 60.2188 148.156 60.9062C148.427 61.5938 148.604 61.9375 148.688 61.9375C148.792 61.9375 148.99 61.6146 149.281 60.9688C149.573 60.3229 149.927 59.4896 150.344 58.4688C150.76 57.4479 151.208 56.3021 151.688 55.0312C152.188 53.7396 152.677 52.4583 153.156 51.1875C153.656 49.9167 154.135 48.7188 154.594 47.5938C155.052 46.4688 155.448 45.5417 155.781 44.8125C155.927 44.5208 156.073 44.2917 156.219 44.125C156.365 43.9375 156.521 43.8438 156.688 43.8438C156.875 43.8438 157.042 43.9375 157.188 44.125C157.333 44.2917 157.49 44.5208 157.656 44.8125C158.01 45.4792 158.427 46.2917 158.906 47.25C159.406 48.1875 159.927 49.1771 160.469 50.2188C161.01 51.2604 161.552 52.3021 162.094 53.3438C162.635 54.3646 163.135 55.2917 163.594 56.125C164.052 56.9375 164.438 57.6042 164.75 58.125C165.083 58.625 165.302 58.875 165.406 58.875C165.49 58.875 165.635 58.5625 165.844 57.9375C166.073 57.2917 166.312 56.4792 166.562 55.5C166.812 54.5208 167.073 53.4375 167.344 52.25C167.635 51.0625 167.896 49.9271 168.125 48.8438C168.354 47.7604 168.542 46.8021 168.688 45.9688C168.833 45.1146 168.906 44.5312 168.906 44.2188C168.906 43.8438 168.833 43.5729 168.688 43.4062C168.562 43.2188 168.323 43.125 167.969 43.125C167.677 43.125 167.333 43.1562 166.938 43.2188C166.542 43.2812 166.135 43.3125 165.719 43.3125C165.469 43.3125 165.281 43.2604 165.156 43.1562C165.052 43.0521 165 42.9375 165 42.8125C165 42.6458 165.042 42.5208 165.125 42.4375C165.229 42.3542 165.344 42.2917 165.469 42.25C165.823 42.1458 166.448 42.0833 167.344 42.0625C168.26 42.0208 169.427 41.8646 170.844 41.5938C172.323 41.3438 173.531 41.0625 174.469 40.75C175.406 40.4167 176.135 40.25 176.656 40.25C177.135 40.25 177.375 40.4271 177.375 40.7812C177.375 41.0729 177.198 41.2812 176.844 41.4062C176.531 41.5312 176.125 41.6667 175.625 41.8125C175.146 41.9375 174.615 42.1042 174.031 42.3125C173.594 42.4583 173.219 42.625 172.906 42.8125C172.615 43 172.354 43.2292 172.125 43.5C171.917 43.75 171.729 44.0625 171.562 44.4375C171.396 44.8125 171.24 45.25 171.094 45.75C170.948 46.2083 170.76 46.875 170.531 47.75C170.302 48.625 170.042 49.625 169.75 50.75C169.458 51.875 169.135 53.0833 168.781 54.375C168.427 55.6458 168.062 56.9271 167.688 58.2188C167.333 59.4896 166.969 60.7188 166.594 61.9062C166.219 63.0729 165.844 64.1042 165.469 65C165.115 65.8958 164.771 66.6146 164.438 67.1562C164.125 67.6979 163.844 67.9688 163.594 67.9688C163.323 67.9688 162.979 67.7604 162.562 67.3438C162.146 66.9062 161.688 66.3438 161.188 65.6562C160.708 64.9688 160.188 64.1875 159.625 63.3125C159.083 62.4167 158.552 61.5104 158.031 60.5938C156.781 58.4271 155.458 55.9583 154.062 53.1875C154.021 53.3333 153.885 53.7083 153.656 54.3125C153.448 54.8958 153.188 55.6042 152.875 56.4375C152.583 57.25 152.26 58.1354 151.906 59.0938C151.552 60.0312 151.208 60.9271 150.875 61.7812C150.562 62.6354 150.271 63.3958 150 64.0625C149.75 64.7292 149.573 65.1979 149.469 65.4688C149.135 66.3438 148.771 67.25 148.375 68.1875C148 69.1042 147.625 69.9583 147.25 70.75C146.875 71.5208 146.531 72.1562 146.219 72.6562C145.906 73.1562 145.646 73.4062 145.438 73.4062C145.229 73.4062 144.948 73.1042 144.594 72.5C144.24 71.8958 143.844 71.0938 143.406 70.0938C142.969 69.0938 142.5 67.9479 142 66.6562C141.521 65.3438 141.031 63.9896 140.531 62.5938C140.031 61.1771 139.542 59.7812 139.062 58.4062C138.583 57.0104 138.146 55.7188 137.75 54.5312C137.354 53.3438 137 52.3125 136.688 51.4375C136.396 50.5625 136.177 49.9479 136.031 49.5938C135.76 48.9479 135.427 48.5104 135.031 48.2812C134.635 48.0521 134.198 47.9375 133.719 47.9375C133.198 47.9375 132.698 48 132.219 48.125C131.76 48.25 131.344 48.3125 130.969 48.3125C130.781 48.3125 130.594 48.2604 130.406 48.1562C130.219 48.0521 130.125 47.875 130.125 47.625C130.125 47.2708 130.26 47.0208 130.531 46.875C130.802 46.7292 131.156 46.5938 131.594 46.4688C131.969 46.3854 132.448 46.2708 133.031 46.125C133.635 45.9792 134.292 45.8125 135 45.625C135.708 45.4167 136.438 45.1875 137.188 44.9375C137.958 44.6875 138.677 44.4062 139.344 44.0938C140.406 43.6146 141.333 43.1562 142.125 42.7188C142.917 42.2812 143.594 41.8958 144.156 41.5625C144.719 41.2083 145.188 40.9375 145.562 40.75C145.958 40.5417 146.281 40.4375 146.531 40.4375C146.698 40.4375 146.833 40.4896 146.938 40.5938C147.042 40.6771 147.094 40.8229 147.094 41.0312ZM194.781 41.0312C194.781 41.1979 194.688 41.3646 194.5 41.5312C194.333 41.6771 194.125 41.8229 193.875 41.9688C193.646 42.1146 193.396 42.2708 193.125 42.4375C192.875 42.5833 192.656 42.7292 192.469 42.875C192.115 43.2083 191.875 43.5729 191.75 43.9688C191.646 44.3646 191.594 44.7708 191.594 45.1875C191.594 45.6667 191.698 46.4167 191.906 47.4375C192.115 48.4583 192.385 49.5938 192.719 50.8438C193.052 52.0729 193.406 53.3438 193.781 54.6562C194.177 55.9688 194.552 57.1667 194.906 58.25C195.26 59.3333 195.573 60.2188 195.844 60.9062C196.115 61.5938 196.292 61.9375 196.375 61.9375C196.479 61.9375 196.677 61.6146 196.969 60.9688C197.26 60.3229 197.615 59.4896 198.031 58.4688C198.448 57.4479 198.896 56.3021 199.375 55.0312C199.875 53.7396 200.365 52.4583 200.844 51.1875C201.344 49.9167 201.823 48.7188 202.281 47.5938C202.74 46.4688 203.135 45.5417 203.469 44.8125C203.615 44.5208 203.76 44.2917 203.906 44.125C204.052 43.9375 204.208 43.8438 204.375 43.8438C204.562 43.8438 204.729 43.9375 204.875 44.125C205.021 44.2917 205.177 44.5208 205.344 44.8125C205.698 45.4792 206.115 46.2917 206.594 47.25C207.094 48.1875 207.615 49.1771 208.156 50.2188C208.698 51.2604 209.24 52.3021 209.781 53.3438C210.323 54.3646 210.823 55.2917 211.281 56.125C211.74 56.9375 212.125 57.6042 212.438 58.125C212.771 58.625 212.99 58.875 213.094 58.875C213.177 58.875 213.323 58.5625 213.531 57.9375C213.76 57.2917 214 56.4792 214.25 55.5C214.5 54.5208 214.76 53.4375 215.031 52.25C215.323 51.0625 215.583 49.9271 215.812 48.8438C216.042 47.7604 216.229 46.8021 216.375 45.9688C216.521 45.1146 216.594 44.5312 216.594 44.2188C216.594 43.8438 216.521 43.5729 216.375 43.4062C216.25 43.2188 216.01 43.125 215.656 43.125C215.365 43.125 215.021 43.1562 214.625 43.2188C214.229 43.2812 213.823 43.3125 213.406 43.3125C213.156 43.3125 212.969 43.2604 212.844 43.1562C212.74 43.0521 212.688 42.9375 212.688 42.8125C212.688 42.6458 212.729 42.5208 212.812 42.4375C212.917 42.3542 213.031 42.2917 213.156 42.25C213.51 42.1458 214.135 42.0833 215.031 42.0625C215.948 42.0208 217.115 41.8646 218.531 41.5938C220.01 41.3438 221.219 41.0625 222.156 40.75C223.094 40.4167 223.823 40.25 224.344 40.25C224.823 40.25 225.062 40.4271 225.062 40.7812C225.062 41.0729 224.885 41.2812 224.531 41.4062C224.219 41.5312 223.812 41.6667 223.312 41.8125C222.833 41.9375 222.302 42.1042 221.719 42.3125C221.281 42.4583 220.906 42.625 220.594 42.8125C220.302 43 220.042 43.2292 219.812 43.5C219.604 43.75 219.417 44.0625 219.25 44.4375C219.083 44.8125 218.927 45.25 218.781 45.75C218.635 46.2083 218.448 46.875 218.219 47.75C217.99 48.625 217.729 49.625 217.438 50.75C217.146 51.875 216.823 53.0833 216.469 54.375C216.115 55.6458 215.75 56.9271 215.375 58.2188C215.021 59.4896 214.656 60.7188 214.281 61.9062C213.906 63.0729 213.531 64.1042 213.156 65C212.802 65.8958 212.458 66.6146 212.125 67.1562C211.812 67.6979 211.531 67.9688 211.281 67.9688C211.01 67.9688 210.667 67.7604 210.25 67.3438C209.833 66.9062 209.375 66.3438 208.875 65.6562C208.396 64.9688 207.875 64.1875 207.312 63.3125C206.771 62.4167 206.24 61.5104 205.719 60.5938C204.469 58.4271 203.146 55.9583 201.75 53.1875C201.708 53.3333 201.573 53.7083 201.344 54.3125C201.135 54.8958 200.875 55.6042 200.562 56.4375C200.271 57.25 199.948 58.1354 199.594 59.0938C199.24 60.0312 198.896 60.9271 198.562 61.7812C198.25 62.6354 197.958 63.3958 197.688 64.0625C197.438 64.7292 197.26 65.1979 197.156 65.4688C196.823 66.3438 196.458 67.25 196.062 68.1875C195.688 69.1042 195.312 69.9583 194.938 70.75C194.562 71.5208 194.219 72.1562 193.906 72.6562C193.594 73.1562 193.333 73.4062 193.125 73.4062C192.917 73.4062 192.635 73.1042 192.281 72.5C191.927 71.8958 191.531 71.0938 191.094 70.0938C190.656 69.0938 190.188 67.9479 189.688 66.6562C189.208 65.3438 188.719 63.9896 188.219 62.5938C187.719 61.1771 187.229 59.7812 186.75 58.4062C186.271 57.0104 185.833 55.7188 185.438 54.5312C185.042 53.3438 184.688 52.3125 184.375 51.4375C184.083 50.5625 183.865 49.9479 183.719 49.5938C183.448 48.9479 183.115 48.5104 182.719 48.2812C182.323 48.0521 181.885 47.9375 181.406 47.9375C180.885 47.9375 180.385 48 179.906 48.125C179.448 48.25 179.031 48.3125 178.656 48.3125C178.469 48.3125 178.281 48.2604 178.094 48.1562C177.906 48.0521 177.812 47.875 177.812 47.625C177.812 47.2708 177.948 47.0208 178.219 46.875C178.49 46.7292 178.844 46.5938 179.281 46.4688C179.656 46.3854 180.135 46.2708 180.719 46.125C181.323 45.9792 181.979 45.8125 182.688 45.625C183.396 45.4167 184.125 45.1875 184.875 44.9375C185.646 44.6875 186.365 44.4062 187.031 44.0938C188.094 43.6146 189.021 43.1562 189.812 42.7188C190.604 42.2812 191.281 41.8958 191.844 41.5625C192.406 41.2083 192.875 40.9375 193.25 40.75C193.646 40.5417 193.969 40.4375 194.219 40.4375C194.385 40.4375 194.521 40.4896 194.625 40.5938C194.729 40.6771 194.781 40.8229 194.781 41.0312ZM242.469 41.0312C242.469 41.1979 242.375 41.3646 242.188 41.5312C242.021 41.6771 241.812 41.8229 241.562 41.9688C241.333 42.1146 241.083 42.2708 240.812 42.4375C240.562 42.5833 240.344 42.7292 240.156 42.875C239.802 43.2083 239.562 43.5729 239.438 43.9688C239.333 44.3646 239.281 44.7708 239.281 45.1875C239.281 45.6667 239.385 46.4167 239.594 47.4375C239.802 48.4583 240.073 49.5938 240.406 50.8438C240.74 52.0729 241.094 53.3438 241.469 54.6562C241.865 55.9688 242.24 57.1667 242.594 58.25C242.948 59.3333 243.26 60.2188 243.531 60.9062C243.802 61.5938 243.979 61.9375 244.062 61.9375C244.167 61.9375 244.365 61.6146 244.656 60.9688C244.948 60.3229 245.302 59.4896 245.719 58.4688C246.135 57.4479 246.583 56.3021 247.062 55.0312C247.562 53.7396 248.052 52.4583 248.531 51.1875C249.031 49.9167 249.51 48.7188 249.969 47.5938C250.427 46.4688 250.823 45.5417 251.156 44.8125C251.302 44.5208 251.448 44.2917 251.594 44.125C251.74 43.9375 251.896 43.8438 252.062 43.8438C252.25 43.8438 252.417 43.9375 252.562 44.125C252.708 44.2917 252.865 44.5208 253.031 44.8125C253.385 45.4792 253.802 46.2917 254.281 47.25C254.781 48.1875 255.302 49.1771 255.844 50.2188C256.385 51.2604 256.927 52.3021 257.469 53.3438C258.01 54.3646 258.51 55.2917 258.969 56.125C259.427 56.9375 259.812 57.6042 260.125 58.125C260.458 58.625 260.677 58.875 260.781 58.875C260.865 58.875 261.01 58.5625 261.219 57.9375C261.448 57.2917 261.688 56.4792 261.938 55.5C262.188 54.5208 262.448 53.4375 262.719 52.25C263.01 51.0625 263.271 49.9271 263.5 48.8438C263.729 47.7604 263.917 46.8021 264.062 45.9688C264.208 45.1146 264.281 44.5312 264.281 44.2188C264.281 43.8438 264.208 43.5729 264.062 43.4062C263.938 43.2188 263.698 43.125 263.344 43.125C263.052 43.125 262.708 43.1562 262.312 43.2188C261.917 43.2812 261.51 43.3125 261.094 43.3125C260.844 43.3125 260.656 43.2604 260.531 43.1562C260.427 43.0521 260.375 42.9375 260.375 42.8125C260.375 42.6458 260.417 42.5208 260.5 42.4375C260.604 42.3542 260.719 42.2917 260.844 42.25C261.198 42.1458 261.823 42.0833 262.719 42.0625C263.635 42.0208 264.802 41.8646 266.219 41.5938C267.698 41.3438 268.906 41.0625 269.844 40.75C270.781 40.4167 271.51 40.25 272.031 40.25C272.51 40.25 272.75 40.4271 272.75 40.7812C272.75 41.0729 272.573 41.2812 272.219 41.4062C271.906 41.5312 271.5 41.6667 271 41.8125C270.521 41.9375 269.99 42.1042 269.406 42.3125C268.969 42.4583 268.594 42.625 268.281 42.8125C267.99 43 267.729 43.2292 267.5 43.5C267.292 43.75 267.104 44.0625 266.938 44.4375C266.771 44.8125 266.615 45.25 266.469 45.75C266.323 46.2083 266.135 46.875 265.906 47.75C265.677 48.625 265.417 49.625 265.125 50.75C264.833 51.875 264.51 53.0833 264.156 54.375C263.802 55.6458 263.438 56.9271 263.062 58.2188C262.708 59.4896 262.344 60.7188 261.969 61.9062C261.594 63.0729 261.219 64.1042 260.844 65C260.49 65.8958 260.146 66.6146 259.812 67.1562C259.5 67.6979 259.219 67.9688 258.969 67.9688C258.698 67.9688 258.354 67.7604 257.938 67.3438C257.521 66.9062 257.062 66.3438 256.562 65.6562C256.083 64.9688 255.562 64.1875 255 63.3125C254.458 62.4167 253.927 61.5104 253.406 60.5938C252.156 58.4271 250.833 55.9583 249.438 53.1875C249.396 53.3333 249.26 53.7083 249.031 54.3125C248.823 54.8958 248.562 55.6042 248.25 56.4375C247.958 57.25 247.635 58.1354 247.281 59.0938C246.927 60.0312 246.583 60.9271 246.25 61.7812C245.938 62.6354 245.646 63.3958 245.375 64.0625C245.125 64.7292 244.948 65.1979 244.844 65.4688C244.51 66.3438 244.146 67.25 243.75 68.1875C243.375 69.1042 243 69.9583 242.625 70.75C242.25 71.5208 241.906 72.1562 241.594 72.6562C241.281 73.1562 241.021 73.4062 240.812 73.4062C240.604 73.4062 240.323 73.1042 239.969 72.5C239.615 71.8958 239.219 71.0938 238.781 70.0938C238.344 69.0938 237.875 67.9479 237.375 66.6562C236.896 65.3438 236.406 63.9896 235.906 62.5938C235.406 61.1771 234.917 59.7812 234.438 58.4062C233.958 57.0104 233.521 55.7188 233.125 54.5312C232.729 53.3438 232.375 52.3125 232.062 51.4375C231.771 50.5625 231.552 49.9479 231.406 49.5938C231.135 48.9479 230.802 48.5104 230.406 48.2812C230.01 48.0521 229.573 47.9375 229.094 47.9375C228.573 47.9375 228.073 48 227.594 48.125C227.135 48.25 226.719 48.3125 226.344 48.3125C226.156 48.3125 225.969 48.2604 225.781 48.1562C225.594 48.0521 225.5 47.875 225.5 47.625C225.5 47.2708 225.635 47.0208 225.906 46.875C226.177 46.7292 226.531 46.5938 226.969 46.4688C227.344 46.3854 227.823 46.2708 228.406 46.125C229.01 45.9792 229.667 45.8125 230.375 45.625C231.083 45.4167 231.812 45.1875 232.562 44.9375C233.333 44.6875 234.052 44.4062 234.719 44.0938C235.781 43.6146 236.708 43.1562 237.5 42.7188C238.292 42.2812 238.969 41.8958 239.531 41.5625C240.094 41.2083 240.562 40.9375 240.938 40.75C241.333 40.5417 241.656 40.4375 241.906 40.4375C242.073 40.4375 242.208 40.4896 242.312 40.5938C242.417 40.6771 242.469 40.8229 242.469 41.0312ZM274.875 63.875C275.667 63.875 276.333 64.0208 276.875 64.3125C277.438 64.5833 277.885 64.9479 278.219 65.4062C278.573 65.8438 278.823 66.3438 278.969 66.9062C279.135 67.4479 279.219 67.9896 279.219 68.5312C279.219 69.4896 279.104 70.3229 278.875 71.0312C278.646 71.7396 278.333 72.3229 277.938 72.7812C277.542 73.2396 277.073 73.5729 276.531 73.7812C275.99 74.0104 275.417 74.125 274.812 74.125C274.167 74.125 273.573 74.0104 273.031 73.7812C272.49 73.5521 272.01 73.2188 271.594 72.7812C271.198 72.3438 270.885 71.8229 270.656 71.2188C270.427 70.5938 270.312 69.8958 270.312 69.125C270.312 68.3125 270.427 67.5833 270.656 66.9375C270.885 66.2917 271.198 65.75 271.594 65.3125C272.01 64.8542 272.49 64.5 273.031 64.25C273.594 64 274.208 63.875 274.875 63.875ZM290.188 63.875C290.979 63.875 291.646 64.0208 292.188 64.3125C292.75 64.5833 293.198 64.9479 293.531 65.4062C293.885 65.8438 294.135 66.3438 294.281 66.9062C294.448 67.4479 294.531 67.9896 294.531 68.5312C294.531 69.4896 294.417 70.3229 294.188 71.0312C293.958 71.7396 293.646 72.3229 293.25 72.7812C292.854 73.2396 292.385 73.5729 291.844 73.7812C291.302 74.0104 290.729 74.125 290.125 74.125C289.479 74.125 288.885 74.0104 288.344 73.7812C287.802 73.5521 287.323 73.2188 286.906 72.7812C286.51 72.3438 286.198 71.8229 285.969 71.2188C285.74 70.5938 285.625 69.8958 285.625 69.125C285.625 68.3125 285.74 67.5833 285.969 66.9375C286.198 66.2917 286.51 65.75 286.906 65.3125C287.323 64.8542 287.802 64.5 288.344 64.25C288.906 64 289.521 63.875 290.188 63.875Z" fill="black"/>
</svg>
