<svg width="343" height="350" viewBox="0 0 343 350" fill="none" xmlns="http://www.w3.org/2000/svg">
    <path d="M297.268 5.83311C297.268 2.61338 294.707 0 291.552 0C272.127 0 260.064 13.2125 254.988 20.3C239.828 14.5018 220.088 11.6669 194.369 11.6669C168.65 11.6669 148.91 14.5018 133.75 20.3C128.673 13.2187 116.611 0 97.1856 0C94.0302 0 91.4691 2.61338 91.4691 5.83311C91.4691 26.5412 95.7566 51.1991 96.9799 57.8143C93.2243 68.25 91.4691 79.5901 91.4691 93.3331C91.4691 136.249 128.113 198.333 194.369 198.333C260.625 198.333 297.269 136.249 297.269 93.3331C297.269 79.5313 295.514 68.1857 291.758 57.8081C292.981 51.1814 297.268 26.5357 297.268 5.83311ZM194.368 186.667C135.476 186.667 102.902 131.484 102.902 93.3338C102.902 80.3899 104.594 69.9419 108.225 60.457C108.624 59.4187 108.722 58.2873 108.505 57.1901C108.459 56.9276 103.885 33.4018 103.034 12.2445C112.724 14.1928 119.389 20.6384 123.071 25.2588C120.309 26.8338 117.686 28.5141 115.313 30.3803C112.815 32.3518 112.357 36.0151 114.29 38.5643C116.223 41.1134 119.812 41.5857 122.31 39.6081C136.385 28.5072 159.286 23.3331 194.369 23.3331C229.464 23.3331 252.365 28.5072 266.439 39.6197C267.48 40.4421 268.709 40.8393 269.932 40.8393C271.641 40.8393 273.328 40.0634 274.46 38.5759C276.392 36.0268 275.935 32.3634 273.437 30.3919C271.064 28.5195 268.44 26.8454 265.674 25.2588C269.378 20.6562 276.078 14.2044 285.699 12.2507C284.847 33.3908 280.279 56.9283 280.234 57.1908C280.017 58.2873 280.114 59.4248 280.514 60.4693C284.195 70.0068 285.836 80.1452 285.836 93.3345C285.836 131.483 253.262 186.667 194.368 186.667Z" fill="black"/>
    <path d="M277.529 304.144C281.148 295.336 285.836 279.498 285.836 256.666C285.836 218.498 249.906 199.727 248.374 198.946C245.545 197.499 242.126 198.677 240.714 201.547C239.302 204.423 240.439 207.929 243.252 209.381C243.561 209.539 274.402 225.79 274.402 256.666C274.402 289.17 264.021 305.789 263.929 305.929C262.757 307.72 262.649 310.018 263.643 311.92C264.638 313.815 266.576 315 268.685 315C285.835 315 285.835 323.779 285.835 326.667C285.835 334.326 277.208 338.334 268.685 338.334H262.969C259.813 338.334 257.252 340.947 257.252 344.167C257.252 347.387 259.813 350 262.969 350H268.685C285.246 350 297.268 340.188 297.268 326.667C297.268 314.656 290.043 306.623 277.529 304.144Z" fill="black"/>
    <path d="M125.768 338.333H120.052C111.529 338.333 102.902 334.326 102.902 326.666C102.902 323.779 102.902 314.999 120.052 314.999C122.15 314.999 124.071 313.815 125.071 311.931C126.071 310.047 125.969 307.748 124.825 305.957C124.717 305.789 114.335 289.169 114.335 256.666C114.335 225.79 145.176 209.538 145.474 209.386C148.298 207.94 149.447 204.44 148.029 201.558C146.616 198.676 143.192 197.503 140.363 198.944C138.831 199.726 102.901 218.498 102.901 256.665C102.901 279.496 107.589 295.334 111.208 304.142C98.6936 306.622 91.4678 314.654 91.4678 326.665C91.4678 340.186 103.49 349.998 120.051 349.998H125.768C128.923 349.998 131.484 347.385 131.484 344.165C131.484 340.945 128.924 338.333 125.768 338.333Z" fill="black"/>
    <path d="M97.1856 262.5C97.1856 259.28 94.6245 256.667 91.4691 256.667C91.435 256.667 87.5474 256.393 83.9633 252.012C79.8534 246.983 73.8676 233.467 79.9445 199.378C82.86 183.015 75.251 173.233 66.9446 171.062C59.6673 169.137 50.0063 172.649 46.027 184.823C45.0268 187.88 46.65 191.181 49.6459 192.203C52.6411 193.229 55.8769 191.567 56.8777 188.51C58.3241 184.077 61.2108 181.615 64.1095 182.362C67.4424 183.237 70.3009 188.277 68.6945 197.289C63.4296 226.853 65.6135 247.777 75.1827 259.484C82.2202 268.082 90.5433 268.333 91.4691 268.333C94.6245 268.333 97.1856 265.72 97.1856 262.5Z" fill="black"/>
    <path d="M228.709 303.66C228.874 288.522 229.749 245.898 234.271 222.81C234.894 219.654 232.888 216.58 229.789 215.95C226.673 215.314 223.678 217.368 223.067 220.523C218.299 244.813 217.436 287.764 217.276 303.333H217.236C214.08 303.333 211.519 305.946 211.519 309.166C211.519 312.386 214.08 314.999 217.236 314.999H222.952C240.102 314.999 240.102 323.779 240.102 326.666C240.102 334.325 231.475 338.333 222.952 338.333H217.236C207.78 338.333 200.086 330.481 200.086 320.833V215.833C200.086 212.613 197.524 210 194.369 210C191.214 210 188.653 212.613 188.653 215.833V320.833C188.653 330.481 180.958 338.333 171.503 338.333H165.786C157.263 338.333 148.636 334.326 148.636 326.666C148.636 323.779 148.636 314.999 165.786 314.999H171.503C174.658 314.999 177.219 312.386 177.219 309.166C177.219 305.946 174.658 303.333 171.503 303.333H171.463C171.302 287.764 170.434 244.813 165.672 220.523C165.06 217.367 162.07 215.32 158.949 215.95C155.851 216.58 153.844 219.654 154.461 222.81C158.989 245.898 159.863 288.522 160.029 303.66C145.623 305.369 137.202 313.699 137.202 326.666C137.202 340.188 149.224 349.999 165.786 349.999H171.502C180.843 349.999 189.149 345.403 194.368 338.315C199.588 345.404 207.894 350 217.236 350H222.952C239.513 350 251.536 340.188 251.536 326.667C251.536 313.699 243.115 305.369 228.709 303.66Z" fill="black"/>
    <path d="M231.527 75.8331C226.799 75.8331 222.952 79.759 222.952 84.5831C222.952 89.4072 226.799 93.3331 231.527 93.3331C236.255 93.3331 240.102 89.4072 240.102 84.5831C240.102 79.759 236.255 75.8331 231.527 75.8331Z" fill="black"/>
    <path d="M165.786 84.5831C165.786 79.759 161.938 75.8331 157.211 75.8331C152.483 75.8331 148.636 79.759 148.636 84.5831C148.636 89.4072 152.483 93.3331 157.211 93.3331C161.938 93.3331 165.786 89.4072 165.786 84.5831Z" fill="black"/>
    <path d="M231.286 152.314C228.474 150.838 225.033 151.964 223.586 154.829C222.603 156.771 218.784 157.477 217.235 157.5C210.278 157.5 203.063 151.223 200.839 144.212C210.901 139.201 217.235 123.672 217.235 116.667C217.235 105 204.555 105 194.368 105C184.182 105 171.502 105 171.502 116.667C171.502 123.673 177.836 139.201 187.898 144.212C185.674 151.223 178.459 157.5 171.502 157.5C170.69 157.5 166.323 157.016 165.082 154.7C163.567 151.877 160.097 150.838 157.324 152.384C154.558 153.93 153.534 157.471 155.055 160.3C159.674 168.916 170.307 169.167 171.501 169.167C180.379 169.167 188.966 163.993 194.368 156.59C199.77 163.993 208.356 169.167 217.234 169.167C218.457 169.167 229.331 168.911 233.75 160.172C235.197 157.307 234.093 153.79 231.286 152.314ZM194.368 134.167C189.652 134.167 183.546 122.536 182.975 117.367C185.13 116.667 190.607 116.667 194.368 116.667C198.13 116.667 203.612 116.667 205.762 117.367C205.207 122.512 199.091 134.167 194.368 134.167Z" fill="black"/>
</svg>
