<svg width="340" height="290" viewBox="0 0 340 290" fill="none" xmlns="http://www.w3.org/2000/svg">
    <path d="M243.466 3.79985C243.466 1.70243 241.634 0 239.377 0C225.481 0 216.851 8.607 213.22 13.224C202.375 9.44686 188.254 7.60015 169.855 7.60015C151.456 7.60015 137.335 9.44686 126.49 13.224C122.858 8.61101 114.229 0 100.333 0C98.0756 0 96.2434 1.70243 96.2434 3.79985C96.2434 17.2897 99.3106 33.3526 100.186 37.6619C97.499 44.46 96.2434 51.8473 96.2434 60.7999C96.2434 88.7566 122.457 129.2 169.855 129.2C217.253 129.2 243.467 88.7566 243.467 60.7999C243.467 51.809 242.211 44.4181 239.524 37.6578C240.399 33.341 243.466 17.2861 243.466 3.79985ZM169.855 121.6C127.724 121.6 104.422 85.6523 104.422 60.8003C104.422 52.3683 105.633 45.5621 108.23 39.3834C108.516 38.707 108.585 37.97 108.43 37.2553C108.397 37.0843 105.126 21.7589 104.517 7.97644C111.448 9.24558 116.217 13.4444 118.85 16.4543C116.875 17.4803 114.998 18.5749 113.301 19.7906C111.514 21.0749 111.186 23.4613 112.569 25.1219C113.951 26.7824 116.519 27.0901 118.306 25.8019C128.375 18.5704 144.758 15.1999 169.855 15.1999C194.961 15.1999 211.344 18.5704 221.412 25.8094C222.156 26.3451 223.036 26.6039 223.911 26.6039C225.133 26.6039 226.34 26.0984 227.149 25.1294C228.532 23.4689 228.205 21.0824 226.418 19.7981C224.721 18.5784 222.843 17.4879 220.864 16.4543C223.514 13.456 228.307 9.25315 235.19 7.98044C234.581 21.7517 231.313 37.0847 231.28 37.2557C231.125 37.97 231.194 38.711 231.48 39.3914C234.114 45.6045 235.288 52.2089 235.288 60.8007C235.287 85.6518 211.985 121.6 169.855 121.6Z" fill="black"/>
    <path d="M229.345 198.128C231.934 192.39 235.287 182.073 235.287 167.2C235.287 142.336 209.585 130.108 208.489 129.599C206.464 128.657 204.019 129.424 203.009 131.294C201.998 133.167 202.812 135.451 204.824 136.397C205.045 136.499 227.108 147.086 227.108 167.2C227.108 188.373 219.682 199.199 219.616 199.291C218.778 200.457 218.7 201.955 219.412 203.193C220.123 204.428 221.51 205.2 223.018 205.2C235.287 205.2 235.287 210.919 235.287 212.8C235.287 217.789 229.116 220.4 223.018 220.4H218.929C216.672 220.4 214.84 222.103 214.84 224.2C214.84 226.298 216.672 228 218.929 228H223.018C234.866 228 243.466 221.608 243.466 212.8C243.466 204.976 238.297 199.743 229.345 198.128Z" fill="black"/>
    <path d="M120.78 220.4H116.691C110.593 220.4 104.422 217.789 104.422 212.8C104.422 210.919 104.422 205.2 116.691 205.2C118.192 205.2 119.566 204.428 120.281 203.201C120.997 201.973 120.923 200.476 120.105 199.309C120.028 199.199 112.601 188.373 112.601 167.199C112.601 147.086 134.664 136.499 134.877 136.4C136.897 135.458 137.719 133.178 136.704 131.3C135.694 129.423 133.245 128.659 131.22 129.598C130.124 130.107 104.422 142.336 104.422 167.199C104.422 182.072 107.775 192.389 110.364 198.127C101.412 199.742 96.2424 204.975 96.2424 212.799C96.2424 221.607 104.843 227.999 116.69 227.999H120.78C123.037 227.999 124.869 226.296 124.869 224.199C124.869 222.101 123.038 220.4 120.78 220.4Z" fill="black"/>
    <path d="M100.333 171C100.333 168.903 98.5006 167.2 96.2434 167.2C96.219 167.2 93.4379 167.022 90.874 164.168C87.9338 160.892 83.6518 152.087 87.999 129.88C90.0847 119.221 84.6414 112.849 78.6993 111.435C73.4933 110.181 66.5821 112.469 63.7354 120.399C63.0199 122.39 64.1811 124.541 66.3243 125.206C68.467 125.875 70.7817 124.792 71.4977 122.801C72.5324 119.913 74.5975 118.309 76.6711 118.796C79.0554 119.366 81.1003 122.649 79.9511 128.52C76.1847 147.778 77.747 161.409 84.5925 169.035C89.627 174.636 95.5811 174.8 96.2434 174.8C98.5006 174.8 100.333 173.097 100.333 171Z" fill="black"/>
    <path d="M194.421 197.813C194.539 187.952 195.165 160.185 198.4 145.145C198.845 143.089 197.41 141.086 195.194 140.676C192.965 140.262 190.822 141.6 190.384 143.655C186.974 159.478 186.356 187.458 186.242 197.6H186.213C183.956 197.6 182.124 199.302 182.124 201.4C182.124 203.497 183.956 205.2 186.213 205.2H190.302C202.571 205.2 202.571 210.919 202.571 212.8C202.571 217.789 196.4 220.4 190.302 220.4H186.213C179.449 220.4 173.944 215.285 173.944 209V140.6C173.944 138.502 172.112 136.8 169.855 136.8C167.598 136.8 165.766 138.502 165.766 140.6V209C165.766 215.285 160.261 220.4 153.497 220.4H149.408C143.31 220.4 137.139 217.789 137.139 212.8C137.139 210.919 137.139 205.2 149.408 205.2H153.497C155.754 205.2 157.586 203.497 157.586 201.4C157.586 199.302 155.754 197.6 153.497 197.6H153.468C153.354 187.458 152.732 159.478 149.326 143.655C148.888 141.599 146.749 140.265 144.517 140.676C142.3 141.087 140.865 143.089 141.306 145.145C144.545 160.185 145.171 187.952 145.289 197.813C134.983 198.926 128.959 204.353 128.959 212.8C128.959 221.608 137.56 228 149.407 228H153.497C160.179 228 166.121 225.005 169.855 220.388C173.588 225.006 179.53 228 186.213 228H190.302C202.15 228 210.75 221.608 210.75 212.8C210.75 204.353 204.726 198.926 194.421 197.813Z" fill="black"/>
    <path d="M196.437 49.3999C193.055 49.3999 190.302 51.9573 190.302 55.0999C190.302 58.2424 193.055 60.7999 196.437 60.7999C199.819 60.7999 202.571 58.2424 202.571 55.0999C202.571 51.9573 199.819 49.3999 196.437 49.3999Z" fill="black"/>
    <path d="M149.407 55.0999C149.407 51.9573 146.655 49.3999 143.273 49.3999C139.891 49.3999 137.139 51.9573 137.139 55.0999C137.139 58.2424 139.891 60.7999 143.273 60.7999C146.655 60.7999 149.407 58.2424 149.407 55.0999Z" fill="black"/>
    <path d="M196.265 99.2218C194.253 98.2604 191.791 98.9939 190.756 100.86C190.053 102.125 187.321 102.585 186.213 102.6C181.236 102.6 176.075 98.5111 174.484 93.9436C181.681 90.6794 186.213 80.5637 186.213 76.0001C186.213 68.4 177.142 68.4 169.855 68.4C162.567 68.4 153.497 68.4 153.497 76.0001C153.497 80.5641 158.028 90.6794 165.226 93.9436C163.635 98.5111 158.474 102.6 153.497 102.6C152.916 102.6 149.792 102.285 148.904 100.776C147.82 98.9368 145.338 98.2604 143.354 99.2673C141.375 100.274 140.643 102.581 141.731 104.424C145.035 110.037 152.642 110.2 153.496 110.2C159.847 110.2 165.989 106.83 169.854 102.007C173.719 106.83 179.861 110.2 186.212 110.2C187.087 110.2 194.866 110.033 198.027 104.341C199.062 102.474 198.273 100.183 196.265 99.2218ZM169.855 87.4001C166.481 87.4001 162.113 79.8231 161.704 76.4561C163.246 76.0001 167.164 76.0001 169.855 76.0001C172.546 76.0001 176.467 76.0001 178.005 76.4561C177.608 79.8076 173.233 87.4001 169.855 87.4001Z" fill="black"/>
    <path d="M17.7812 249.312C17.5521 247.938 17.125 246.854 16.5 246.062C15.875 245.25 15.2396 244.667 14.5938 244.312C14.0729 244.021 13.5521 243.802 13.0312 243.656C12.5312 243.51 12.0938 243.375 11.7188 243.25C11.3229 243.104 11.0312 242.948 10.8438 242.781C10.6562 242.615 10.5625 242.385 10.5625 242.094C10.5625 241.49 10.9688 241.188 11.7812 241.188C12.1562 241.188 12.5208 241.229 12.875 241.312C13.2292 241.396 13.6562 241.49 14.1562 241.594C14.6562 241.698 15.25 241.823 15.9375 241.969C16.625 242.094 17.4792 242.198 18.5 242.281C19.4375 242.365 20.2292 242.417 20.875 242.438C21.5208 242.438 22.0625 242.448 22.5 242.469C22.9583 242.469 23.3438 242.49 23.6562 242.531C23.9688 242.552 24.25 242.615 24.5 242.719C24.875 242.885 25.3646 243.292 25.9688 243.938C26.5938 244.583 27.2812 245.375 28.0312 246.312C28.8021 247.25 29.6146 248.292 30.4688 249.438C31.3229 250.583 32.1667 251.75 33 252.938C33.8542 254.104 34.6771 255.24 35.4688 256.344C36.2812 257.448 37.0104 258.427 37.6562 259.281C38.3229 260.135 38.8854 260.823 39.3438 261.344C39.8229 261.865 40.1458 262.125 40.3125 262.125C40.6667 262.125 41.3542 261.167 42.375 259.25C43.4167 257.312 44.8854 254.427 46.7812 250.594C47.3021 249.531 47.8333 248.406 48.375 247.219C48.9375 246.01 49.4792 244.823 50 243.656C50.5417 242.469 51.0521 241.333 51.5312 240.25C52.0104 239.167 52.4479 238.208 52.8438 237.375C53.2604 236.542 53.625 235.875 53.9375 235.375C54.25 234.854 54.4896 234.573 54.6562 234.531C54.7604 234.49 54.8646 234.469 54.9688 234.469C55.0938 234.469 55.2292 234.469 55.375 234.469C55.75 234.469 56.2708 234.479 56.9375 234.5C57.6042 234.521 58.4688 234.531 59.5312 234.531C60.1771 234.531 60.7604 234.51 61.2812 234.469C61.8021 234.406 62.2604 234.344 62.6562 234.281C63.0729 234.219 63.4479 234.167 63.7812 234.125C64.1146 234.062 64.4271 234.031 64.7188 234.031C65.1562 234.031 65.4375 234.094 65.5625 234.219C65.7083 234.344 65.7812 234.49 65.7812 234.656C65.7812 235.031 65.4688 235.312 64.8438 235.5C64.2396 235.688 63.3854 235.885 62.2812 236.094C61.1979 236.281 59.9792 236.615 58.625 237.094C57.7917 237.385 57.2083 237.917 56.875 238.688C56.5417 239.438 56.375 240.375 56.375 241.5C56.375 242.312 56.4375 243.354 56.5625 244.625C56.7083 245.875 56.8958 247.271 57.125 248.812C57.375 250.333 57.6667 251.958 58 253.688C58.3333 255.396 58.6875 257.125 59.0625 258.875C59.4583 260.604 59.8646 262.292 60.2812 263.938C60.7188 265.583 61.1562 267.104 61.5938 268.5C62.0312 269.896 62.4583 271.125 62.875 272.188C63.3125 273.229 63.7292 274.01 64.125 274.531C64.5 275.031 64.875 275.458 65.25 275.812C65.6458 276.167 66.0729 276.469 66.5312 276.719C67.0104 276.969 67.5208 277.188 68.0625 277.375C68.625 277.562 69.25 277.75 69.9375 277.938C70.6042 278.104 71.0625 278.281 71.3125 278.469C71.5625 278.656 71.6875 278.885 71.6875 279.156C71.6875 279.448 71.5104 279.688 71.1562 279.875C70.8229 280.062 70.2917 280.156 69.5625 280.156C68.6875 280.156 67.7708 280.125 66.8125 280.062C65.875 280 64.8333 279.969 63.6875 279.969C61.8333 279.969 60.1354 280.104 58.5938 280.375C57.0729 280.646 55.6771 280.948 54.4062 281.281C53.1562 281.615 52.0208 281.917 51 282.188C49.9792 282.458 49.0417 282.594 48.1875 282.594C47.9583 282.594 47.7292 282.552 47.5 282.469C47.2708 282.385 47.1562 282.198 47.1562 281.906C47.1562 281.594 47.3438 281.333 47.7188 281.125C48.0938 280.938 48.5729 280.76 49.1562 280.594C49.7604 280.406 50.4271 280.219 51.1562 280.031C51.8854 279.844 52.6042 279.594 53.3125 279.281C54.0417 278.948 54.5625 278.521 54.875 278C55.2083 277.458 55.375 276.771 55.375 275.938C55.375 275.458 55.2917 274.708 55.125 273.688C54.9792 272.667 54.7812 271.479 54.5312 270.125C54.2812 268.771 53.9896 267.312 53.6562 265.75C53.3438 264.188 53.0104 262.625 52.6562 261.062C52.3229 259.5 51.9792 258 51.625 256.562C51.2917 255.104 50.9896 253.823 50.7188 252.719C50.4479 251.615 50.2083 250.729 50 250.062C49.8125 249.396 49.6979 249.062 49.6562 249.062C49.5938 249.062 49.3958 249.344 49.0625 249.906C48.75 250.469 48.3542 251.219 47.875 252.156C47.3958 253.094 46.8542 254.167 46.25 255.375C45.6458 256.583 45.0312 257.823 44.4062 259.094C43.8021 260.365 43.1979 261.625 42.5938 262.875C41.9896 264.125 41.4375 265.271 40.9375 266.312C40.4375 267.333 40.0208 268.198 39.6875 268.906C39.3542 269.594 39.1354 270.021 39.0312 270.188C38.8229 270.583 38.6042 271 38.375 271.438C38.1458 271.875 37.9062 272.281 37.6562 272.656C37.4271 273.01 37.2083 273.312 37 273.562C36.7917 273.792 36.6146 273.906 36.4688 273.906C36.3438 273.906 36.1771 273.812 35.9688 273.625C35.7812 273.417 35.5833 273.167 35.375 272.875C35.1667 272.583 34.9479 272.271 34.7188 271.938C34.5104 271.604 34.3333 271.302 34.1875 271.031C33.6458 270.094 33.0104 268.99 32.2812 267.719C31.5521 266.427 30.7812 265.083 29.9688 263.688C29.1771 262.271 28.3854 260.854 27.5938 259.438C26.8229 258.021 26.0938 256.719 25.4062 255.531C24.7396 254.323 24.1667 253.292 23.6875 252.438C23.2083 251.562 22.8854 250.969 22.7188 250.656C22.3646 250.031 22.0625 249.51 21.8125 249.094C21.5625 248.656 21.3438 248.312 21.1562 248.062C20.9896 247.812 20.8438 247.635 20.7188 247.531C20.5938 247.406 20.4688 247.344 20.3438 247.344C20.1771 247.344 20.0938 247.51 20.0938 247.844C20.0938 248.177 20.125 248.635 20.1875 249.219C20.25 249.781 20.3021 250.281 20.3438 250.719C20.5521 252.74 20.6875 254.635 20.75 256.406C20.8333 258.156 20.875 259.844 20.875 261.469C20.875 262.927 20.7917 264.51 20.625 266.219C20.4583 267.906 20.1771 269.604 19.7812 271.312C19.3854 273 18.8438 274.625 18.1562 276.188C17.4896 277.75 16.6354 279.135 15.5938 280.344C14.5521 281.552 13.3125 282.51 11.875 283.219C10.4583 283.948 8.80208 284.312 6.90625 284.312C5.80208 284.312 4.82292 284.135 3.96875 283.781C3.11458 283.427 2.38542 282.948 1.78125 282.344C1.19792 281.76 0.75 281.094 0.4375 280.344C0.145833 279.573 0 278.771 0 277.938C0 277.354 0.0729167 276.771 0.21875 276.188C0.385417 275.604 0.645833 275.094 1 274.656C1.35417 274.198 1.80208 273.833 2.34375 273.562C2.88542 273.271 3.55208 273.125 4.34375 273.125C4.96875 273.125 5.52083 273.24 6 273.469C6.5 273.677 6.9375 273.948 7.3125 274.281C7.70833 274.594 8.0625 274.948 8.375 275.344C8.6875 275.74 8.96875 276.115 9.21875 276.469C10.0938 277.656 11.0521 278.25 12.0938 278.25C13.0104 278.25 13.8021 277.969 14.4688 277.406C15.1354 276.844 15.7083 276.094 16.1875 275.156C16.6875 274.198 17.0938 273.104 17.4062 271.875C17.7188 270.646 17.9583 269.365 18.125 268.031C18.3125 266.698 18.4375 265.365 18.5 264.031C18.5833 262.677 18.625 261.417 18.625 260.25C18.625 258.188 18.5417 256.219 18.375 254.344C18.2083 252.469 18.0104 250.792 17.7812 249.312ZM95.3438 264.438C95.6354 264.917 95.8958 265.562 96.125 266.375C96.375 267.188 96.5 268.01 96.5 268.844C96.5 270.365 96.25 271.729 95.75 272.938C95.25 274.125 94.5312 275.135 93.5938 275.969C92.6562 276.781 91.5208 277.406 90.1875 277.844C88.875 278.281 87.3958 278.5 85.75 278.5C83.375 278.5 81.25 278.104 79.375 277.312C77.5208 276.5 75.9583 275.375 74.6875 273.938C73.4167 272.5 72.4479 270.792 71.7812 268.812C71.1146 266.812 70.7812 264.625 70.7812 262.25C70.7812 260.104 71.0104 258.156 71.4688 256.406C71.9271 254.656 72.5521 253.094 73.3438 251.719C74.1354 250.344 75.0521 249.146 76.0938 248.125C77.1354 247.104 78.2396 246.26 79.4062 245.594C80.5729 244.927 81.7604 244.438 82.9688 244.125C84.1771 243.792 85.3438 243.625 86.4688 243.625C87.5729 243.625 88.7188 243.771 89.9062 244.062C91.0938 244.354 92.1771 244.854 93.1562 245.562C94.1562 246.271 94.9688 247.208 95.5938 248.375C96.2396 249.521 96.5625 250.969 96.5625 252.719C96.5625 254.24 96.3333 255.573 95.875 256.719C95.4375 257.865 94.8542 258.854 94.125 259.688C93.3958 260.521 92.5625 261.208 91.625 261.75C90.7083 262.292 89.7604 262.729 88.7812 263.062C87.8229 263.375 86.875 263.594 85.9375 263.719C85.0208 263.844 84.2083 263.906 83.5 263.906C82.4792 263.906 81.4792 263.833 80.5 263.688C79.5417 263.542 78.7917 263.385 78.25 263.219C78.3333 264.844 78.5833 266.417 79 267.938C79.4375 269.438 80.0521 270.76 80.8438 271.906C81.6354 273.052 82.6146 273.969 83.7812 274.656C84.9688 275.344 86.3542 275.688 87.9375 275.688C89.0417 275.688 89.9896 275.5 90.7812 275.125C91.5938 274.75 92.2604 274.25 92.7812 273.625C93.3021 272.979 93.6875 272.24 93.9375 271.406C94.1875 270.573 94.3125 269.698 94.3125 268.781C94.3125 268.24 94.2708 267.677 94.1875 267.094C94.125 266.51 94 265.958 93.8125 265.438C93.6875 265.125 93.5833 264.833 93.5 264.562C93.4167 264.292 93.375 264.073 93.375 263.906C93.375 263.49 93.5625 263.281 93.9375 263.281C94.125 263.281 94.3438 263.375 94.5938 263.562C94.8646 263.75 95.1146 264.042 95.3438 264.438ZM78.125 261.156C78.6667 261.323 79.2812 261.469 79.9688 261.594C80.6562 261.698 81.5208 261.75 82.5625 261.75C83.7708 261.75 84.8854 261.521 85.9062 261.062C86.9271 260.604 87.8021 259.969 88.5312 259.156C89.2604 258.323 89.8333 257.323 90.25 256.156C90.6667 254.99 90.875 253.688 90.875 252.25C90.875 250.979 90.7292 249.917 90.4375 249.062C90.1667 248.188 89.8021 247.49 89.3438 246.969C88.8854 246.448 88.3542 246.083 87.75 245.875C87.1667 245.646 86.5625 245.531 85.9375 245.531C85.1458 245.531 84.2917 245.771 83.375 246.25C82.4583 246.729 81.6042 247.562 80.8125 248.75C80.0417 249.938 79.3958 251.542 78.875 253.562C78.375 255.562 78.125 258.094 78.125 261.156ZM98.9062 261.812C98.9062 259.479 99.2708 257.375 100 255.5C100.729 253.604 101.76 251.99 103.094 250.656C104.427 249.323 106.031 248.302 107.906 247.594C109.802 246.865 111.896 246.5 114.188 246.5C116.25 246.5 118.146 246.844 119.875 247.531C121.625 248.219 123.135 249.208 124.406 250.5C125.677 251.771 126.667 253.323 127.375 255.156C128.104 256.969 128.469 259.01 128.469 261.281C128.469 263.969 128.021 266.271 127.125 268.188C126.25 270.104 125.115 271.677 123.719 272.906C122.344 274.135 120.802 275.042 119.094 275.625C117.385 276.188 115.708 276.469 114.062 276.469C112.083 276.469 110.177 276.146 108.344 275.5C106.531 274.833 104.927 273.875 103.531 272.625C102.135 271.375 101.01 269.844 100.156 268.031C99.3229 266.198 98.9062 264.125 98.9062 261.812ZM113.75 247.719C112.562 247.719 111.531 248.021 110.656 248.625C109.802 249.208 109.094 250.01 108.531 251.031C107.969 252.031 107.552 253.208 107.281 254.562C107.031 255.896 106.906 257.302 106.906 258.781C106.906 260.01 106.979 261.25 107.125 262.5C107.271 263.75 107.49 264.958 107.781 266.125C108.094 267.271 108.469 268.354 108.906 269.375C109.365 270.375 109.906 271.25 110.531 272C111.156 272.75 111.865 273.344 112.656 273.781C113.469 274.198 114.365 274.406 115.344 274.406C116.615 274.406 117.677 274.125 118.531 273.562C119.406 272.979 120.104 272.229 120.625 271.312C121.146 270.375 121.51 269.333 121.719 268.188C121.948 267.021 122.062 265.854 122.062 264.688C122.062 261.812 121.854 259.312 121.438 257.188C121.021 255.062 120.438 253.302 119.688 251.906C118.938 250.49 118.052 249.438 117.031 248.75C116.031 248.062 114.938 247.719 113.75 247.719ZM147.094 250.031C147.094 250.198 147 250.365 146.812 250.531C146.646 250.677 146.438 250.823 146.188 250.969C145.958 251.115 145.708 251.271 145.438 251.438C145.188 251.583 144.969 251.729 144.781 251.875C144.427 252.208 144.188 252.573 144.062 252.969C143.958 253.365 143.906 253.771 143.906 254.188C143.906 254.667 144.01 255.417 144.219 256.438C144.427 257.458 144.698 258.594 145.031 259.844C145.365 261.073 145.719 262.344 146.094 263.656C146.49 264.969 146.865 266.167 147.219 267.25C147.573 268.333 147.885 269.219 148.156 269.906C148.427 270.594 148.604 270.938 148.688 270.938C148.792 270.938 148.99 270.615 149.281 269.969C149.573 269.323 149.927 268.49 150.344 267.469C150.76 266.448 151.208 265.302 151.688 264.031C152.188 262.74 152.677 261.458 153.156 260.188C153.656 258.917 154.135 257.719 154.594 256.594C155.052 255.469 155.448 254.542 155.781 253.812C155.927 253.521 156.073 253.292 156.219 253.125C156.365 252.938 156.521 252.844 156.688 252.844C156.875 252.844 157.042 252.938 157.188 253.125C157.333 253.292 157.49 253.521 157.656 253.812C158.01 254.479 158.427 255.292 158.906 256.25C159.406 257.188 159.927 258.177 160.469 259.219C161.01 260.26 161.552 261.302 162.094 262.344C162.635 263.365 163.135 264.292 163.594 265.125C164.052 265.938 164.438 266.604 164.75 267.125C165.083 267.625 165.302 267.875 165.406 267.875C165.49 267.875 165.635 267.562 165.844 266.938C166.073 266.292 166.312 265.479 166.562 264.5C166.812 263.521 167.073 262.438 167.344 261.25C167.635 260.062 167.896 258.927 168.125 257.844C168.354 256.76 168.542 255.802 168.688 254.969C168.833 254.115 168.906 253.531 168.906 253.219C168.906 252.844 168.833 252.573 168.688 252.406C168.562 252.219 168.323 252.125 167.969 252.125C167.677 252.125 167.333 252.156 166.938 252.219C166.542 252.281 166.135 252.312 165.719 252.312C165.469 252.312 165.281 252.26 165.156 252.156C165.052 252.052 165 251.938 165 251.812C165 251.646 165.042 251.521 165.125 251.438C165.229 251.354 165.344 251.292 165.469 251.25C165.823 251.146 166.448 251.083 167.344 251.062C168.26 251.021 169.427 250.865 170.844 250.594C172.323 250.344 173.531 250.062 174.469 249.75C175.406 249.417 176.135 249.25 176.656 249.25C177.135 249.25 177.375 249.427 177.375 249.781C177.375 250.073 177.198 250.281 176.844 250.406C176.531 250.531 176.125 250.667 175.625 250.812C175.146 250.938 174.615 251.104 174.031 251.312C173.594 251.458 173.219 251.625 172.906 251.812C172.615 252 172.354 252.229 172.125 252.5C171.917 252.75 171.729 253.062 171.562 253.438C171.396 253.812 171.24 254.25 171.094 254.75C170.948 255.208 170.76 255.875 170.531 256.75C170.302 257.625 170.042 258.625 169.75 259.75C169.458 260.875 169.135 262.083 168.781 263.375C168.427 264.646 168.062 265.927 167.688 267.219C167.333 268.49 166.969 269.719 166.594 270.906C166.219 272.073 165.844 273.104 165.469 274C165.115 274.896 164.771 275.615 164.438 276.156C164.125 276.698 163.844 276.969 163.594 276.969C163.323 276.969 162.979 276.76 162.562 276.344C162.146 275.906 161.688 275.344 161.188 274.656C160.708 273.969 160.188 273.188 159.625 272.312C159.083 271.417 158.552 270.51 158.031 269.594C156.781 267.427 155.458 264.958 154.062 262.188C154.021 262.333 153.885 262.708 153.656 263.312C153.448 263.896 153.188 264.604 152.875 265.438C152.583 266.25 152.26 267.135 151.906 268.094C151.552 269.031 151.208 269.927 150.875 270.781C150.562 271.635 150.271 272.396 150 273.062C149.75 273.729 149.573 274.198 149.469 274.469C149.135 275.344 148.771 276.25 148.375 277.188C148 278.104 147.625 278.958 147.25 279.75C146.875 280.521 146.531 281.156 146.219 281.656C145.906 282.156 145.646 282.406 145.438 282.406C145.229 282.406 144.948 282.104 144.594 281.5C144.24 280.896 143.844 280.094 143.406 279.094C142.969 278.094 142.5 276.948 142 275.656C141.521 274.344 141.031 272.99 140.531 271.594C140.031 270.177 139.542 268.781 139.062 267.406C138.583 266.01 138.146 264.719 137.75 263.531C137.354 262.344 137 261.312 136.688 260.438C136.396 259.562 136.177 258.948 136.031 258.594C135.76 257.948 135.427 257.51 135.031 257.281C134.635 257.052 134.198 256.938 133.719 256.938C133.198 256.938 132.698 257 132.219 257.125C131.76 257.25 131.344 257.312 130.969 257.312C130.781 257.312 130.594 257.26 130.406 257.156C130.219 257.052 130.125 256.875 130.125 256.625C130.125 256.271 130.26 256.021 130.531 255.875C130.802 255.729 131.156 255.594 131.594 255.469C131.969 255.385 132.448 255.271 133.031 255.125C133.635 254.979 134.292 254.812 135 254.625C135.708 254.417 136.438 254.188 137.188 253.938C137.958 253.688 138.677 253.406 139.344 253.094C140.406 252.615 141.333 252.156 142.125 251.719C142.917 251.281 143.594 250.896 144.156 250.562C144.719 250.208 145.188 249.938 145.562 249.75C145.958 249.542 146.281 249.438 146.531 249.438C146.698 249.438 146.833 249.49 146.938 249.594C147.042 249.677 147.094 249.823 147.094 250.031ZM194.781 250.031C194.781 250.198 194.688 250.365 194.5 250.531C194.333 250.677 194.125 250.823 193.875 250.969C193.646 251.115 193.396 251.271 193.125 251.438C192.875 251.583 192.656 251.729 192.469 251.875C192.115 252.208 191.875 252.573 191.75 252.969C191.646 253.365 191.594 253.771 191.594 254.188C191.594 254.667 191.698 255.417 191.906 256.438C192.115 257.458 192.385 258.594 192.719 259.844C193.052 261.073 193.406 262.344 193.781 263.656C194.177 264.969 194.552 266.167 194.906 267.25C195.26 268.333 195.573 269.219 195.844 269.906C196.115 270.594 196.292 270.938 196.375 270.938C196.479 270.938 196.677 270.615 196.969 269.969C197.26 269.323 197.615 268.49 198.031 267.469C198.448 266.448 198.896 265.302 199.375 264.031C199.875 262.74 200.365 261.458 200.844 260.188C201.344 258.917 201.823 257.719 202.281 256.594C202.74 255.469 203.135 254.542 203.469 253.812C203.615 253.521 203.76 253.292 203.906 253.125C204.052 252.938 204.208 252.844 204.375 252.844C204.562 252.844 204.729 252.938 204.875 253.125C205.021 253.292 205.177 253.521 205.344 253.812C205.698 254.479 206.115 255.292 206.594 256.25C207.094 257.188 207.615 258.177 208.156 259.219C208.698 260.26 209.24 261.302 209.781 262.344C210.323 263.365 210.823 264.292 211.281 265.125C211.74 265.938 212.125 266.604 212.438 267.125C212.771 267.625 212.99 267.875 213.094 267.875C213.177 267.875 213.323 267.562 213.531 266.938C213.76 266.292 214 265.479 214.25 264.5C214.5 263.521 214.76 262.438 215.031 261.25C215.323 260.062 215.583 258.927 215.812 257.844C216.042 256.76 216.229 255.802 216.375 254.969C216.521 254.115 216.594 253.531 216.594 253.219C216.594 252.844 216.521 252.573 216.375 252.406C216.25 252.219 216.01 252.125 215.656 252.125C215.365 252.125 215.021 252.156 214.625 252.219C214.229 252.281 213.823 252.312 213.406 252.312C213.156 252.312 212.969 252.26 212.844 252.156C212.74 252.052 212.688 251.938 212.688 251.812C212.688 251.646 212.729 251.521 212.812 251.438C212.917 251.354 213.031 251.292 213.156 251.25C213.51 251.146 214.135 251.083 215.031 251.062C215.948 251.021 217.115 250.865 218.531 250.594C220.01 250.344 221.219 250.062 222.156 249.75C223.094 249.417 223.823 249.25 224.344 249.25C224.823 249.25 225.062 249.427 225.062 249.781C225.062 250.073 224.885 250.281 224.531 250.406C224.219 250.531 223.812 250.667 223.312 250.812C222.833 250.938 222.302 251.104 221.719 251.312C221.281 251.458 220.906 251.625 220.594 251.812C220.302 252 220.042 252.229 219.812 252.5C219.604 252.75 219.417 253.062 219.25 253.438C219.083 253.812 218.927 254.25 218.781 254.75C218.635 255.208 218.448 255.875 218.219 256.75C217.99 257.625 217.729 258.625 217.438 259.75C217.146 260.875 216.823 262.083 216.469 263.375C216.115 264.646 215.75 265.927 215.375 267.219C215.021 268.49 214.656 269.719 214.281 270.906C213.906 272.073 213.531 273.104 213.156 274C212.802 274.896 212.458 275.615 212.125 276.156C211.812 276.698 211.531 276.969 211.281 276.969C211.01 276.969 210.667 276.76 210.25 276.344C209.833 275.906 209.375 275.344 208.875 274.656C208.396 273.969 207.875 273.188 207.312 272.312C206.771 271.417 206.24 270.51 205.719 269.594C204.469 267.427 203.146 264.958 201.75 262.188C201.708 262.333 201.573 262.708 201.344 263.312C201.135 263.896 200.875 264.604 200.562 265.438C200.271 266.25 199.948 267.135 199.594 268.094C199.24 269.031 198.896 269.927 198.562 270.781C198.25 271.635 197.958 272.396 197.688 273.062C197.438 273.729 197.26 274.198 197.156 274.469C196.823 275.344 196.458 276.25 196.062 277.188C195.688 278.104 195.312 278.958 194.938 279.75C194.562 280.521 194.219 281.156 193.906 281.656C193.594 282.156 193.333 282.406 193.125 282.406C192.917 282.406 192.635 282.104 192.281 281.5C191.927 280.896 191.531 280.094 191.094 279.094C190.656 278.094 190.188 276.948 189.688 275.656C189.208 274.344 188.719 272.99 188.219 271.594C187.719 270.177 187.229 268.781 186.75 267.406C186.271 266.01 185.833 264.719 185.438 263.531C185.042 262.344 184.688 261.312 184.375 260.438C184.083 259.562 183.865 258.948 183.719 258.594C183.448 257.948 183.115 257.51 182.719 257.281C182.323 257.052 181.885 256.938 181.406 256.938C180.885 256.938 180.385 257 179.906 257.125C179.448 257.25 179.031 257.312 178.656 257.312C178.469 257.312 178.281 257.26 178.094 257.156C177.906 257.052 177.812 256.875 177.812 256.625C177.812 256.271 177.948 256.021 178.219 255.875C178.49 255.729 178.844 255.594 179.281 255.469C179.656 255.385 180.135 255.271 180.719 255.125C181.323 254.979 181.979 254.812 182.688 254.625C183.396 254.417 184.125 254.188 184.875 253.938C185.646 253.688 186.365 253.406 187.031 253.094C188.094 252.615 189.021 252.156 189.812 251.719C190.604 251.281 191.281 250.896 191.844 250.562C192.406 250.208 192.875 249.938 193.25 249.75C193.646 249.542 193.969 249.438 194.219 249.438C194.385 249.438 194.521 249.49 194.625 249.594C194.729 249.677 194.781 249.823 194.781 250.031ZM242.469 250.031C242.469 250.198 242.375 250.365 242.188 250.531C242.021 250.677 241.812 250.823 241.562 250.969C241.333 251.115 241.083 251.271 240.812 251.438C240.562 251.583 240.344 251.729 240.156 251.875C239.802 252.208 239.562 252.573 239.438 252.969C239.333 253.365 239.281 253.771 239.281 254.188C239.281 254.667 239.385 255.417 239.594 256.438C239.802 257.458 240.073 258.594 240.406 259.844C240.74 261.073 241.094 262.344 241.469 263.656C241.865 264.969 242.24 266.167 242.594 267.25C242.948 268.333 243.26 269.219 243.531 269.906C243.802 270.594 243.979 270.938 244.062 270.938C244.167 270.938 244.365 270.615 244.656 269.969C244.948 269.323 245.302 268.49 245.719 267.469C246.135 266.448 246.583 265.302 247.062 264.031C247.562 262.74 248.052 261.458 248.531 260.188C249.031 258.917 249.51 257.719 249.969 256.594C250.427 255.469 250.823 254.542 251.156 253.812C251.302 253.521 251.448 253.292 251.594 253.125C251.74 252.938 251.896 252.844 252.062 252.844C252.25 252.844 252.417 252.938 252.562 253.125C252.708 253.292 252.865 253.521 253.031 253.812C253.385 254.479 253.802 255.292 254.281 256.25C254.781 257.188 255.302 258.177 255.844 259.219C256.385 260.26 256.927 261.302 257.469 262.344C258.01 263.365 258.51 264.292 258.969 265.125C259.427 265.938 259.812 266.604 260.125 267.125C260.458 267.625 260.677 267.875 260.781 267.875C260.865 267.875 261.01 267.562 261.219 266.938C261.448 266.292 261.688 265.479 261.938 264.5C262.188 263.521 262.448 262.438 262.719 261.25C263.01 260.062 263.271 258.927 263.5 257.844C263.729 256.76 263.917 255.802 264.062 254.969C264.208 254.115 264.281 253.531 264.281 253.219C264.281 252.844 264.208 252.573 264.062 252.406C263.938 252.219 263.698 252.125 263.344 252.125C263.052 252.125 262.708 252.156 262.312 252.219C261.917 252.281 261.51 252.312 261.094 252.312C260.844 252.312 260.656 252.26 260.531 252.156C260.427 252.052 260.375 251.938 260.375 251.812C260.375 251.646 260.417 251.521 260.5 251.438C260.604 251.354 260.719 251.292 260.844 251.25C261.198 251.146 261.823 251.083 262.719 251.062C263.635 251.021 264.802 250.865 266.219 250.594C267.698 250.344 268.906 250.062 269.844 249.75C270.781 249.417 271.51 249.25 272.031 249.25C272.51 249.25 272.75 249.427 272.75 249.781C272.75 250.073 272.573 250.281 272.219 250.406C271.906 250.531 271.5 250.667 271 250.812C270.521 250.938 269.99 251.104 269.406 251.312C268.969 251.458 268.594 251.625 268.281 251.812C267.99 252 267.729 252.229 267.5 252.5C267.292 252.75 267.104 253.062 266.938 253.438C266.771 253.812 266.615 254.25 266.469 254.75C266.323 255.208 266.135 255.875 265.906 256.75C265.677 257.625 265.417 258.625 265.125 259.75C264.833 260.875 264.51 262.083 264.156 263.375C263.802 264.646 263.438 265.927 263.062 267.219C262.708 268.49 262.344 269.719 261.969 270.906C261.594 272.073 261.219 273.104 260.844 274C260.49 274.896 260.146 275.615 259.812 276.156C259.5 276.698 259.219 276.969 258.969 276.969C258.698 276.969 258.354 276.76 257.938 276.344C257.521 275.906 257.062 275.344 256.562 274.656C256.083 273.969 255.562 273.188 255 272.312C254.458 271.417 253.927 270.51 253.406 269.594C252.156 267.427 250.833 264.958 249.438 262.188C249.396 262.333 249.26 262.708 249.031 263.312C248.823 263.896 248.562 264.604 248.25 265.438C247.958 266.25 247.635 267.135 247.281 268.094C246.927 269.031 246.583 269.927 246.25 270.781C245.938 271.635 245.646 272.396 245.375 273.062C245.125 273.729 244.948 274.198 244.844 274.469C244.51 275.344 244.146 276.25 243.75 277.188C243.375 278.104 243 278.958 242.625 279.75C242.25 280.521 241.906 281.156 241.594 281.656C241.281 282.156 241.021 282.406 240.812 282.406C240.604 282.406 240.323 282.104 239.969 281.5C239.615 280.896 239.219 280.094 238.781 279.094C238.344 278.094 237.875 276.948 237.375 275.656C236.896 274.344 236.406 272.99 235.906 271.594C235.406 270.177 234.917 268.781 234.438 267.406C233.958 266.01 233.521 264.719 233.125 263.531C232.729 262.344 232.375 261.312 232.062 260.438C231.771 259.562 231.552 258.948 231.406 258.594C231.135 257.948 230.802 257.51 230.406 257.281C230.01 257.052 229.573 256.938 229.094 256.938C228.573 256.938 228.073 257 227.594 257.125C227.135 257.25 226.719 257.312 226.344 257.312C226.156 257.312 225.969 257.26 225.781 257.156C225.594 257.052 225.5 256.875 225.5 256.625C225.5 256.271 225.635 256.021 225.906 255.875C226.177 255.729 226.531 255.594 226.969 255.469C227.344 255.385 227.823 255.271 228.406 255.125C229.01 254.979 229.667 254.812 230.375 254.625C231.083 254.417 231.812 254.188 232.562 253.938C233.333 253.688 234.052 253.406 234.719 253.094C235.781 252.615 236.708 252.156 237.5 251.719C238.292 251.281 238.969 250.896 239.531 250.562C240.094 250.208 240.562 249.938 240.938 249.75C241.333 249.542 241.656 249.438 241.906 249.438C242.073 249.438 242.208 249.49 242.312 249.594C242.417 249.677 242.469 249.823 242.469 250.031ZM274.875 272.875C275.667 272.875 276.333 273.021 276.875 273.312C277.438 273.583 277.885 273.948 278.219 274.406C278.573 274.844 278.823 275.344 278.969 275.906C279.135 276.448 279.219 276.99 279.219 277.531C279.219 278.49 279.104 279.323 278.875 280.031C278.646 280.74 278.333 281.323 277.938 281.781C277.542 282.24 277.073 282.573 276.531 282.781C275.99 283.01 275.417 283.125 274.812 283.125C274.167 283.125 273.573 283.01 273.031 282.781C272.49 282.552 272.01 282.219 271.594 281.781C271.198 281.344 270.885 280.823 270.656 280.219C270.427 279.594 270.312 278.896 270.312 278.125C270.312 277.312 270.427 276.583 270.656 275.938C270.885 275.292 271.198 274.75 271.594 274.312C272.01 273.854 272.49 273.5 273.031 273.25C273.594 273 274.208 272.875 274.875 272.875ZM290.188 272.875C290.979 272.875 291.646 273.021 292.188 273.312C292.75 273.583 293.198 273.948 293.531 274.406C293.885 274.844 294.135 275.344 294.281 275.906C294.448 276.448 294.531 276.99 294.531 277.531C294.531 278.49 294.417 279.323 294.188 280.031C293.958 280.74 293.646 281.323 293.25 281.781C292.854 282.24 292.385 282.573 291.844 282.781C291.302 283.01 290.729 283.125 290.125 283.125C289.479 283.125 288.885 283.01 288.344 282.781C287.802 282.552 287.323 282.219 286.906 281.781C286.51 281.344 286.198 280.823 285.969 280.219C285.74 279.594 285.625 278.896 285.625 278.125C285.625 277.312 285.74 276.583 285.969 275.938C286.198 275.292 286.51 274.75 286.906 274.312C287.323 273.854 287.802 273.5 288.344 273.25C288.906 273 289.521 272.875 290.188 272.875Z" fill="black"/>
</svg>
