<svg width="430" height="449" viewBox="0 0 430 449" fill="none" xmlns="http://www.w3.org/2000/svg">
    <path d="M45.5 358.75C57.3684 358.75 68.7508 363.465 77.143 371.857C85.5353 380.249 90.25 391.632 90.25 403.5C90.25 415.368 85.5353 426.751 77.143 435.143C68.7508 443.535 57.3684 448.25 45.5 448.25C33.6316 448.25 22.2492 443.535 13.857 435.143C5.46472 426.751 0.75 415.368 0.75 403.5C0.75 391.632 5.46472 380.249 13.857 371.857C22.2492 363.465 33.6316 358.75 45.5 358.75ZM168.562 291.625C183.398 291.625 197.626 297.518 208.116 308.009C218.607 318.499 224.5 332.727 224.5 347.562C224.5 362.398 218.607 376.626 208.116 387.116C197.626 397.607 183.398 403.5 168.562 403.5C153.727 403.5 139.499 397.607 129.009 387.116C118.518 376.626 112.625 362.398 112.625 347.562C112.625 332.727 118.518 318.499 129.009 308.009C139.499 297.518 153.727 291.625 168.562 291.625ZM224.5 0.75C252.961 0.755602 280.511 10.7819 302.318 29.0704C324.125 47.3588 338.796 72.7415 343.759 100.766H345.594C367.936 100.766 389.363 109.642 405.161 125.44C420.96 141.239 429.835 162.666 429.835 185.008C429.835 207.35 420.96 228.778 405.161 244.576C389.363 260.375 367.936 269.25 345.594 269.25H103.406C81.0642 269.25 59.6369 260.375 43.8385 244.576C28.0401 228.778 19.1646 207.35 19.1646 185.008C19.1646 162.666 28.0401 141.239 43.8385 125.44C59.6369 109.642 81.0642 100.766 103.406 100.766H105.241C110.204 72.7415 124.875 47.3588 146.682 29.0704C168.489 10.7819 196.039 0.755602 224.5 0.75Z" fill="#FEE100"/>
</svg>


