<svg width="379" height="395" viewBox="0 0 379 395" fill="none" xmlns="http://www.w3.org/2000/svg">
    <path d="M39.8334 315.75C50.2874 315.75 60.3132 319.903 67.7052 327.295C75.0973 334.687 79.2501 344.713 79.2501 355.167C79.2501 365.621 75.0973 375.646 67.7052 383.038C60.3132 390.431 50.2874 394.583 39.8334 394.583C29.3795 394.583 19.3537 390.431 11.9616 383.038C4.56956 375.646 0.416748 365.621 0.416748 355.167C0.416748 344.713 4.56956 334.687 11.9616 327.295C19.3537 319.903 29.3795 315.75 39.8334 315.75V315.75ZM148.229 256.625C161.297 256.625 173.829 261.816 183.069 271.056C192.309 280.296 197.5 292.828 197.5 305.896C197.5 318.963 192.309 331.496 183.069 340.736C173.829 349.976 161.297 355.167 148.229 355.167C135.162 355.167 122.63 349.976 113.39 340.736C104.149 331.496 98.9584 318.963 98.9584 305.896C98.9584 292.828 104.149 280.296 113.39 271.056C122.63 261.816 135.162 256.625 148.229 256.625V256.625ZM197.5 0.416687C222.569 0.421621 246.835 9.25302 266.044 25.3618C285.252 41.4706 298.174 63.8282 302.546 88.5129H304.162C323.841 88.5129 342.715 96.3306 356.63 110.246C370.546 124.162 378.363 143.035 378.363 162.715C378.363 182.394 370.546 201.268 356.63 215.183C342.715 229.099 323.841 236.917 304.162 236.917H90.8386C71.159 236.917 52.2855 229.099 38.3699 215.183C24.4544 201.268 16.6367 182.394 16.6367 162.715C16.6367 143.035 24.4544 124.162 38.3699 110.246C52.2855 96.3306 71.159 88.5129 90.8386 88.5129H92.4547C96.8257 63.8282 109.749 41.4706 128.957 25.3618C148.165 9.25302 172.431 0.421621 197.5 0.416687V0.416687Z" fill="#FEE100"/>
</svg>
