<svg width="473" height="473" viewBox="0 0 473 473" fill="none" xmlns="http://www.w3.org/2000/svg">
    <path d="M78.8334 354.75C89.2874 354.75 99.3132 358.903 106.705 366.295C114.097 373.687 118.25 383.713 118.25 394.167C118.25 404.621 114.097 414.646 106.705 422.038C99.3132 429.431 89.2874 433.583 78.8334 433.583C68.3795 433.583 58.3537 429.431 50.9616 422.038C43.5696 414.646 39.4167 404.621 39.4167 394.167C39.4167 383.713 43.5696 373.687 50.9616 366.295C58.3537 358.903 68.3795 354.75 78.8334 354.75V354.75ZM187.229 295.625C200.297 295.625 212.829 300.816 222.069 310.056C231.309 319.296 236.5 331.828 236.5 344.896C236.5 357.963 231.309 370.496 222.069 379.736C212.829 388.976 200.297 394.167 187.229 394.167C174.162 394.167 161.63 388.976 152.39 379.736C143.149 370.496 137.958 357.963 137.958 344.896C137.958 331.828 143.149 319.296 152.39 310.056C161.63 300.816 174.162 295.625 187.229 295.625V295.625ZM236.5 39.4167C261.569 39.4216 285.835 48.253 305.044 64.3618C324.252 80.4706 337.174 102.828 341.546 127.513H343.162C362.841 127.513 381.715 135.331 395.63 149.246C409.546 163.162 417.363 182.035 417.363 201.715C417.363 221.394 409.546 240.268 395.63 254.183C381.715 268.099 362.841 275.917 343.162 275.917H129.839C110.159 275.917 91.2855 268.099 77.3699 254.183C63.4544 240.268 55.6367 221.394 55.6367 201.715C55.6367 182.035 63.4544 163.162 77.3699 149.246C91.2855 135.331 110.159 127.513 129.839 127.513H131.455C135.826 102.828 148.749 80.4706 167.957 64.3618C187.165 48.253 211.431 39.4216 236.5 39.4167V39.4167Z" fill="#FEE100"/>
    <path d="M99.3359 182.234C99.1641 181.203 98.8438 180.391 98.375 179.797C97.9062 179.188 97.4297 178.75 96.9453 178.484C96.5547 178.266 96.1641 178.102 95.7734 177.992C95.3984 177.883 95.0703 177.781 94.7891 177.688C94.4922 177.578 94.2734 177.461 94.1328 177.336C93.9922 177.211 93.9219 177.039 93.9219 176.82C93.9219 176.367 94.2266 176.141 94.8359 176.141C95.1172 176.141 95.3906 176.172 95.6562 176.234C95.9219 176.297 96.2422 176.367 96.6172 176.445C96.9922 176.523 97.4375 176.617 97.9531 176.727C98.4688 176.82 99.1094 176.898 99.875 176.961C100.578 177.023 101.172 177.062 101.656 177.078C102.141 177.078 102.547 177.086 102.875 177.102C103.219 177.102 103.508 177.117 103.742 177.148C103.977 177.164 104.188 177.211 104.375 177.289C104.656 177.414 105.023 177.719 105.477 178.203C105.945 178.688 106.461 179.281 107.023 179.984C107.602 180.688 108.211 181.469 108.852 182.328C109.492 183.188 110.125 184.062 110.75 184.953C111.391 185.828 112.008 186.68 112.602 187.508C113.211 188.336 113.758 189.07 114.242 189.711C114.742 190.352 115.164 190.867 115.508 191.258C115.867 191.648 116.109 191.844 116.234 191.844C116.5 191.844 117.016 191.125 117.781 189.688C118.562 188.234 119.664 186.07 121.086 183.195C121.477 182.398 121.875 181.555 122.281 180.664C122.703 179.758 123.109 178.867 123.5 177.992C123.906 177.102 124.289 176.25 124.648 175.438C125.008 174.625 125.336 173.906 125.633 173.281C125.945 172.656 126.219 172.156 126.453 171.781C126.688 171.391 126.867 171.18 126.992 171.148C127.07 171.117 127.148 171.102 127.227 171.102C127.32 171.102 127.422 171.102 127.531 171.102C127.812 171.102 128.203 171.109 128.703 171.125C129.203 171.141 129.852 171.148 130.648 171.148C131.133 171.148 131.57 171.133 131.961 171.102C132.352 171.055 132.695 171.008 132.992 170.961C133.305 170.914 133.586 170.875 133.836 170.844C134.086 170.797 134.32 170.773 134.539 170.773C134.867 170.773 135.078 170.82 135.172 170.914C135.281 171.008 135.336 171.117 135.336 171.242C135.336 171.523 135.102 171.734 134.633 171.875C134.18 172.016 133.539 172.164 132.711 172.32C131.898 172.461 130.984 172.711 129.969 173.07C129.344 173.289 128.906 173.688 128.656 174.266C128.406 174.828 128.281 175.531 128.281 176.375C128.281 176.984 128.328 177.766 128.422 178.719C128.531 179.656 128.672 180.703 128.844 181.859C129.031 183 129.25 184.219 129.5 185.516C129.75 186.797 130.016 188.094 130.297 189.406C130.594 190.703 130.898 191.969 131.211 193.203C131.539 194.438 131.867 195.578 132.195 196.625C132.523 197.672 132.844 198.594 133.156 199.391C133.484 200.172 133.797 200.758 134.094 201.148C134.375 201.523 134.656 201.844 134.938 202.109C135.234 202.375 135.555 202.602 135.898 202.789C136.258 202.977 136.641 203.141 137.047 203.281C137.469 203.422 137.938 203.562 138.453 203.703C138.953 203.828 139.297 203.961 139.484 204.102C139.672 204.242 139.766 204.414 139.766 204.617C139.766 204.836 139.633 205.016 139.367 205.156C139.117 205.297 138.719 205.367 138.172 205.367C137.516 205.367 136.828 205.344 136.109 205.297C135.406 205.25 134.625 205.227 133.766 205.227C132.375 205.227 131.102 205.328 129.945 205.531C128.805 205.734 127.758 205.961 126.805 206.211C125.867 206.461 125.016 206.688 124.25 206.891C123.484 207.094 122.781 207.195 122.141 207.195C121.969 207.195 121.797 207.164 121.625 207.102C121.453 207.039 121.367 206.898 121.367 206.68C121.367 206.445 121.508 206.25 121.789 206.094C122.07 205.953 122.43 205.82 122.867 205.695C123.32 205.555 123.82 205.414 124.367 205.273C124.914 205.133 125.453 204.945 125.984 204.711C126.531 204.461 126.922 204.141 127.156 203.75C127.406 203.344 127.531 202.828 127.531 202.203C127.531 201.844 127.469 201.281 127.344 200.516C127.234 199.75 127.086 198.859 126.898 197.844C126.711 196.828 126.492 195.734 126.242 194.562C126.008 193.391 125.758 192.219 125.492 191.047C125.242 189.875 124.984 188.75 124.719 187.672C124.469 186.578 124.242 185.617 124.039 184.789C123.836 183.961 123.656 183.297 123.5 182.797C123.359 182.297 123.273 182.047 123.242 182.047C123.195 182.047 123.047 182.258 122.797 182.68C122.562 183.102 122.266 183.664 121.906 184.367C121.547 185.07 121.141 185.875 120.688 186.781C120.234 187.688 119.773 188.617 119.305 189.57C118.852 190.523 118.398 191.469 117.945 192.406C117.492 193.344 117.078 194.203 116.703 194.984C116.328 195.75 116.016 196.398 115.766 196.93C115.516 197.445 115.352 197.766 115.273 197.891C115.117 198.188 114.953 198.5 114.781 198.828C114.609 199.156 114.43 199.461 114.242 199.742C114.07 200.008 113.906 200.234 113.75 200.422C113.594 200.594 113.461 200.68 113.352 200.68C113.258 200.68 113.133 200.609 112.977 200.469C112.836 200.312 112.688 200.125 112.531 199.906C112.375 199.688 112.211 199.453 112.039 199.203C111.883 198.953 111.75 198.727 111.641 198.523C111.234 197.82 110.758 196.992 110.211 196.039C109.664 195.07 109.086 194.062 108.477 193.016C107.883 191.953 107.289 190.891 106.695 189.828C106.117 188.766 105.57 187.789 105.055 186.898C104.555 185.992 104.125 185.219 103.766 184.578C103.406 183.922 103.164 183.477 103.039 183.242C102.773 182.773 102.547 182.383 102.359 182.07C102.172 181.742 102.008 181.484 101.867 181.297C101.742 181.109 101.633 180.977 101.539 180.898C101.445 180.805 101.352 180.758 101.258 180.758C101.133 180.758 101.07 180.883 101.07 181.133C101.07 181.383 101.094 181.727 101.141 182.164C101.188 182.586 101.227 182.961 101.258 183.289C101.414 184.805 101.516 186.227 101.562 187.555C101.625 188.867 101.656 190.133 101.656 191.352C101.656 192.445 101.594 193.633 101.469 194.914C101.344 196.18 101.133 197.453 100.836 198.734C100.539 200 100.133 201.219 99.6172 202.391C99.1172 203.562 98.4766 204.602 97.6953 205.508C96.9141 206.414 95.9844 207.133 94.9062 207.664C93.8438 208.211 92.6016 208.484 91.1797 208.484C90.3516 208.484 89.6172 208.352 88.9766 208.086C88.3359 207.82 87.7891 207.461 87.3359 207.008C86.8984 206.57 86.5625 206.07 86.3281 205.508C86.1094 204.93 86 204.328 86 203.703C86 203.266 86.0547 202.828 86.1641 202.391C86.2891 201.953 86.4844 201.57 86.75 201.242C87.0156 200.898 87.3516 200.625 87.7578 200.422C88.1641 200.203 88.6641 200.094 89.2578 200.094C89.7266 200.094 90.1406 200.18 90.5 200.352C90.875 200.508 91.2031 200.711 91.4844 200.961C91.7812 201.195 92.0469 201.461 92.2812 201.758C92.5156 202.055 92.7266 202.336 92.9141 202.602C93.5703 203.492 94.2891 203.938 95.0703 203.938C95.7578 203.938 96.3516 203.727 96.8516 203.305C97.3516 202.883 97.7812 202.32 98.1406 201.617C98.5156 200.898 98.8203 200.078 99.0547 199.156C99.2891 198.234 99.4688 197.273 99.5938 196.273C99.7344 195.273 99.8281 194.273 99.875 193.273C99.9375 192.258 99.9688 191.312 99.9688 190.438C99.9688 188.891 99.9062 187.414 99.7812 186.008C99.6562 184.602 99.5078 183.344 99.3359 182.234ZM157.508 193.578C157.727 193.938 157.922 194.422 158.094 195.031C158.281 195.641 158.375 196.258 158.375 196.883C158.375 198.023 158.188 199.047 157.812 199.953C157.438 200.844 156.898 201.602 156.195 202.227C155.492 202.836 154.641 203.305 153.641 203.633C152.656 203.961 151.547 204.125 150.312 204.125C148.531 204.125 146.938 203.828 145.531 203.234C144.141 202.625 142.969 201.781 142.016 200.703C141.062 199.625 140.336 198.344 139.836 196.859C139.336 195.359 139.086 193.719 139.086 191.938C139.086 190.328 139.258 188.867 139.602 187.555C139.945 186.242 140.414 185.07 141.008 184.039C141.602 183.008 142.289 182.109 143.07 181.344C143.852 180.578 144.68 179.945 145.555 179.445C146.43 178.945 147.32 178.578 148.227 178.344C149.133 178.094 150.008 177.969 150.852 177.969C151.68 177.969 152.539 178.078 153.43 178.297C154.32 178.516 155.133 178.891 155.867 179.422C156.617 179.953 157.227 180.656 157.695 181.531C158.18 182.391 158.422 183.477 158.422 184.789C158.422 185.93 158.25 186.93 157.906 187.789C157.578 188.648 157.141 189.391 156.594 190.016C156.047 190.641 155.422 191.156 154.719 191.562C154.031 191.969 153.32 192.297 152.586 192.547C151.867 192.781 151.156 192.945 150.453 193.039C149.766 193.133 149.156 193.18 148.625 193.18C147.859 193.18 147.109 193.125 146.375 193.016C145.656 192.906 145.094 192.789 144.688 192.664C144.75 193.883 144.938 195.062 145.25 196.203C145.578 197.328 146.039 198.32 146.633 199.18C147.227 200.039 147.961 200.727 148.836 201.242C149.727 201.758 150.766 202.016 151.953 202.016C152.781 202.016 153.492 201.875 154.086 201.594C154.695 201.312 155.195 200.938 155.586 200.469C155.977 199.984 156.266 199.43 156.453 198.805C156.641 198.18 156.734 197.523 156.734 196.836C156.734 196.43 156.703 196.008 156.641 195.57C156.594 195.133 156.5 194.719 156.359 194.328C156.266 194.094 156.188 193.875 156.125 193.672C156.062 193.469 156.031 193.305 156.031 193.18C156.031 192.867 156.172 192.711 156.453 192.711C156.594 192.711 156.758 192.781 156.945 192.922C157.148 193.062 157.336 193.281 157.508 193.578ZM144.594 191.117C145 191.242 145.461 191.352 145.977 191.445C146.492 191.523 147.141 191.562 147.922 191.562C148.828 191.562 149.664 191.391 150.43 191.047C151.195 190.703 151.852 190.227 152.398 189.617C152.945 188.992 153.375 188.242 153.688 187.367C154 186.492 154.156 185.516 154.156 184.438C154.156 183.484 154.047 182.688 153.828 182.047C153.625 181.391 153.352 180.867 153.008 180.477C152.664 180.086 152.266 179.812 151.812 179.656C151.375 179.484 150.922 179.398 150.453 179.398C149.859 179.398 149.219 179.578 148.531 179.938C147.844 180.297 147.203 180.922 146.609 181.812C146.031 182.703 145.547 183.906 145.156 185.422C144.781 186.922 144.594 188.82 144.594 191.117ZM160.18 191.609C160.18 189.859 160.453 188.281 161 186.875C161.547 185.453 162.32 184.242 163.32 183.242C164.32 182.242 165.523 181.477 166.93 180.945C168.352 180.398 169.922 180.125 171.641 180.125C173.188 180.125 174.609 180.383 175.906 180.898C177.219 181.414 178.352 182.156 179.305 183.125C180.258 184.078 181 185.242 181.531 186.617C182.078 187.977 182.352 189.508 182.352 191.211C182.352 193.227 182.016 194.953 181.344 196.391C180.688 197.828 179.836 199.008 178.789 199.93C177.758 200.852 176.602 201.531 175.32 201.969C174.039 202.391 172.781 202.602 171.547 202.602C170.062 202.602 168.633 202.359 167.258 201.875C165.898 201.375 164.695 200.656 163.648 199.719C162.602 198.781 161.758 197.633 161.117 196.273C160.492 194.898 160.18 193.344 160.18 191.609ZM171.312 181.039C170.422 181.039 169.648 181.266 168.992 181.719C168.352 182.156 167.82 182.758 167.398 183.523C166.977 184.273 166.664 185.156 166.461 186.172C166.273 187.172 166.18 188.227 166.18 189.336C166.18 190.258 166.234 191.188 166.344 192.125C166.453 193.062 166.617 193.969 166.836 194.844C167.07 195.703 167.352 196.516 167.68 197.281C168.023 198.031 168.43 198.688 168.898 199.25C169.367 199.812 169.898 200.258 170.492 200.586C171.102 200.898 171.773 201.055 172.508 201.055C173.461 201.055 174.258 200.844 174.898 200.422C175.555 199.984 176.078 199.422 176.469 198.734C176.859 198.031 177.133 197.25 177.289 196.391C177.461 195.516 177.547 194.641 177.547 193.766C177.547 191.609 177.391 189.734 177.078 188.141C176.766 186.547 176.328 185.227 175.766 184.18C175.203 183.117 174.539 182.328 173.773 181.812C173.023 181.297 172.203 181.039 171.312 181.039ZM196.32 182.773C196.32 182.898 196.25 183.023 196.109 183.148C195.984 183.258 195.828 183.367 195.641 183.477C195.469 183.586 195.281 183.703 195.078 183.828C194.891 183.938 194.727 184.047 194.586 184.156C194.32 184.406 194.141 184.68 194.047 184.977C193.969 185.273 193.93 185.578 193.93 185.891C193.93 186.25 194.008 186.812 194.164 187.578C194.32 188.344 194.523 189.195 194.773 190.133C195.023 191.055 195.289 192.008 195.57 192.992C195.867 193.977 196.148 194.875 196.414 195.688C196.68 196.5 196.914 197.164 197.117 197.68C197.32 198.195 197.453 198.453 197.516 198.453C197.594 198.453 197.742 198.211 197.961 197.727C198.18 197.242 198.445 196.617 198.758 195.852C199.07 195.086 199.406 194.227 199.766 193.273C200.141 192.305 200.508 191.344 200.867 190.391C201.242 189.438 201.602 188.539 201.945 187.695C202.289 186.852 202.586 186.156 202.836 185.609C202.945 185.391 203.055 185.219 203.164 185.094C203.273 184.953 203.391 184.883 203.516 184.883C203.656 184.883 203.781 184.953 203.891 185.094C204 185.219 204.117 185.391 204.242 185.609C204.508 186.109 204.82 186.719 205.18 187.438C205.555 188.141 205.945 188.883 206.352 189.664C206.758 190.445 207.164 191.227 207.57 192.008C207.977 192.773 208.352 193.469 208.695 194.094C209.039 194.703 209.328 195.203 209.562 195.594C209.812 195.969 209.977 196.156 210.055 196.156C210.117 196.156 210.227 195.922 210.383 195.453C210.555 194.969 210.734 194.359 210.922 193.625C211.109 192.891 211.305 192.078 211.508 191.188C211.727 190.297 211.922 189.445 212.094 188.633C212.266 187.82 212.406 187.102 212.516 186.477C212.625 185.836 212.68 185.398 212.68 185.164C212.68 184.883 212.625 184.68 212.516 184.555C212.422 184.414 212.242 184.344 211.977 184.344C211.758 184.344 211.5 184.367 211.203 184.414C210.906 184.461 210.602 184.484 210.289 184.484C210.102 184.484 209.961 184.445 209.867 184.367C209.789 184.289 209.75 184.203 209.75 184.109C209.75 183.984 209.781 183.891 209.844 183.828C209.922 183.766 210.008 183.719 210.102 183.688C210.367 183.609 210.836 183.562 211.508 183.547C212.195 183.516 213.07 183.398 214.133 183.195C215.242 183.008 216.148 182.797 216.852 182.562C217.555 182.312 218.102 182.188 218.492 182.188C218.852 182.188 219.031 182.32 219.031 182.586C219.031 182.805 218.898 182.961 218.633 183.055C218.398 183.148 218.094 183.25 217.719 183.359C217.359 183.453 216.961 183.578 216.523 183.734C216.195 183.844 215.914 183.969 215.68 184.109C215.461 184.25 215.266 184.422 215.094 184.625C214.938 184.812 214.797 185.047 214.672 185.328C214.547 185.609 214.43 185.938 214.32 186.312C214.211 186.656 214.07 187.156 213.898 187.812C213.727 188.469 213.531 189.219 213.312 190.062C213.094 190.906 212.852 191.812 212.586 192.781C212.32 193.734 212.047 194.695 211.766 195.664C211.5 196.617 211.227 197.539 210.945 198.43C210.664 199.305 210.383 200.078 210.102 200.75C209.836 201.422 209.578 201.961 209.328 202.367C209.094 202.773 208.883 202.977 208.695 202.977C208.492 202.977 208.234 202.82 207.922 202.508C207.609 202.18 207.266 201.758 206.891 201.242C206.531 200.727 206.141 200.141 205.719 199.484C205.312 198.812 204.914 198.133 204.523 197.445C203.586 195.82 202.594 193.969 201.547 191.891C201.516 192 201.414 192.281 201.242 192.734C201.086 193.172 200.891 193.703 200.656 194.328C200.438 194.938 200.195 195.602 199.93 196.32C199.664 197.023 199.406 197.695 199.156 198.336C198.922 198.977 198.703 199.547 198.5 200.047C198.312 200.547 198.18 200.898 198.102 201.102C197.852 201.758 197.578 202.438 197.281 203.141C197 203.828 196.719 204.469 196.438 205.062C196.156 205.641 195.898 206.117 195.664 206.492C195.43 206.867 195.234 207.055 195.078 207.055C194.922 207.055 194.711 206.828 194.445 206.375C194.18 205.922 193.883 205.32 193.555 204.57C193.227 203.82 192.875 202.961 192.5 201.992C192.141 201.008 191.773 199.992 191.398 198.945C191.023 197.883 190.656 196.836 190.297 195.805C189.938 194.758 189.609 193.789 189.312 192.898C189.016 192.008 188.75 191.234 188.516 190.578C188.297 189.922 188.133 189.461 188.023 189.195C187.82 188.711 187.57 188.383 187.273 188.211C186.977 188.039 186.648 187.953 186.289 187.953C185.898 187.953 185.523 188 185.164 188.094C184.82 188.188 184.508 188.234 184.227 188.234C184.086 188.234 183.945 188.195 183.805 188.117C183.664 188.039 183.594 187.906 183.594 187.719C183.594 187.453 183.695 187.266 183.898 187.156C184.102 187.047 184.367 186.945 184.695 186.852C184.977 186.789 185.336 186.703 185.773 186.594C186.227 186.484 186.719 186.359 187.25 186.219C187.781 186.062 188.328 185.891 188.891 185.703C189.469 185.516 190.008 185.305 190.508 185.07C191.305 184.711 192 184.367 192.594 184.039C193.188 183.711 193.695 183.422 194.117 183.172C194.539 182.906 194.891 182.703 195.172 182.562C195.469 182.406 195.711 182.328 195.898 182.328C196.023 182.328 196.125 182.367 196.203 182.445C196.281 182.508 196.32 182.617 196.32 182.773ZM247.766 164.141C248.766 164.141 249.625 164.281 250.344 164.562C251.062 164.844 251.656 165.227 252.125 165.711C252.594 166.195 252.938 166.75 253.156 167.375C253.391 168 253.508 168.648 253.508 169.32C253.508 170.648 253.234 171.914 252.688 173.117C252.141 174.32 251.438 175.5 250.578 176.656C249.719 177.812 248.766 178.961 247.719 180.102C246.688 181.242 245.68 182.422 244.695 183.641C245.32 184.953 245.977 186.211 246.664 187.414C247.352 188.602 248.008 189.68 248.633 190.648C249.273 191.617 249.852 192.461 250.367 193.18C250.898 193.898 251.305 194.445 251.586 194.82C251.82 195.133 252.117 195.5 252.477 195.922C252.836 196.344 253.242 196.805 253.695 197.305C254.148 197.789 254.641 198.297 255.172 198.828C255.719 199.344 256.273 199.859 256.836 200.375C257.508 199.609 258.094 198.797 258.594 197.938C259.094 197.062 259.508 196.188 259.836 195.312C260.164 194.438 260.406 193.578 260.562 192.734C260.734 191.875 260.82 191.078 260.82 190.344C260.82 188.812 260.594 187.727 260.141 187.086C259.688 186.445 259.109 186.125 258.406 186.125C257.906 186.125 257.312 186.203 256.625 186.359C255.938 186.5 255.234 186.656 254.516 186.828C253.812 187 253.141 187.164 252.5 187.32C251.859 187.461 251.336 187.531 250.93 187.531C250.68 187.531 250.477 187.492 250.32 187.414C250.18 187.336 250.109 187.211 250.109 187.039C250.109 186.836 250.25 186.688 250.531 186.594C250.828 186.484 251.266 186.359 251.844 186.219C252.422 186.062 253.141 185.844 254 185.562C254.875 185.281 255.898 184.859 257.07 184.297C258.039 183.828 258.859 183.336 259.531 182.82C260.203 182.289 260.766 181.805 261.219 181.367C261.672 180.914 262.039 180.539 262.32 180.242C262.602 179.945 262.836 179.797 263.023 179.797C263.195 179.797 263.344 179.906 263.469 180.125C263.609 180.344 263.727 180.641 263.82 181.016C263.914 181.375 263.984 181.805 264.031 182.305C264.094 182.789 264.125 183.297 264.125 183.828C264.125 185.453 264 187.078 263.75 188.703C263.5 190.328 263.125 191.906 262.625 193.438C262.125 194.953 261.492 196.398 260.727 197.773C259.977 199.133 259.094 200.367 258.078 201.477C258.609 201.93 259.133 202.352 259.648 202.742C260.18 203.117 260.695 203.445 261.195 203.727C261.695 204.008 262.172 204.227 262.625 204.383C263.094 204.539 263.531 204.617 263.938 204.617C264.281 204.617 264.602 204.516 264.898 204.312C265.211 204.094 265.5 203.82 265.766 203.492C266.031 203.164 266.273 202.82 266.492 202.461C266.727 202.086 266.938 201.734 267.125 201.406C267.312 201.078 267.484 200.812 267.641 200.609C267.797 200.391 267.938 200.281 268.062 200.281C268.219 200.281 268.297 200.414 268.297 200.68C268.297 200.914 268.188 201.328 267.969 201.922C267.766 202.516 267.492 203.188 267.148 203.938C266.82 204.672 266.438 205.438 266 206.234C265.562 207.047 265.117 207.789 264.664 208.461C264.227 209.133 263.797 209.68 263.375 210.102C262.969 210.539 262.609 210.758 262.297 210.758C262.016 210.758 261.617 210.648 261.102 210.43C260.586 210.227 259.969 209.891 259.25 209.422C258.531 208.953 257.719 208.336 256.812 207.57C255.922 206.805 254.953 205.867 253.906 204.758C252.797 205.352 251.594 205.82 250.297 206.164C249.016 206.508 247.625 206.68 246.125 206.68C244.297 206.68 242.617 206.438 241.086 205.953C239.57 205.469 238.266 204.75 237.172 203.797C236.078 202.844 235.227 201.656 234.617 200.234C234.008 198.812 233.703 197.164 233.703 195.289C233.703 194.023 233.867 192.82 234.195 191.68C234.523 190.539 234.969 189.445 235.531 188.398C236.094 187.352 236.75 186.344 237.5 185.375C238.266 184.406 239.078 183.477 239.938 182.586C239.078 179.82 238.648 177.031 238.648 174.219C238.648 172.609 238.875 171.18 239.328 169.93C239.797 168.664 240.438 167.609 241.25 166.766C242.062 165.906 243.023 165.258 244.133 164.82C245.258 164.367 246.469 164.141 247.766 164.141ZM249.148 199.18C246.086 195.164 243.672 191.281 241.906 187.531C241.281 188.641 240.781 189.789 240.406 190.977C240.031 192.148 239.844 193.398 239.844 194.727C239.844 196.133 240.023 197.453 240.383 198.688C240.758 199.906 241.297 200.969 242 201.875C242.719 202.766 243.594 203.469 244.625 203.984C245.656 204.5 246.828 204.758 248.141 204.758C249.016 204.758 249.844 204.656 250.625 204.453C251.406 204.25 252.148 203.984 252.852 203.656C252.305 203 251.703 202.312 251.047 201.594C250.406 200.859 249.773 200.055 249.148 199.18ZM241.625 172.109C241.625 173.344 241.742 174.578 241.977 175.812C242.227 177.047 242.57 178.297 243.008 179.562C244.008 178.609 244.961 177.664 245.867 176.727C246.773 175.773 247.562 174.836 248.234 173.914C248.906 172.977 249.438 172.047 249.828 171.125C250.234 170.188 250.438 169.25 250.438 168.312C250.438 167.328 250.164 166.523 249.617 165.898C249.07 165.273 248.258 164.961 247.18 164.961C246.492 164.961 245.812 165.094 245.141 165.359C244.484 165.609 243.891 166.016 243.359 166.578C242.844 167.141 242.422 167.875 242.094 168.781C241.781 169.688 241.625 170.797 241.625 172.109ZM295.227 182.773C295.227 182.898 295.156 183.023 295.016 183.148C294.891 183.258 294.734 183.367 294.547 183.477C294.375 183.586 294.188 183.703 293.984 183.828C293.797 183.938 293.633 184.047 293.492 184.156C293.227 184.406 293.047 184.68 292.953 184.977C292.875 185.273 292.836 185.578 292.836 185.891C292.836 186.25 292.914 186.812 293.07 187.578C293.227 188.344 293.43 189.195 293.68 190.133C293.93 191.055 294.195 192.008 294.477 192.992C294.773 193.977 295.055 194.875 295.32 195.688C295.586 196.5 295.82 197.164 296.023 197.68C296.227 198.195 296.359 198.453 296.422 198.453C296.5 198.453 296.648 198.211 296.867 197.727C297.086 197.242 297.352 196.617 297.664 195.852C297.977 195.086 298.312 194.227 298.672 193.273C299.047 192.305 299.414 191.344 299.773 190.391C300.148 189.438 300.508 188.539 300.852 187.695C301.195 186.852 301.492 186.156 301.742 185.609C301.852 185.391 301.961 185.219 302.07 185.094C302.18 184.953 302.297 184.883 302.422 184.883C302.562 184.883 302.688 184.953 302.797 185.094C302.906 185.219 303.023 185.391 303.148 185.609C303.414 186.109 303.727 186.719 304.086 187.438C304.461 188.141 304.852 188.883 305.258 189.664C305.664 190.445 306.07 191.227 306.477 192.008C306.883 192.773 307.258 193.469 307.602 194.094C307.945 194.703 308.234 195.203 308.469 195.594C308.719 195.969 308.883 196.156 308.961 196.156C309.023 196.156 309.133 195.922 309.289 195.453C309.461 194.969 309.641 194.359 309.828 193.625C310.016 192.891 310.211 192.078 310.414 191.188C310.633 190.297 310.828 189.445 311 188.633C311.172 187.82 311.312 187.102 311.422 186.477C311.531 185.836 311.586 185.398 311.586 185.164C311.586 184.883 311.531 184.68 311.422 184.555C311.328 184.414 311.148 184.344 310.883 184.344C310.664 184.344 310.406 184.367 310.109 184.414C309.812 184.461 309.508 184.484 309.195 184.484C309.008 184.484 308.867 184.445 308.773 184.367C308.695 184.289 308.656 184.203 308.656 184.109C308.656 183.984 308.688 183.891 308.75 183.828C308.828 183.766 308.914 183.719 309.008 183.688C309.273 183.609 309.742 183.562 310.414 183.547C311.102 183.516 311.977 183.398 313.039 183.195C314.148 183.008 315.055 182.797 315.758 182.562C316.461 182.312 317.008 182.188 317.398 182.188C317.758 182.188 317.938 182.32 317.938 182.586C317.938 182.805 317.805 182.961 317.539 183.055C317.305 183.148 317 183.25 316.625 183.359C316.266 183.453 315.867 183.578 315.43 183.734C315.102 183.844 314.82 183.969 314.586 184.109C314.367 184.25 314.172 184.422 314 184.625C313.844 184.812 313.703 185.047 313.578 185.328C313.453 185.609 313.336 185.938 313.227 186.312C313.117 186.656 312.977 187.156 312.805 187.812C312.633 188.469 312.438 189.219 312.219 190.062C312 190.906 311.758 191.812 311.492 192.781C311.227 193.734 310.953 194.695 310.672 195.664C310.406 196.617 310.133 197.539 309.852 198.43C309.57 199.305 309.289 200.078 309.008 200.75C308.742 201.422 308.484 201.961 308.234 202.367C308 202.773 307.789 202.977 307.602 202.977C307.398 202.977 307.141 202.82 306.828 202.508C306.516 202.18 306.172 201.758 305.797 201.242C305.438 200.727 305.047 200.141 304.625 199.484C304.219 198.812 303.82 198.133 303.43 197.445C302.492 195.82 301.5 193.969 300.453 191.891C300.422 192 300.32 192.281 300.148 192.734C299.992 193.172 299.797 193.703 299.562 194.328C299.344 194.938 299.102 195.602 298.836 196.32C298.57 197.023 298.312 197.695 298.062 198.336C297.828 198.977 297.609 199.547 297.406 200.047C297.219 200.547 297.086 200.898 297.008 201.102C296.758 201.758 296.484 202.438 296.188 203.141C295.906 203.828 295.625 204.469 295.344 205.062C295.062 205.641 294.805 206.117 294.57 206.492C294.336 206.867 294.141 207.055 293.984 207.055C293.828 207.055 293.617 206.828 293.352 206.375C293.086 205.922 292.789 205.32 292.461 204.57C292.133 203.82 291.781 202.961 291.406 201.992C291.047 201.008 290.68 199.992 290.305 198.945C289.93 197.883 289.562 196.836 289.203 195.805C288.844 194.758 288.516 193.789 288.219 192.898C287.922 192.008 287.656 191.234 287.422 190.578C287.203 189.922 287.039 189.461 286.93 189.195C286.727 188.711 286.477 188.383 286.18 188.211C285.883 188.039 285.555 187.953 285.195 187.953C284.805 187.953 284.43 188 284.07 188.094C283.727 188.188 283.414 188.234 283.133 188.234C282.992 188.234 282.852 188.195 282.711 188.117C282.57 188.039 282.5 187.906 282.5 187.719C282.5 187.453 282.602 187.266 282.805 187.156C283.008 187.047 283.273 186.945 283.602 186.852C283.883 186.789 284.242 186.703 284.68 186.594C285.133 186.484 285.625 186.359 286.156 186.219C286.688 186.062 287.234 185.891 287.797 185.703C288.375 185.516 288.914 185.305 289.414 185.07C290.211 184.711 290.906 184.367 291.5 184.039C292.094 183.711 292.602 183.422 293.023 183.172C293.445 182.906 293.797 182.703 294.078 182.562C294.375 182.406 294.617 182.328 294.805 182.328C294.93 182.328 295.031 182.367 295.109 182.445C295.188 182.508 295.227 182.617 295.227 182.773ZM318.055 191.609C318.055 189.859 318.328 188.281 318.875 186.875C319.422 185.453 320.195 184.242 321.195 183.242C322.195 182.242 323.398 181.477 324.805 180.945C326.227 180.398 327.797 180.125 329.516 180.125C331.062 180.125 332.484 180.383 333.781 180.898C335.094 181.414 336.227 182.156 337.18 183.125C338.133 184.078 338.875 185.242 339.406 186.617C339.953 187.977 340.227 189.508 340.227 191.211C340.227 193.227 339.891 194.953 339.219 196.391C338.562 197.828 337.711 199.008 336.664 199.93C335.633 200.852 334.477 201.531 333.195 201.969C331.914 202.391 330.656 202.602 329.422 202.602C327.938 202.602 326.508 202.359 325.133 201.875C323.773 201.375 322.57 200.656 321.523 199.719C320.477 198.781 319.633 197.633 318.992 196.273C318.367 194.898 318.055 193.344 318.055 191.609ZM329.188 181.039C328.297 181.039 327.523 181.266 326.867 181.719C326.227 182.156 325.695 182.758 325.273 183.523C324.852 184.273 324.539 185.156 324.336 186.172C324.148 187.172 324.055 188.227 324.055 189.336C324.055 190.258 324.109 191.188 324.219 192.125C324.328 193.062 324.492 193.969 324.711 194.844C324.945 195.703 325.227 196.516 325.555 197.281C325.898 198.031 326.305 198.688 326.773 199.25C327.242 199.812 327.773 200.258 328.367 200.586C328.977 200.898 329.648 201.055 330.383 201.055C331.336 201.055 332.133 200.844 332.773 200.422C333.43 199.984 333.953 199.422 334.344 198.734C334.734 198.031 335.008 197.25 335.164 196.391C335.336 195.516 335.422 194.641 335.422 193.766C335.422 191.609 335.266 189.734 334.953 188.141C334.641 186.547 334.203 185.227 333.641 184.18C333.078 183.117 332.414 182.328 331.648 181.812C330.898 181.297 330.078 181.039 329.188 181.039ZM351.266 169.859C351.844 169.609 352.445 169.391 353.07 169.203C353.711 169.016 354.344 168.867 354.969 168.758C355.609 168.633 356.227 168.547 356.82 168.5C357.43 168.438 357.992 168.406 358.508 168.406C360.32 168.406 362 168.633 363.547 169.086C365.094 169.539 366.492 170.172 367.742 170.984C368.992 171.781 370.094 172.734 371.047 173.844C372.016 174.938 372.82 176.141 373.461 177.453C374.117 178.766 374.609 180.156 374.938 181.625C375.281 183.094 375.453 184.594 375.453 186.125C375.453 188.516 375.07 190.742 374.305 192.805C373.555 194.852 372.469 196.633 371.047 198.148C369.641 199.648 367.922 200.828 365.891 201.688C363.875 202.547 361.609 202.977 359.094 202.977C357.703 202.977 356.305 202.828 354.898 202.531C353.508 202.219 352.172 201.742 350.891 201.102C349.609 200.461 348.414 199.656 347.305 198.688C346.195 197.719 345.227 196.57 344.398 195.242C343.586 193.898 342.945 192.383 342.477 190.695C342.008 188.992 341.773 187.102 341.773 185.023C341.773 183.43 341.977 181.875 342.383 180.359C342.805 178.828 343.414 177.398 344.211 176.07C345.023 174.742 346.016 173.547 347.188 172.484C348.375 171.406 349.734 170.531 351.266 169.859ZM357.688 169.859C355.906 169.859 354.352 170.242 353.023 171.008C351.711 171.773 350.617 172.805 349.742 174.102C348.867 175.383 348.211 176.875 347.773 178.578C347.352 180.266 347.141 182.047 347.141 183.922C347.141 186.516 347.43 188.883 348.008 191.023C348.586 193.148 349.422 194.977 350.516 196.508C351.625 198.039 352.977 199.227 354.57 200.07C356.164 200.914 357.977 201.336 360.008 201.336C361.773 201.336 363.273 200.961 364.508 200.211C365.742 199.461 366.75 198.445 367.531 197.164C368.312 195.883 368.875 194.398 369.219 192.711C369.578 191.023 369.758 189.242 369.758 187.367C369.758 181.68 368.758 177.344 366.758 174.359C364.758 171.359 361.734 169.859 357.688 169.859ZM391.859 152C392.734 152 393.578 152.141 394.391 152.422C395.203 152.688 395.922 153.125 396.547 153.734C397.188 154.328 397.695 155.094 398.07 156.031C398.445 156.969 398.633 158.102 398.633 159.43C398.633 160.617 398.484 161.695 398.188 162.664C397.891 163.633 397.477 164.461 396.945 165.148C396.414 165.836 395.781 166.367 395.047 166.742C394.312 167.117 393.508 167.305 392.633 167.305C392.055 167.305 391.539 167.219 391.086 167.047C390.633 166.859 390.25 166.617 389.938 166.32C389.625 166.008 389.383 165.648 389.211 165.242C389.055 164.82 388.977 164.375 388.977 163.906C388.977 163.578 389.016 163.242 389.094 162.898C389.172 162.555 389.32 162.227 389.539 161.914C389.758 161.602 390.055 161.297 390.43 161C390.82 160.703 391.312 160.438 391.906 160.203C393.062 159.75 393.906 159.195 394.438 158.539C394.984 157.883 395.258 157.094 395.258 156.172C395.258 155.859 395.203 155.508 395.094 155.117C394.984 154.727 394.789 154.367 394.508 154.039C394.227 153.695 393.836 153.406 393.336 153.172C392.836 152.938 392.195 152.82 391.414 152.82C390.445 152.82 389.609 153.078 388.906 153.594C388.219 154.094 387.633 154.766 387.148 155.609C386.664 156.438 386.273 157.391 385.977 158.469C385.68 159.531 385.453 160.625 385.297 161.75C385.141 162.859 385.031 163.953 384.969 165.031C384.922 166.094 384.898 167.047 384.898 167.891C384.898 168.5 384.906 169.109 384.922 169.719C384.953 170.312 385.047 170.852 385.203 171.336C385.359 171.805 385.602 172.188 385.93 172.484C386.258 172.781 386.727 172.93 387.336 172.93C387.82 172.93 388.312 172.883 388.812 172.789C389.328 172.695 389.812 172.602 390.266 172.508C390.734 172.398 391.164 172.297 391.555 172.203C391.945 172.109 392.273 172.062 392.539 172.062C392.977 172.062 393.195 172.227 393.195 172.555C393.195 172.773 393.094 172.945 392.891 173.07C392.703 173.195 392.359 173.305 391.859 173.398C391.625 173.445 391.359 173.492 391.062 173.539C390.781 173.57 390.453 173.609 390.078 173.656C389.703 173.703 389.281 173.766 388.812 173.844C388.344 173.922 387.805 174.031 387.195 174.172C386.789 174.266 386.461 174.391 386.211 174.547C385.977 174.688 385.797 174.852 385.672 175.039C385.516 175.289 385.414 175.602 385.367 175.977C385.336 176.336 385.32 176.742 385.32 177.195C385.32 177.32 385.328 177.789 385.344 178.602C385.375 179.414 385.406 180.445 385.438 181.695C385.484 182.945 385.531 184.359 385.578 185.938C385.625 187.516 385.672 189.133 385.719 190.789C385.781 192.445 385.836 194.086 385.883 195.711C385.945 197.32 386 198.789 386.047 200.117C386.094 201.445 386.133 202.578 386.164 203.516C386.211 204.438 386.25 205.039 386.281 205.32C386.359 206.258 386.539 207.031 386.82 207.641C387.117 208.25 387.625 208.664 388.344 208.883C388.594 208.961 388.82 209.016 389.023 209.047C389.242 209.094 389.461 209.125 389.68 209.141C389.914 209.172 390.156 209.203 390.406 209.234C390.672 209.266 390.977 209.305 391.32 209.352C391.727 209.398 392.047 209.477 392.281 209.586C392.516 209.711 392.633 209.891 392.633 210.125C392.633 210.438 392.453 210.664 392.094 210.805C391.734 210.961 391.242 211.039 390.617 211.039C390.258 211.039 389.766 211.031 389.141 211.016C388.531 211 387.883 210.992 387.195 210.992C385.727 211.008 384.43 211.148 383.305 211.414C382.18 211.695 381.188 212 380.328 212.328C379.484 212.656 378.75 212.953 378.125 213.219C377.516 213.5 376.992 213.641 376.555 213.641C376.195 213.641 376.016 213.492 376.016 213.195C376.016 213.008 376.102 212.844 376.273 212.703C376.461 212.578 376.727 212.438 377.07 212.281C377.773 212 378.359 211.703 378.828 211.391C379.297 211.078 379.68 210.711 379.977 210.289C380.273 209.867 380.484 209.352 380.609 208.742C380.75 208.148 380.836 207.414 380.867 206.539C380.898 205.805 380.914 204.898 380.914 203.82C380.914 202.742 380.914 201.547 380.914 200.234C380.914 198.938 380.906 197.562 380.891 196.109C380.891 194.656 380.883 193.195 380.867 191.727C380.867 190.258 380.859 188.805 380.844 187.367C380.828 185.93 380.812 184.578 380.797 183.312C380.781 182.047 380.758 180.906 380.727 179.891C380.711 178.859 380.695 178.008 380.68 177.336C380.664 176.945 380.625 176.625 380.562 176.375C380.5 176.125 380.398 175.93 380.258 175.789C380.117 175.648 379.922 175.555 379.672 175.508C379.438 175.445 379.133 175.414 378.758 175.414C378.43 175.414 378.062 175.43 377.656 175.461C377.25 175.492 376.844 175.531 376.438 175.578C376.047 175.609 375.688 175.641 375.359 175.672C375.016 175.703 374.742 175.719 374.539 175.719C374.273 175.719 374.055 175.68 373.883 175.602C373.711 175.523 373.625 175.383 373.625 175.18C373.625 174.961 373.719 174.812 373.906 174.734C374.094 174.641 374.367 174.57 374.727 174.523C375.305 174.445 375.867 174.383 376.414 174.336C376.977 174.273 377.641 174.172 378.406 174.031C379.062 173.922 379.578 173.703 379.953 173.375C380.328 173.031 380.625 172.625 380.844 172.156C381.062 171.672 381.219 171.141 381.312 170.562C381.406 169.969 381.5 169.352 381.594 168.711C381.781 167.305 382.008 165.922 382.273 164.562C382.539 163.188 382.867 161.883 383.258 160.648C383.664 159.398 384.125 158.25 384.641 157.203C385.172 156.141 385.789 155.227 386.492 154.461C387.195 153.695 387.984 153.094 388.859 152.656C389.75 152.219 390.75 152 391.859 152Z" fill="black"/>
    <path d="M182.816 218.444V219.641H179.432V228.486H178.051V219.641H174.667V218.444H182.816ZM183.903 218.41H185.133V222.156C185.425 221.787 185.687 221.527 185.919 221.377C186.316 221.117 186.81 220.987 187.403 220.987C188.464 220.987 189.184 221.359 189.563 222.102C189.768 222.507 189.87 223.07 189.87 223.79V228.486H188.606V223.872C188.606 223.334 188.537 222.94 188.401 222.69C188.177 222.289 187.758 222.088 187.143 222.088C186.632 222.088 186.17 222.263 185.755 222.614C185.34 222.965 185.133 223.628 185.133 224.604V228.486H183.903V218.41ZM194.744 221.001C195.264 221.001 195.767 221.124 196.255 221.37C196.743 221.612 197.114 221.926 197.369 222.314C197.615 222.683 197.78 223.113 197.862 223.606C197.934 223.943 197.971 224.481 197.971 225.219H192.605C192.628 225.962 192.803 226.559 193.131 227.01C193.459 227.457 193.967 227.68 194.656 227.68C195.298 227.68 195.811 227.468 196.194 227.044C196.412 226.798 196.567 226.513 196.658 226.19H197.868C197.837 226.458 197.729 226.759 197.547 227.092C197.369 227.42 197.169 227.689 196.946 227.899C196.572 228.263 196.109 228.509 195.558 228.637C195.262 228.71 194.927 228.746 194.553 228.746C193.642 228.746 192.869 228.416 192.236 227.755C191.602 227.09 191.285 226.16 191.285 224.966C191.285 223.79 191.604 222.835 192.242 222.102C192.88 221.368 193.714 221.001 194.744 221.001ZM196.706 224.241C196.656 223.708 196.54 223.282 196.358 222.963C196.02 222.371 195.458 222.074 194.669 222.074C194.104 222.074 193.63 222.279 193.247 222.69C192.865 223.095 192.662 223.612 192.639 224.241H196.706ZM204.212 218.444L206.106 226.613L208.375 218.444H209.852L212.121 226.613L214.015 218.444H215.505L212.866 228.486H211.438L209.12 220.16L206.789 228.486H205.361L202.736 218.444H204.212ZM219.408 221.001C219.928 221.001 220.432 221.124 220.919 221.37C221.407 221.612 221.778 221.926 222.033 222.314C222.28 222.683 222.444 223.113 222.526 223.606C222.599 223.943 222.635 224.481 222.635 225.219H217.269C217.292 225.962 217.467 226.559 217.795 227.01C218.123 227.457 218.631 227.68 219.32 227.68C219.962 227.68 220.475 227.468 220.858 227.044C221.076 226.798 221.231 226.513 221.323 226.19H222.532C222.501 226.458 222.393 226.759 222.211 227.092C222.033 227.42 221.833 227.689 221.61 227.899C221.236 228.263 220.773 228.509 220.222 228.637C219.926 228.71 219.591 228.746 219.217 228.746C218.306 228.746 217.533 228.416 216.9 227.755C216.266 227.09 215.949 226.16 215.949 224.966C215.949 223.79 216.268 222.835 216.906 222.102C217.545 221.368 218.378 221.001 219.408 221.001ZM221.37 224.241C221.32 223.708 221.204 223.282 221.022 222.963C220.684 222.371 220.122 222.074 219.333 222.074C218.768 222.074 218.294 222.279 217.911 222.69C217.529 223.095 217.326 223.612 217.303 224.241H221.37ZM225.096 226.538C225.096 226.894 225.226 227.174 225.486 227.379C225.745 227.584 226.053 227.687 226.408 227.687C226.841 227.687 227.261 227.586 227.666 227.386C228.35 227.053 228.692 226.509 228.692 225.752V224.761C228.541 224.857 228.348 224.936 228.111 225C227.874 225.064 227.641 225.109 227.413 225.137L226.668 225.233C226.222 225.292 225.887 225.385 225.663 225.513C225.285 225.727 225.096 226.069 225.096 226.538ZM228.076 224.05C228.359 224.013 228.548 223.895 228.644 223.694C228.698 223.585 228.726 223.428 228.726 223.223C228.726 222.804 228.575 222.5 228.275 222.314C227.978 222.122 227.552 222.026 226.996 222.026C226.354 222.026 225.898 222.2 225.629 222.546C225.479 222.737 225.381 223.022 225.335 223.401H224.187C224.21 222.498 224.501 221.872 225.062 221.521C225.627 221.165 226.281 220.987 227.024 220.987C227.885 220.987 228.585 221.151 229.122 221.48C229.656 221.808 229.922 222.318 229.922 223.011V227.229C229.922 227.356 229.947 227.459 229.997 227.536C230.052 227.614 230.164 227.652 230.332 227.652C230.387 227.652 230.448 227.65 230.517 227.646C230.585 227.637 230.658 227.625 230.736 227.611V228.521C230.544 228.575 230.398 228.609 230.298 228.623C230.198 228.637 230.061 228.644 229.888 228.644C229.464 228.644 229.156 228.493 228.965 228.193C228.865 228.033 228.794 227.807 228.753 227.516C228.503 227.844 228.142 228.129 227.673 228.37C227.204 228.612 226.686 228.733 226.121 228.733C225.442 228.733 224.886 228.527 224.453 228.117C224.025 227.703 223.811 227.185 223.811 226.566C223.811 225.887 224.023 225.36 224.447 224.986C224.87 224.613 225.426 224.383 226.115 224.296L228.076 224.05ZM232.192 219.121H233.436V221.165H234.605V222.17H233.436V226.948C233.436 227.204 233.522 227.374 233.696 227.461C233.791 227.511 233.951 227.536 234.174 227.536C234.233 227.536 234.297 227.536 234.365 227.536C234.434 227.532 234.514 227.525 234.605 227.516V228.486C234.463 228.527 234.315 228.557 234.16 228.575C234.01 228.594 233.846 228.603 233.668 228.603C233.094 228.603 232.704 228.457 232.499 228.165C232.294 227.869 232.192 227.486 232.192 227.017V222.17H231.2V221.165H232.192V219.121ZM235.842 218.41H237.073V222.156C237.364 221.787 237.626 221.527 237.859 221.377C238.255 221.117 238.75 220.987 239.342 220.987C240.404 220.987 241.124 221.359 241.502 222.102C241.707 222.507 241.81 223.07 241.81 223.79V228.486H240.545V223.872C240.545 223.334 240.477 222.94 240.34 222.69C240.117 222.289 239.698 222.088 239.082 222.088C238.572 222.088 238.109 222.263 237.695 222.614C237.28 222.965 237.073 223.628 237.073 224.604V228.486H235.842V218.41ZM246.684 221.001C247.203 221.001 247.707 221.124 248.195 221.37C248.682 221.612 249.054 221.926 249.309 222.314C249.555 222.683 249.719 223.113 249.801 223.606C249.874 223.943 249.91 224.481 249.91 225.219H244.544C244.567 225.962 244.742 226.559 245.071 227.01C245.399 227.457 245.907 227.68 246.595 227.68C247.238 227.68 247.75 227.468 248.133 227.044C248.352 226.798 248.507 226.513 248.598 226.19H249.808C249.776 226.458 249.669 226.759 249.487 227.092C249.309 227.42 249.108 227.689 248.885 227.899C248.511 228.263 248.049 228.509 247.497 228.637C247.201 228.71 246.866 228.746 246.492 228.746C245.581 228.746 244.809 228.416 244.175 227.755C243.542 227.09 243.225 226.16 243.225 224.966C243.225 223.79 243.544 222.835 244.182 222.102C244.82 221.368 245.654 221.001 246.684 221.001ZM248.646 224.241C248.596 223.708 248.479 223.282 248.297 222.963C247.96 222.371 247.397 222.074 246.609 222.074C246.044 222.074 245.57 222.279 245.187 222.69C244.804 223.095 244.601 223.612 244.578 224.241H248.646ZM251.462 221.165H252.631V222.43C252.727 222.184 252.962 221.885 253.335 221.534C253.709 221.179 254.14 221.001 254.627 221.001C254.65 221.001 254.689 221.003 254.743 221.008C254.798 221.012 254.892 221.022 255.024 221.035V222.334C254.951 222.32 254.882 222.311 254.819 222.307C254.759 222.302 254.693 222.3 254.62 222.3C254.001 222.3 253.524 222.5 253.192 222.901C252.859 223.298 252.693 223.756 252.693 224.276V228.486H251.462V221.165ZM260.93 226.538C260.93 226.894 261.06 227.174 261.32 227.379C261.579 227.584 261.887 227.687 262.242 227.687C262.675 227.687 263.095 227.586 263.5 227.386C264.184 227.053 264.526 226.509 264.526 225.752V224.761C264.375 224.857 264.182 224.936 263.945 225C263.708 225.064 263.475 225.109 263.247 225.137L262.502 225.233C262.056 225.292 261.721 225.385 261.497 225.513C261.119 225.727 260.93 226.069 260.93 226.538ZM263.91 224.05C264.193 224.013 264.382 223.895 264.478 223.694C264.532 223.585 264.56 223.428 264.56 223.223C264.56 222.804 264.409 222.5 264.109 222.314C263.812 222.122 263.386 222.026 262.83 222.026C262.188 222.026 261.732 222.2 261.463 222.546C261.313 222.737 261.215 223.022 261.169 223.401H260.021C260.044 222.498 260.335 221.872 260.896 221.521C261.461 221.165 262.115 220.987 262.858 220.987C263.719 220.987 264.419 221.151 264.956 221.48C265.49 221.808 265.756 222.318 265.756 223.011V227.229C265.756 227.356 265.781 227.459 265.831 227.536C265.886 227.614 265.998 227.652 266.166 227.652C266.221 227.652 266.282 227.65 266.351 227.646C266.419 227.637 266.492 227.625 266.57 227.611V228.521C266.378 228.575 266.232 228.609 266.132 228.623C266.032 228.637 265.895 228.644 265.722 228.644C265.298 228.644 264.99 228.493 264.799 228.193C264.699 228.033 264.628 227.807 264.587 227.516C264.337 227.844 263.976 228.129 263.507 228.37C263.038 228.612 262.52 228.733 261.955 228.733C261.276 228.733 260.72 228.527 260.287 228.117C259.859 227.703 259.645 227.185 259.645 226.566C259.645 225.887 259.857 225.36 260.281 224.986C260.704 224.613 261.26 224.383 261.948 224.296L263.91 224.05ZM270.869 227.659C271.444 227.659 271.92 227.42 272.298 226.942C272.681 226.458 272.872 225.738 272.872 224.781C272.872 224.198 272.788 223.697 272.619 223.277C272.3 222.471 271.717 222.068 270.869 222.068C270.017 222.068 269.434 222.494 269.119 223.346C268.951 223.802 268.866 224.38 268.866 225.082C268.866 225.647 268.951 226.128 269.119 226.525C269.438 227.281 270.022 227.659 270.869 227.659ZM267.684 221.199H268.88V222.17C269.126 221.837 269.395 221.58 269.687 221.398C270.101 221.124 270.589 220.987 271.15 220.987C271.979 220.987 272.683 221.306 273.262 221.944C273.841 222.578 274.13 223.485 274.13 224.665C274.13 226.26 273.713 227.4 272.879 228.083C272.351 228.516 271.735 228.733 271.033 228.733C270.482 228.733 270.019 228.612 269.646 228.37C269.427 228.234 269.183 227.999 268.914 227.666V231.405H267.684V221.199ZM278.662 227.659C279.237 227.659 279.713 227.42 280.091 226.942C280.474 226.458 280.665 225.738 280.665 224.781C280.665 224.198 280.581 223.697 280.412 223.277C280.093 222.471 279.51 222.068 278.662 222.068C277.81 222.068 277.227 222.494 276.912 223.346C276.744 223.802 276.659 224.38 276.659 225.082C276.659 225.647 276.744 226.128 276.912 226.525C277.231 227.281 277.815 227.659 278.662 227.659ZM275.477 221.199H276.673V222.17C276.919 221.837 277.188 221.58 277.48 221.398C277.894 221.124 278.382 220.987 278.943 220.987C279.772 220.987 280.476 221.306 281.055 221.944C281.634 222.578 281.923 223.485 281.923 224.665C281.923 226.26 281.506 227.4 280.672 228.083C280.143 228.516 279.528 228.733 278.826 228.733C278.275 228.733 277.812 228.612 277.439 228.37C277.22 228.234 276.976 227.999 276.707 227.666V231.405H275.477V221.199Z" fill="black"/>
</svg>
