<svg width="131" height="86" viewBox="0 0 131 86" fill="none" xmlns="http://www.w3.org/2000/svg">
<path d="M107.462 38.2418C106.408 28.5578 102.16 19.5262 95.4137 12.6278C88.6674 5.7294 79.8235 1.37357 70.3317 0.27443C60.84 -0.824707 51.2637 1.39808 43.173 6.57836C35.0823 11.7586 28.9573 19.589 25.8021 28.7857C18.572 29.3893 11.8511 32.822 7.04625 38.3654C2.24137 43.9087 -0.275 51.1329 0.0238768 58.5257C0.322754 65.9185 3.41371 72.9068 8.64972 78.0279C13.8857 83.1489 20.8609 86.0056 28.1151 86H107.715C113.924 85.9658 119.865 83.4172 124.232 78.9148C128.599 74.4124 131.033 68.3251 131 61.9919C130.966 55.6588 128.467 49.5987 124.053 45.1446C119.639 40.6906 113.671 38.2076 107.462 38.2418Z" fill="#FEE100"/>
<path d="M8.00098 54.0879C7.93652 53.7012 7.81641 53.3965 7.64062 53.1738C7.46484 52.9453 7.28613 52.7812 7.10449 52.6816C6.95801 52.5996 6.81152 52.5381 6.66504 52.4971C6.52441 52.4561 6.40137 52.418 6.2959 52.3828C6.18457 52.3418 6.10254 52.2979 6.0498 52.251C5.99707 52.2041 5.9707 52.1396 5.9707 52.0576C5.9707 51.8877 6.08496 51.8027 6.31348 51.8027C6.41895 51.8027 6.52148 51.8145 6.62109 51.8379C6.7207 51.8613 6.84082 51.8877 6.98145 51.917C7.12207 51.9463 7.28906 51.9814 7.48242 52.0225C7.67578 52.0576 7.91602 52.0869 8.20312 52.1104C8.4668 52.1338 8.68945 52.1484 8.87109 52.1543C9.05273 52.1543 9.20508 52.1572 9.32812 52.1631C9.45703 52.1631 9.56543 52.1689 9.65332 52.1807C9.74121 52.1865 9.82031 52.2041 9.89062 52.2334C9.99609 52.2803 10.1338 52.3945 10.3037 52.5762C10.4795 52.7578 10.6729 52.9805 10.8838 53.2441C11.1006 53.5078 11.3291 53.8008 11.5693 54.123C11.8096 54.4453 12.0469 54.7734 12.2812 55.1074C12.5215 55.4355 12.7529 55.7549 12.9756 56.0654C13.2041 56.376 13.4092 56.6514 13.5908 56.8916C13.7783 57.1318 13.9365 57.3252 14.0654 57.4717C14.2002 57.6182 14.291 57.6914 14.3379 57.6914C14.4375 57.6914 14.6309 57.4219 14.918 56.8828C15.2109 56.3379 15.624 55.5264 16.1572 54.4482C16.3037 54.1494 16.4531 53.833 16.6055 53.499C16.7637 53.1592 16.916 52.8252 17.0625 52.4971C17.2148 52.1631 17.3584 51.8438 17.4932 51.5391C17.6279 51.2344 17.751 50.9648 17.8623 50.7305C17.9795 50.4961 18.082 50.3086 18.1699 50.168C18.2578 50.0215 18.3252 49.9424 18.3721 49.9307C18.4014 49.9189 18.4307 49.9131 18.46 49.9131C18.4951 49.9131 18.5332 49.9131 18.5742 49.9131C18.6797 49.9131 18.8262 49.916 19.0137 49.9219C19.2012 49.9277 19.4443 49.9307 19.7432 49.9307C19.9248 49.9307 20.0889 49.9248 20.2354 49.9131C20.3818 49.8955 20.5107 49.8779 20.6221 49.8604C20.7393 49.8428 20.8447 49.8281 20.9385 49.8164C21.0322 49.7988 21.1201 49.79 21.2021 49.79C21.3252 49.79 21.4043 49.8076 21.4395 49.8428C21.4805 49.8779 21.501 49.9189 21.501 49.9658C21.501 50.0713 21.4131 50.1504 21.2373 50.2031C21.0674 50.2559 20.8271 50.3115 20.5166 50.3701C20.2119 50.4229 19.8691 50.5166 19.4883 50.6514C19.2539 50.7334 19.0898 50.8828 18.9961 51.0996C18.9023 51.3105 18.8555 51.5742 18.8555 51.8906C18.8555 52.1191 18.873 52.4121 18.9082 52.7695C18.9492 53.1211 19.002 53.5137 19.0664 53.9473C19.1367 54.375 19.2188 54.832 19.3125 55.3184C19.4062 55.7988 19.5059 56.2852 19.6113 56.7773C19.7227 57.2637 19.8369 57.7383 19.9541 58.2012C20.0771 58.6641 20.2002 59.0918 20.3232 59.4844C20.4463 59.877 20.5664 60.2227 20.6836 60.5215C20.8066 60.8145 20.9238 61.0342 21.0352 61.1807C21.1406 61.3213 21.2461 61.4414 21.3516 61.541C21.4629 61.6406 21.583 61.7256 21.7119 61.7959C21.8467 61.8662 21.9902 61.9277 22.1426 61.9805C22.3008 62.0332 22.4766 62.0859 22.6699 62.1387C22.8574 62.1855 22.9863 62.2354 23.0566 62.2881C23.127 62.3408 23.1621 62.4053 23.1621 62.4814C23.1621 62.5635 23.1123 62.6309 23.0127 62.6836C22.9189 62.7363 22.7695 62.7627 22.5645 62.7627C22.3184 62.7627 22.0605 62.7539 21.791 62.7363C21.5273 62.7188 21.2344 62.71 20.9121 62.71C20.3906 62.71 19.9131 62.748 19.4795 62.8242C19.0518 62.9004 18.6592 62.9854 18.3018 63.0791C17.9502 63.1729 17.6309 63.2578 17.3438 63.334C17.0566 63.4102 16.793 63.4482 16.5527 63.4482C16.4883 63.4482 16.4238 63.4365 16.3594 63.4131C16.2949 63.3896 16.2627 63.3369 16.2627 63.2549C16.2627 63.167 16.3154 63.0938 16.4209 63.0352C16.5264 62.9824 16.6611 62.9326 16.8252 62.8857C16.9951 62.833 17.1826 62.7803 17.3877 62.7275C17.5928 62.6748 17.7949 62.6045 17.9941 62.5166C18.1992 62.4229 18.3457 62.3027 18.4336 62.1562C18.5273 62.0039 18.5742 61.8105 18.5742 61.5762C18.5742 61.4414 18.5508 61.2305 18.5039 60.9434C18.4629 60.6562 18.4072 60.3223 18.3369 59.9414C18.2666 59.5605 18.1846 59.1504 18.0908 58.7109C18.0029 58.2715 17.9092 57.832 17.8096 57.3926C17.7158 56.9531 17.6191 56.5312 17.5195 56.127C17.4258 55.7168 17.3408 55.3564 17.2646 55.0459C17.1885 54.7354 17.1211 54.4863 17.0625 54.2988C17.0098 54.1113 16.9775 54.0176 16.9658 54.0176C16.9482 54.0176 16.8926 54.0967 16.7988 54.2549C16.7109 54.4131 16.5996 54.624 16.4648 54.8877C16.3301 55.1514 16.1777 55.4531 16.0078 55.793C15.8379 56.1328 15.665 56.4814 15.4893 56.8389C15.3193 57.1963 15.1494 57.5508 14.9795 57.9023C14.8096 58.2539 14.6543 58.5762 14.5137 58.8691C14.373 59.1562 14.2559 59.3994 14.1621 59.5986C14.0684 59.792 14.0068 59.9121 13.9775 59.959C13.9189 60.0703 13.8574 60.1875 13.793 60.3105C13.7285 60.4336 13.6611 60.5479 13.5908 60.6533C13.5264 60.7529 13.4648 60.8379 13.4062 60.9082C13.3477 60.9727 13.2979 61.0049 13.2568 61.0049C13.2217 61.0049 13.1748 60.9785 13.1162 60.9258C13.0635 60.8672 13.0078 60.7969 12.9492 60.7148C12.8906 60.6328 12.8291 60.5449 12.7646 60.4512C12.7061 60.3574 12.6562 60.2725 12.6152 60.1963C12.4629 59.9326 12.2842 59.6221 12.0791 59.2646C11.874 58.9014 11.6572 58.5234 11.4287 58.1309C11.2061 57.7324 10.9834 57.334 10.7607 56.9355C10.5439 56.5371 10.3389 56.1709 10.1455 55.8369C9.95801 55.4971 9.79688 55.207 9.66211 54.9668C9.52734 54.7207 9.43652 54.5537 9.38965 54.4658C9.29004 54.29 9.20508 54.1436 9.13477 54.0264C9.06445 53.9033 9.00293 53.8066 8.9502 53.7363C8.90332 53.666 8.8623 53.6162 8.82715 53.5869C8.79199 53.5518 8.75684 53.5342 8.72168 53.5342C8.6748 53.5342 8.65137 53.5811 8.65137 53.6748C8.65137 53.7686 8.66016 53.8975 8.67773 54.0615C8.69531 54.2197 8.70996 54.3604 8.72168 54.4834C8.78027 55.0518 8.81836 55.585 8.83594 56.083C8.85938 56.5752 8.87109 57.0498 8.87109 57.5068C8.87109 57.917 8.84766 58.3623 8.80078 58.8428C8.75391 59.3174 8.6748 59.7949 8.56348 60.2754C8.45215 60.75 8.2998 61.207 8.10645 61.6465C7.91895 62.0859 7.67871 62.4756 7.38574 62.8154C7.09277 63.1553 6.74414 63.4248 6.33984 63.624C5.94141 63.8291 5.47559 63.9316 4.94238 63.9316C4.63184 63.9316 4.35645 63.8818 4.11621 63.7822C3.87598 63.6826 3.6709 63.5479 3.50098 63.3779C3.33691 63.2139 3.21094 63.0264 3.12305 62.8154C3.04102 62.5986 3 62.373 3 62.1387C3 61.9746 3.02051 61.8105 3.06152 61.6465C3.1084 61.4824 3.18164 61.3389 3.28125 61.2158C3.38086 61.0869 3.50684 60.9844 3.65918 60.9082C3.81152 60.8262 3.99902 60.7852 4.22168 60.7852C4.39746 60.7852 4.55273 60.8174 4.6875 60.8818C4.82812 60.9404 4.95117 61.0166 5.05664 61.1104C5.16797 61.1982 5.26758 61.2979 5.35547 61.4092C5.44336 61.5205 5.52246 61.626 5.59277 61.7256C5.83887 62.0596 6.1084 62.2266 6.40137 62.2266C6.65918 62.2266 6.88184 62.1475 7.06934 61.9893C7.25684 61.8311 7.41797 61.6201 7.55273 61.3564C7.69336 61.0869 7.80762 60.7793 7.89551 60.4336C7.9834 60.0879 8.05078 59.7275 8.09766 59.3525C8.15039 58.9775 8.18555 58.6025 8.20312 58.2275C8.22656 57.8467 8.23828 57.4922 8.23828 57.1641C8.23828 56.584 8.21484 56.0303 8.16797 55.5029C8.12109 54.9756 8.06543 54.5039 8.00098 54.0879ZM29.8154 58.3418C29.8975 58.4766 29.9707 58.6582 30.0352 58.8867C30.1055 59.1152 30.1406 59.3467 30.1406 59.5811C30.1406 60.0088 30.0703 60.3926 29.9297 60.7324C29.7891 61.0664 29.5869 61.3506 29.3232 61.585C29.0596 61.8135 28.7402 61.9893 28.3652 62.1123C27.9961 62.2354 27.5801 62.2969 27.1172 62.2969C26.4492 62.2969 25.8516 62.1855 25.3242 61.9629C24.8027 61.7344 24.3633 61.418 24.0059 61.0137C23.6484 60.6094 23.376 60.1289 23.1885 59.5723C23.001 59.0098 22.9072 58.3945 22.9072 57.7266C22.9072 57.123 22.9717 56.5752 23.1006 56.083C23.2295 55.5908 23.4053 55.1514 23.6279 54.7646C23.8506 54.3779 24.1084 54.041 24.4014 53.7539C24.6943 53.4668 25.0049 53.2295 25.333 53.042C25.6611 52.8545 25.9951 52.7168 26.335 52.6289C26.6748 52.5352 27.0029 52.4883 27.3193 52.4883C27.6299 52.4883 27.9521 52.5293 28.2861 52.6113C28.6201 52.6934 28.9248 52.834 29.2002 53.0332C29.4814 53.2324 29.71 53.4961 29.8857 53.8242C30.0674 54.1465 30.1582 54.5537 30.1582 55.0459C30.1582 55.4736 30.0938 55.8486 29.9648 56.1709C29.8418 56.4932 29.6777 56.7715 29.4727 57.0059C29.2676 57.2402 29.0332 57.4336 28.7695 57.5859C28.5117 57.7383 28.2451 57.8613 27.9697 57.9551C27.7002 58.043 27.4336 58.1045 27.1699 58.1396C26.9121 58.1748 26.6836 58.1924 26.4844 58.1924C26.1973 58.1924 25.916 58.1719 25.6406 58.1309C25.3711 58.0898 25.1602 58.0459 25.0078 57.999C25.0312 58.4561 25.1016 58.8984 25.2188 59.3262C25.3418 59.748 25.5146 60.1201 25.7373 60.4424C25.96 60.7646 26.2354 61.0225 26.5635 61.2158C26.8975 61.4092 27.2871 61.5059 27.7324 61.5059C28.043 61.5059 28.3096 61.4531 28.5322 61.3477C28.7607 61.2422 28.9482 61.1016 29.0947 60.9258C29.2412 60.7441 29.3496 60.5361 29.4199 60.3018C29.4902 60.0674 29.5254 59.8213 29.5254 59.5635C29.5254 59.4111 29.5137 59.2529 29.4902 59.0889C29.4727 58.9248 29.4375 58.7695 29.3848 58.623C29.3496 58.5352 29.3203 58.4531 29.2969 58.377C29.2734 58.3008 29.2617 58.2393 29.2617 58.1924C29.2617 58.0752 29.3145 58.0166 29.4199 58.0166C29.4727 58.0166 29.5342 58.043 29.6045 58.0957C29.6807 58.1484 29.751 58.2305 29.8154 58.3418ZM24.9727 57.4189C25.125 57.4658 25.2979 57.5068 25.4912 57.542C25.6846 57.5713 25.9277 57.5859 26.2207 57.5859C26.5605 57.5859 26.874 57.5215 27.1611 57.3926C27.4482 57.2637 27.6943 57.085 27.8994 56.8564C28.1045 56.6221 28.2656 56.3408 28.3828 56.0127C28.5 55.6846 28.5586 55.3184 28.5586 54.9141C28.5586 54.5566 28.5176 54.2578 28.4355 54.0176C28.3594 53.7715 28.2568 53.5752 28.1279 53.4287C27.999 53.2822 27.8496 53.1797 27.6797 53.1211C27.5156 53.0566 27.3457 53.0244 27.1699 53.0244C26.9473 53.0244 26.707 53.0918 26.4492 53.2266C26.1914 53.3613 25.9512 53.5957 25.7285 53.9297C25.5117 54.2637 25.3301 54.7148 25.1836 55.2832C25.043 55.8457 24.9727 56.5576 24.9727 57.4189ZM30.8174 57.6035C30.8174 56.9473 30.9199 56.3555 31.125 55.8281C31.3301 55.2949 31.6201 54.8408 31.9951 54.4658C32.3701 54.0908 32.8213 53.8037 33.3486 53.6045C33.8818 53.3994 34.4707 53.2969 35.1152 53.2969C35.6953 53.2969 36.2285 53.3936 36.7148 53.5869C37.207 53.7803 37.6318 54.0586 37.9893 54.4219C38.3467 54.7793 38.625 55.2158 38.8242 55.7314C39.0293 56.2412 39.1318 56.8154 39.1318 57.4541C39.1318 58.21 39.0059 58.8574 38.7539 59.3965C38.5078 59.9355 38.1885 60.3779 37.7959 60.7236C37.4092 61.0693 36.9756 61.3242 36.4951 61.4883C36.0146 61.6465 35.543 61.7256 35.0801 61.7256C34.5234 61.7256 33.9873 61.6348 33.4717 61.4531C32.9619 61.2656 32.5107 60.9961 32.1182 60.6445C31.7256 60.293 31.4092 59.8623 31.1689 59.3525C30.9346 58.8369 30.8174 58.2539 30.8174 57.6035ZM34.9922 53.6396C34.6582 53.6396 34.3682 53.7246 34.1221 53.8945C33.8818 54.0586 33.6826 54.2842 33.5244 54.5713C33.3662 54.8525 33.249 55.1836 33.1729 55.5645C33.1025 55.9395 33.0674 56.335 33.0674 56.751C33.0674 57.0967 33.0879 57.4453 33.1289 57.7969C33.1699 58.1484 33.2314 58.4883 33.3135 58.8164C33.4014 59.1387 33.5068 59.4434 33.6299 59.7305C33.7588 60.0117 33.9111 60.2578 34.0869 60.4688C34.2627 60.6797 34.4619 60.8467 34.6846 60.9697C34.9131 61.0869 35.165 61.1455 35.4404 61.1455C35.7979 61.1455 36.0967 61.0664 36.3369 60.9082C36.583 60.7441 36.7793 60.5332 36.9258 60.2754C37.0723 60.0117 37.1748 59.7188 37.2334 59.3965C37.2979 59.0684 37.3301 58.7402 37.3301 58.4121C37.3301 57.6035 37.2715 56.9004 37.1543 56.3027C37.0371 55.7051 36.873 55.21 36.6621 54.8174C36.4512 54.4189 36.2021 54.123 35.915 53.9297C35.6338 53.7363 35.3262 53.6396 34.9922 53.6396ZM44.3701 54.29C44.3701 54.3369 44.3438 54.3838 44.291 54.4307C44.2441 54.4717 44.1855 54.5127 44.1152 54.5537C44.0508 54.5947 43.9805 54.6387 43.9043 54.6855C43.834 54.7266 43.7725 54.7676 43.7197 54.8086C43.6201 54.9023 43.5527 55.0049 43.5176 55.1162C43.4883 55.2275 43.4736 55.3418 43.4736 55.459C43.4736 55.5938 43.5029 55.8047 43.5615 56.0918C43.6201 56.3789 43.6963 56.6982 43.79 57.0498C43.8838 57.3955 43.9834 57.7529 44.0889 58.1221C44.2002 58.4912 44.3057 58.8281 44.4053 59.1328C44.5049 59.4375 44.5928 59.6865 44.6689 59.8799C44.7451 60.0732 44.7949 60.1699 44.8184 60.1699C44.8477 60.1699 44.9033 60.0791 44.9854 59.8975C45.0674 59.7158 45.167 59.4814 45.2842 59.1943C45.4014 58.9072 45.5273 58.585 45.6621 58.2275C45.8027 57.8643 45.9404 57.5039 46.0752 57.1465C46.2158 56.7891 46.3506 56.4521 46.4795 56.1357C46.6084 55.8193 46.7197 55.5586 46.8135 55.3535C46.8545 55.2715 46.8955 55.207 46.9365 55.1602C46.9775 55.1074 47.0215 55.0811 47.0684 55.0811C47.1211 55.0811 47.168 55.1074 47.209 55.1602C47.25 55.207 47.2939 55.2715 47.3408 55.3535C47.4404 55.541 47.5576 55.7695 47.6924 56.0391C47.833 56.3027 47.9795 56.5811 48.1318 56.874C48.2842 57.167 48.4365 57.46 48.5889 57.7529C48.7412 58.04 48.8818 58.3008 49.0107 58.5352C49.1396 58.7637 49.248 58.9512 49.3359 59.0977C49.4297 59.2383 49.4912 59.3086 49.5205 59.3086C49.5439 59.3086 49.585 59.2207 49.6436 59.0449C49.708 58.8633 49.7754 58.6348 49.8457 58.3594C49.916 58.084 49.9893 57.7793 50.0654 57.4453C50.1475 57.1113 50.2207 56.792 50.2852 56.4873C50.3496 56.1826 50.4023 55.9131 50.4434 55.6787C50.4844 55.4385 50.5049 55.2744 50.5049 55.1865C50.5049 55.0811 50.4844 55.0049 50.4434 54.958C50.4082 54.9053 50.3408 54.8789 50.2412 54.8789C50.1592 54.8789 50.0625 54.8877 49.9512 54.9053C49.8398 54.9229 49.7256 54.9316 49.6084 54.9316C49.5381 54.9316 49.4854 54.917 49.4502 54.8877C49.4209 54.8584 49.4062 54.8262 49.4062 54.791C49.4062 54.7441 49.418 54.709 49.4414 54.6855C49.4707 54.6621 49.5029 54.6445 49.5381 54.6328C49.6377 54.6035 49.8135 54.5859 50.0654 54.5801C50.3232 54.5684 50.6514 54.5244 51.0498 54.4482C51.4658 54.3779 51.8057 54.2988 52.0693 54.2109C52.333 54.1172 52.5381 54.0703 52.6846 54.0703C52.8193 54.0703 52.8867 54.1201 52.8867 54.2197C52.8867 54.3018 52.8369 54.3604 52.7373 54.3955C52.6494 54.4307 52.5352 54.4688 52.3945 54.5098C52.2598 54.5449 52.1104 54.5918 51.9463 54.6504C51.8232 54.6914 51.7178 54.7383 51.6299 54.791C51.5479 54.8438 51.4746 54.9082 51.4102 54.9844C51.3516 55.0547 51.2988 55.1426 51.252 55.248C51.2051 55.3535 51.1611 55.4766 51.1201 55.6172C51.0791 55.7461 51.0264 55.9336 50.9619 56.1797C50.8975 56.4258 50.8242 56.707 50.7422 57.0234C50.6602 57.3398 50.5693 57.6797 50.4697 58.043C50.3701 58.4004 50.2676 58.7607 50.1621 59.124C50.0625 59.4814 49.96 59.8271 49.8545 60.1611C49.749 60.4893 49.6436 60.7793 49.5381 61.0312C49.4385 61.2832 49.3418 61.4854 49.248 61.6377C49.1602 61.79 49.0811 61.8662 49.0107 61.8662C48.9346 61.8662 48.8379 61.8076 48.7207 61.6904C48.6035 61.5674 48.4746 61.4092 48.334 61.2158C48.1992 61.0225 48.0527 60.8027 47.8945 60.5566C47.7422 60.3047 47.5928 60.0498 47.4463 59.792C47.0947 59.1826 46.7227 58.4883 46.3301 57.709C46.3184 57.75 46.2803 57.8555 46.2158 58.0254C46.1572 58.1895 46.084 58.3887 45.9961 58.623C45.9141 58.8516 45.8232 59.1006 45.7236 59.3701C45.624 59.6338 45.5273 59.8857 45.4336 60.126C45.3457 60.3662 45.2637 60.5801 45.1875 60.7676C45.1172 60.9551 45.0674 61.0869 45.0381 61.1631C44.9443 61.4092 44.8418 61.6641 44.7305 61.9277C44.625 62.1855 44.5195 62.4258 44.4141 62.6484C44.3086 62.8652 44.2119 63.0439 44.124 63.1846C44.0361 63.3252 43.9629 63.3955 43.9043 63.3955C43.8457 63.3955 43.7666 63.3105 43.667 63.1406C43.5674 62.9707 43.4561 62.7451 43.333 62.4639C43.21 62.1826 43.0781 61.8604 42.9375 61.4971C42.8027 61.1279 42.665 60.7471 42.5244 60.3545C42.3838 59.9561 42.2461 59.5635 42.1113 59.1768C41.9766 58.7842 41.8535 58.4209 41.7422 58.0869C41.6309 57.7529 41.5312 57.4629 41.4434 57.2168C41.3613 56.9707 41.2998 56.7979 41.2588 56.6982C41.1826 56.5166 41.0889 56.3936 40.9775 56.3291C40.8662 56.2646 40.7432 56.2324 40.6084 56.2324C40.4619 56.2324 40.3213 56.25 40.1865 56.2852C40.0576 56.3203 39.9404 56.3379 39.835 56.3379C39.7822 56.3379 39.7295 56.3232 39.6768 56.2939C39.624 56.2646 39.5977 56.2148 39.5977 56.1445C39.5977 56.0449 39.6357 55.9746 39.7119 55.9336C39.7881 55.8926 39.8877 55.8545 40.0107 55.8193C40.1162 55.7959 40.251 55.7637 40.415 55.7227C40.585 55.6816 40.7695 55.6348 40.9688 55.582C41.168 55.5234 41.373 55.459 41.584 55.3887C41.8008 55.3184 42.0029 55.2393 42.1904 55.1514C42.4893 55.0166 42.75 54.8877 42.9727 54.7646C43.1953 54.6416 43.3857 54.5332 43.5439 54.4395C43.7021 54.3398 43.834 54.2637 43.9395 54.2109C44.0508 54.1523 44.1416 54.123 44.2119 54.123C44.2588 54.123 44.2969 54.1377 44.3262 54.167C44.3555 54.1904 44.3701 54.2314 44.3701 54.29ZM63.6621 47.3027C64.0371 47.3027 64.3594 47.3555 64.6289 47.4609C64.8984 47.5664 65.1211 47.71 65.2969 47.8916C65.4727 48.0732 65.6016 48.2812 65.6836 48.5156C65.7715 48.75 65.8154 48.9932 65.8154 49.2451C65.8154 49.7432 65.7129 50.2178 65.5078 50.6689C65.3027 51.1201 65.0391 51.5625 64.7168 51.9961C64.3945 52.4297 64.0371 52.8604 63.6445 53.2881C63.2578 53.7158 62.8799 54.1582 62.5107 54.6152C62.7451 55.1074 62.9912 55.5791 63.249 56.0303C63.5068 56.4756 63.7529 56.8799 63.9873 57.2432C64.2275 57.6064 64.4443 57.9229 64.6377 58.1924C64.8369 58.4619 64.9893 58.667 65.0947 58.8076C65.1826 58.9248 65.2939 59.0625 65.4287 59.2207C65.5635 59.3789 65.7158 59.5518 65.8857 59.7393C66.0557 59.9209 66.2402 60.1113 66.4395 60.3105C66.6445 60.5039 66.8525 60.6973 67.0635 60.8906C67.3154 60.6035 67.5352 60.2988 67.7227 59.9766C67.9102 59.6484 68.0654 59.3203 68.1885 58.9922C68.3115 58.6641 68.4023 58.3418 68.4609 58.0254C68.5254 57.7031 68.5576 57.4043 68.5576 57.1289C68.5576 56.5547 68.4727 56.1475 68.3027 55.9072C68.1328 55.667 67.916 55.5469 67.6523 55.5469C67.4648 55.5469 67.2422 55.5762 66.9844 55.6348C66.7266 55.6875 66.4629 55.7461 66.1934 55.8105C65.9297 55.875 65.6777 55.9365 65.4375 55.9951C65.1973 56.0479 65.001 56.0742 64.8486 56.0742C64.7549 56.0742 64.6787 56.0596 64.6201 56.0303C64.5674 56.001 64.541 55.9541 64.541 55.8896C64.541 55.8135 64.5938 55.7578 64.6992 55.7227C64.8105 55.6816 64.9746 55.6348 65.1914 55.582C65.4082 55.5234 65.6777 55.4414 66 55.3359C66.3281 55.2305 66.7119 55.0723 67.1514 54.8613C67.5146 54.6855 67.8223 54.501 68.0742 54.3076C68.3262 54.1084 68.5371 53.9268 68.707 53.7627C68.877 53.5928 69.0146 53.4521 69.1201 53.3408C69.2256 53.2295 69.3135 53.1738 69.3838 53.1738C69.4482 53.1738 69.5039 53.2148 69.5508 53.2969C69.6035 53.3789 69.6475 53.4902 69.6826 53.6309C69.7178 53.7656 69.7441 53.9268 69.7617 54.1143C69.7852 54.2959 69.7969 54.4863 69.7969 54.6855C69.7969 55.2949 69.75 55.9043 69.6562 56.5137C69.5625 57.123 69.4219 57.7148 69.2344 58.2891C69.0469 58.8574 68.8096 59.3994 68.5225 59.915C68.2412 60.4248 67.9102 60.8877 67.5293 61.3037C67.7285 61.4736 67.9248 61.6318 68.1182 61.7783C68.3174 61.9189 68.5107 62.042 68.6982 62.1475C68.8857 62.2529 69.0645 62.335 69.2344 62.3936C69.4102 62.4521 69.5742 62.4814 69.7266 62.4814C69.8555 62.4814 69.9756 62.4434 70.0869 62.3672C70.2041 62.2852 70.3125 62.1826 70.4121 62.0596C70.5117 61.9365 70.6025 61.8076 70.6846 61.6729C70.7725 61.5322 70.8516 61.4004 70.9219 61.2773C70.9922 61.1543 71.0566 61.0547 71.1152 60.9785C71.1738 60.8965 71.2266 60.8555 71.2734 60.8555C71.332 60.8555 71.3613 60.9053 71.3613 61.0049C71.3613 61.0928 71.3203 61.248 71.2383 61.4707C71.1621 61.6934 71.0596 61.9453 70.9307 62.2266C70.8076 62.502 70.6641 62.7891 70.5 63.0879C70.3359 63.3926 70.1689 63.6709 69.999 63.9229C69.835 64.1748 69.6738 64.3799 69.5156 64.5381C69.3633 64.7021 69.2285 64.7842 69.1113 64.7842C69.0059 64.7842 68.8564 64.7432 68.6631 64.6611C68.4697 64.585 68.2383 64.459 67.9688 64.2832C67.6992 64.1074 67.3945 63.876 67.0547 63.5889C66.7207 63.3018 66.3574 62.9502 65.9648 62.5342C65.5488 62.7568 65.0977 62.9326 64.6113 63.0615C64.1309 63.1904 63.6094 63.2549 63.0469 63.2549C62.3613 63.2549 61.7314 63.1641 61.1572 62.9824C60.5889 62.8008 60.0996 62.5312 59.6895 62.1738C59.2793 61.8164 58.96 61.3711 58.7314 60.8379C58.5029 60.3047 58.3887 59.6865 58.3887 58.9834C58.3887 58.5088 58.4502 58.0576 58.5732 57.6299C58.6963 57.2021 58.8633 56.792 59.0742 56.3994C59.2852 56.0068 59.5312 55.6289 59.8125 55.2656C60.0996 54.9023 60.4043 54.5537 60.7266 54.2197C60.4043 53.1826 60.2432 52.1367 60.2432 51.082C60.2432 50.4785 60.3281 49.9424 60.498 49.4736C60.6738 48.999 60.9141 48.6035 61.2188 48.2871C61.5234 47.9648 61.8838 47.7217 62.2998 47.5576C62.7217 47.3877 63.1758 47.3027 63.6621 47.3027ZM64.1807 60.4424C63.0322 58.9365 62.127 57.4805 61.4648 56.0742C61.2305 56.4902 61.043 56.9209 60.9023 57.3662C60.7617 57.8057 60.6914 58.2744 60.6914 58.7725C60.6914 59.2998 60.7588 59.7949 60.8936 60.2578C61.0342 60.7148 61.2363 61.1133 61.5 61.4531C61.7695 61.7871 62.0977 62.0508 62.4844 62.2441C62.8711 62.4375 63.3105 62.5342 63.8027 62.5342C64.1309 62.5342 64.4414 62.4961 64.7344 62.4199C65.0273 62.3438 65.3057 62.2441 65.5693 62.1211C65.3643 61.875 65.1387 61.6172 64.8926 61.3477C64.6523 61.0723 64.415 60.7705 64.1807 60.4424ZM61.3594 50.291C61.3594 50.7539 61.4033 51.2168 61.4912 51.6797C61.585 52.1426 61.7139 52.6113 61.8779 53.0859C62.2529 52.7285 62.6104 52.374 62.9502 52.0225C63.29 51.665 63.5859 51.3135 63.8379 50.9678C64.0898 50.6162 64.2891 50.2676 64.4355 49.9219C64.5879 49.5703 64.6641 49.2188 64.6641 48.8672C64.6641 48.498 64.5615 48.1963 64.3564 47.9619C64.1514 47.7275 63.8467 47.6104 63.4424 47.6104C63.1846 47.6104 62.9297 47.6602 62.6777 47.7598C62.4316 47.8535 62.209 48.0059 62.0098 48.2168C61.8164 48.4277 61.6582 48.7031 61.5352 49.043C61.418 49.3828 61.3594 49.7988 61.3594 50.291ZM81.46 54.29C81.46 54.3369 81.4336 54.3838 81.3809 54.4307C81.334 54.4717 81.2754 54.5127 81.2051 54.5537C81.1406 54.5947 81.0703 54.6387 80.9941 54.6855C80.9238 54.7266 80.8623 54.7676 80.8096 54.8086C80.71 54.9023 80.6426 55.0049 80.6074 55.1162C80.5781 55.2275 80.5635 55.3418 80.5635 55.459C80.5635 55.5938 80.5928 55.8047 80.6514 56.0918C80.71 56.3789 80.7861 56.6982 80.8799 57.0498C80.9736 57.3955 81.0732 57.7529 81.1787 58.1221C81.29 58.4912 81.3955 58.8281 81.4951 59.1328C81.5947 59.4375 81.6826 59.6865 81.7588 59.8799C81.835 60.0732 81.8848 60.1699 81.9082 60.1699C81.9375 60.1699 81.9932 60.0791 82.0752 59.8975C82.1572 59.7158 82.2568 59.4814 82.374 59.1943C82.4912 58.9072 82.6172 58.585 82.752 58.2275C82.8926 57.8643 83.0303 57.5039 83.165 57.1465C83.3057 56.7891 83.4404 56.4521 83.5693 56.1357C83.6982 55.8193 83.8096 55.5586 83.9033 55.3535C83.9443 55.2715 83.9854 55.207 84.0264 55.1602C84.0674 55.1074 84.1113 55.0811 84.1582 55.0811C84.2109 55.0811 84.2578 55.1074 84.2988 55.1602C84.3398 55.207 84.3838 55.2715 84.4307 55.3535C84.5303 55.541 84.6475 55.7695 84.7822 56.0391C84.9229 56.3027 85.0693 56.5811 85.2217 56.874C85.374 57.167 85.5264 57.46 85.6787 57.7529C85.8311 58.04 85.9717 58.3008 86.1006 58.5352C86.2295 58.7637 86.3379 58.9512 86.4258 59.0977C86.5195 59.2383 86.5811 59.3086 86.6104 59.3086C86.6338 59.3086 86.6748 59.2207 86.7334 59.0449C86.7979 58.8633 86.8652 58.6348 86.9355 58.3594C87.0059 58.084 87.0791 57.7793 87.1553 57.4453C87.2373 57.1113 87.3105 56.792 87.375 56.4873C87.4395 56.1826 87.4922 55.9131 87.5332 55.6787C87.5742 55.4385 87.5947 55.2744 87.5947 55.1865C87.5947 55.0811 87.5742 55.0049 87.5332 54.958C87.498 54.9053 87.4307 54.8789 87.3311 54.8789C87.249 54.8789 87.1523 54.8877 87.041 54.9053C86.9297 54.9229 86.8154 54.9316 86.6982 54.9316C86.6279 54.9316 86.5752 54.917 86.54 54.8877C86.5107 54.8584 86.4961 54.8262 86.4961 54.791C86.4961 54.7441 86.5078 54.709 86.5312 54.6855C86.5605 54.6621 86.5928 54.6445 86.6279 54.6328C86.7275 54.6035 86.9033 54.5859 87.1553 54.5801C87.4131 54.5684 87.7412 54.5244 88.1396 54.4482C88.5557 54.3779 88.8955 54.2988 89.1592 54.2109C89.4229 54.1172 89.6279 54.0703 89.7744 54.0703C89.9092 54.0703 89.9766 54.1201 89.9766 54.2197C89.9766 54.3018 89.9268 54.3604 89.8271 54.3955C89.7393 54.4307 89.625 54.4688 89.4844 54.5098C89.3496 54.5449 89.2002 54.5918 89.0361 54.6504C88.9131 54.6914 88.8076 54.7383 88.7197 54.791C88.6377 54.8438 88.5645 54.9082 88.5 54.9844C88.4414 55.0547 88.3887 55.1426 88.3418 55.248C88.2949 55.3535 88.251 55.4766 88.21 55.6172C88.1689 55.7461 88.1162 55.9336 88.0518 56.1797C87.9873 56.4258 87.9141 56.707 87.832 57.0234C87.75 57.3398 87.6592 57.6797 87.5596 58.043C87.46 58.4004 87.3574 58.7607 87.252 59.124C87.1523 59.4814 87.0498 59.8271 86.9443 60.1611C86.8389 60.4893 86.7334 60.7793 86.6279 61.0312C86.5283 61.2832 86.4316 61.4854 86.3379 61.6377C86.25 61.79 86.1709 61.8662 86.1006 61.8662C86.0244 61.8662 85.9277 61.8076 85.8105 61.6904C85.6934 61.5674 85.5645 61.4092 85.4238 61.2158C85.2891 61.0225 85.1426 60.8027 84.9844 60.5566C84.832 60.3047 84.6826 60.0498 84.5361 59.792C84.1846 59.1826 83.8125 58.4883 83.4199 57.709C83.4082 57.75 83.3701 57.8555 83.3057 58.0254C83.2471 58.1895 83.1738 58.3887 83.0859 58.623C83.0039 58.8516 82.9131 59.1006 82.8135 59.3701C82.7139 59.6338 82.6172 59.8857 82.5234 60.126C82.4355 60.3662 82.3535 60.5801 82.2773 60.7676C82.207 60.9551 82.1572 61.0869 82.1279 61.1631C82.0342 61.4092 81.9316 61.6641 81.8203 61.9277C81.7148 62.1855 81.6094 62.4258 81.5039 62.6484C81.3984 62.8652 81.3018 63.0439 81.2139 63.1846C81.126 63.3252 81.0527 63.3955 80.9941 63.3955C80.9355 63.3955 80.8564 63.3105 80.7568 63.1406C80.6572 62.9707 80.5459 62.7451 80.4229 62.4639C80.2998 62.1826 80.168 61.8604 80.0273 61.4971C79.8926 61.1279 79.7549 60.7471 79.6143 60.3545C79.4736 59.9561 79.3359 59.5635 79.2012 59.1768C79.0664 58.7842 78.9434 58.4209 78.832 58.0869C78.7207 57.7529 78.6211 57.4629 78.5332 57.2168C78.4512 56.9707 78.3896 56.7979 78.3486 56.6982C78.2725 56.5166 78.1787 56.3936 78.0674 56.3291C77.9561 56.2646 77.833 56.2324 77.6982 56.2324C77.5518 56.2324 77.4111 56.25 77.2764 56.2852C77.1475 56.3203 77.0303 56.3379 76.9248 56.3379C76.8721 56.3379 76.8193 56.3232 76.7666 56.2939C76.7139 56.2646 76.6875 56.2148 76.6875 56.1445C76.6875 56.0449 76.7256 55.9746 76.8018 55.9336C76.8779 55.8926 76.9775 55.8545 77.1006 55.8193C77.2061 55.7959 77.3408 55.7637 77.5049 55.7227C77.6748 55.6816 77.8594 55.6348 78.0586 55.582C78.2578 55.5234 78.4629 55.459 78.6738 55.3887C78.8906 55.3184 79.0928 55.2393 79.2803 55.1514C79.5791 55.0166 79.8398 54.8877 80.0625 54.7646C80.2852 54.6416 80.4756 54.5332 80.6338 54.4395C80.792 54.3398 80.9238 54.2637 81.0293 54.2109C81.1406 54.1523 81.2314 54.123 81.3018 54.123C81.3486 54.123 81.3867 54.1377 81.416 54.167C81.4453 54.1904 81.46 54.2314 81.46 54.29ZM90.0205 57.6035C90.0205 56.9473 90.123 56.3555 90.3281 55.8281C90.5332 55.2949 90.8232 54.8408 91.1982 54.4658C91.5732 54.0908 92.0244 53.8037 92.5518 53.6045C93.085 53.3994 93.6738 53.2969 94.3184 53.2969C94.8984 53.2969 95.4316 53.3936 95.918 53.5869C96.4102 53.7803 96.835 54.0586 97.1924 54.4219C97.5498 54.7793 97.8281 55.2158 98.0273 55.7314C98.2324 56.2412 98.335 56.8154 98.335 57.4541C98.335 58.21 98.209 58.8574 97.957 59.3965C97.7109 59.9355 97.3916 60.3779 96.999 60.7236C96.6123 61.0693 96.1787 61.3242 95.6982 61.4883C95.2178 61.6465 94.7461 61.7256 94.2832 61.7256C93.7266 61.7256 93.1904 61.6348 92.6748 61.4531C92.165 61.2656 91.7139 60.9961 91.3213 60.6445C90.9287 60.293 90.6123 59.8623 90.3721 59.3525C90.1377 58.8369 90.0205 58.2539 90.0205 57.6035ZM94.1953 53.6396C93.8613 53.6396 93.5713 53.7246 93.3252 53.8945C93.085 54.0586 92.8857 54.2842 92.7275 54.5713C92.5693 54.8525 92.4521 55.1836 92.376 55.5645C92.3057 55.9395 92.2705 56.335 92.2705 56.751C92.2705 57.0967 92.291 57.4453 92.332 57.7969C92.373 58.1484 92.4346 58.4883 92.5166 58.8164C92.6045 59.1387 92.71 59.4434 92.833 59.7305C92.9619 60.0117 93.1143 60.2578 93.29 60.4688C93.4658 60.6797 93.665 60.8467 93.8877 60.9697C94.1162 61.0869 94.3682 61.1455 94.6436 61.1455C95.001 61.1455 95.2998 61.0664 95.54 60.9082C95.7861 60.7441 95.9824 60.5332 96.1289 60.2754C96.2754 60.0117 96.3779 59.7188 96.4365 59.3965C96.501 59.0684 96.5332 58.7402 96.5332 58.4121C96.5332 57.6035 96.4746 56.9004 96.3574 56.3027C96.2402 55.7051 96.0762 55.21 95.8652 54.8174C95.6543 54.4189 95.4053 54.123 95.1182 53.9297C94.8369 53.7363 94.5293 53.6396 94.1953 53.6396ZM102.475 49.4473C102.691 49.3535 102.917 49.2715 103.151 49.2012C103.392 49.1309 103.629 49.0752 103.863 49.0342C104.104 48.9873 104.335 48.9551 104.558 48.9375C104.786 48.9141 104.997 48.9023 105.19 48.9023C105.87 48.9023 106.5 48.9873 107.08 49.1572C107.66 49.3271 108.185 49.5645 108.653 49.8691C109.122 50.168 109.535 50.5254 109.893 50.9414C110.256 51.3516 110.558 51.8027 110.798 52.2949C111.044 52.7871 111.229 53.3086 111.352 53.8594C111.48 54.4102 111.545 54.9727 111.545 55.5469C111.545 56.4434 111.401 57.2783 111.114 58.0518C110.833 58.8193 110.426 59.4873 109.893 60.0557C109.365 60.6182 108.721 61.0605 107.959 61.3828C107.203 61.7051 106.354 61.8662 105.41 61.8662C104.889 61.8662 104.364 61.8105 103.837 61.6992C103.315 61.582 102.814 61.4033 102.334 61.1631C101.854 60.9229 101.405 60.6211 100.989 60.2578C100.573 59.8945 100.21 59.4639 99.8994 58.9658C99.5947 58.4619 99.3545 57.8936 99.1787 57.2607C99.0029 56.6221 98.915 55.9131 98.915 55.1338C98.915 54.5361 98.9912 53.9531 99.1436 53.3848C99.3018 52.8105 99.5303 52.2744 99.8291 51.7764C100.134 51.2783 100.506 50.8301 100.945 50.4316C101.391 50.0273 101.9 49.6992 102.475 49.4473ZM104.883 49.4473C104.215 49.4473 103.632 49.5908 103.134 49.8779C102.642 50.165 102.231 50.5518 101.903 51.0381C101.575 51.5186 101.329 52.0781 101.165 52.7168C101.007 53.3496 100.928 54.0176 100.928 54.7207C100.928 55.6934 101.036 56.5811 101.253 57.3838C101.47 58.1807 101.783 58.8662 102.193 59.4404C102.609 60.0146 103.116 60.46 103.714 60.7764C104.312 61.0928 104.991 61.251 105.753 61.251C106.415 61.251 106.978 61.1104 107.44 60.8291C107.903 60.5479 108.281 60.167 108.574 59.6865C108.867 59.2061 109.078 58.6494 109.207 58.0166C109.342 57.3838 109.409 56.7158 109.409 56.0127C109.409 53.8799 109.034 52.2539 108.284 51.1348C107.534 50.0098 106.4 49.4473 104.883 49.4473ZM117.697 42.75C118.025 42.75 118.342 42.8027 118.646 42.9082C118.951 43.0078 119.221 43.1719 119.455 43.4004C119.695 43.623 119.886 43.9102 120.026 44.2617C120.167 44.6133 120.237 45.0381 120.237 45.5361C120.237 45.9814 120.182 46.3857 120.07 46.749C119.959 47.1123 119.804 47.4229 119.604 47.6807C119.405 47.9385 119.168 48.1377 118.893 48.2783C118.617 48.4189 118.315 48.4893 117.987 48.4893C117.771 48.4893 117.577 48.457 117.407 48.3926C117.237 48.3223 117.094 48.2314 116.977 48.1201C116.859 48.0029 116.769 47.8682 116.704 47.7158C116.646 47.5576 116.616 47.3906 116.616 47.2148C116.616 47.0918 116.631 46.9658 116.66 46.8369C116.689 46.708 116.745 46.585 116.827 46.4678C116.909 46.3506 117.021 46.2363 117.161 46.125C117.308 46.0137 117.492 45.9141 117.715 45.8262C118.148 45.6562 118.465 45.4482 118.664 45.2021C118.869 44.9561 118.972 44.6602 118.972 44.3145C118.972 44.1973 118.951 44.0654 118.91 43.9189C118.869 43.7725 118.796 43.6377 118.69 43.5146C118.585 43.3857 118.438 43.2773 118.251 43.1895C118.063 43.1016 117.823 43.0576 117.53 43.0576C117.167 43.0576 116.854 43.1543 116.59 43.3477C116.332 43.5352 116.112 43.7871 115.931 44.1035C115.749 44.4141 115.603 44.7715 115.491 45.1758C115.38 45.5742 115.295 45.9844 115.236 46.4062C115.178 46.8223 115.137 47.2324 115.113 47.6367C115.096 48.0352 115.087 48.3926 115.087 48.709C115.087 48.9375 115.09 49.166 115.096 49.3945C115.107 49.6172 115.143 49.8193 115.201 50.001C115.26 50.1768 115.351 50.3203 115.474 50.4316C115.597 50.543 115.772 50.5986 116.001 50.5986C116.183 50.5986 116.367 50.5811 116.555 50.5459C116.748 50.5107 116.93 50.4756 117.1 50.4404C117.275 50.3994 117.437 50.3613 117.583 50.3262C117.729 50.291 117.853 50.2734 117.952 50.2734C118.116 50.2734 118.198 50.335 118.198 50.458C118.198 50.54 118.16 50.6045 118.084 50.6514C118.014 50.6982 117.885 50.7393 117.697 50.7744C117.609 50.792 117.51 50.8096 117.398 50.8271C117.293 50.8389 117.17 50.8535 117.029 50.8711C116.889 50.8887 116.73 50.9121 116.555 50.9414C116.379 50.9707 116.177 51.0117 115.948 51.0645C115.796 51.0996 115.673 51.1465 115.579 51.2051C115.491 51.2578 115.424 51.3193 115.377 51.3896C115.318 51.4834 115.28 51.6006 115.263 51.7412C115.251 51.876 115.245 52.0283 115.245 52.1982C115.245 52.2451 115.248 52.4209 115.254 52.7256C115.266 53.0303 115.277 53.417 115.289 53.8857C115.307 54.3545 115.324 54.8848 115.342 55.4766C115.359 56.0684 115.377 56.6748 115.395 57.2959C115.418 57.917 115.438 58.5322 115.456 59.1416C115.479 59.7451 115.5 60.2959 115.518 60.7939C115.535 61.292 115.55 61.7168 115.562 62.0684C115.579 62.4141 115.594 62.6396 115.605 62.7451C115.635 63.0967 115.702 63.3867 115.808 63.6152C115.919 63.8438 116.109 63.999 116.379 64.0811C116.473 64.1104 116.558 64.1309 116.634 64.1426C116.716 64.1602 116.798 64.1719 116.88 64.1777C116.968 64.1895 117.059 64.2012 117.152 64.2129C117.252 64.2246 117.366 64.2393 117.495 64.2568C117.647 64.2744 117.768 64.3037 117.855 64.3447C117.943 64.3916 117.987 64.459 117.987 64.5469C117.987 64.6641 117.92 64.749 117.785 64.8018C117.65 64.8604 117.466 64.8896 117.231 64.8896C117.097 64.8896 116.912 64.8867 116.678 64.8809C116.449 64.875 116.206 64.8721 115.948 64.8721C115.397 64.8779 114.911 64.9307 114.489 65.0303C114.067 65.1357 113.695 65.25 113.373 65.373C113.057 65.4961 112.781 65.6074 112.547 65.707C112.318 65.8125 112.122 65.8652 111.958 65.8652C111.823 65.8652 111.756 65.8096 111.756 65.6982C111.756 65.6279 111.788 65.5664 111.853 65.5137C111.923 65.4668 112.022 65.4141 112.151 65.3555C112.415 65.25 112.635 65.1387 112.811 65.0215C112.986 64.9043 113.13 64.7666 113.241 64.6084C113.353 64.4502 113.432 64.2568 113.479 64.0283C113.531 63.8057 113.563 63.5303 113.575 63.2021C113.587 62.9268 113.593 62.5869 113.593 62.1826C113.593 61.7783 113.593 61.3301 113.593 60.8379C113.593 60.3516 113.59 59.8359 113.584 59.291C113.584 58.7461 113.581 58.1982 113.575 57.6475C113.575 57.0967 113.572 56.5518 113.566 56.0127C113.561 55.4736 113.555 54.9668 113.549 54.4922C113.543 54.0176 113.534 53.5898 113.522 53.209C113.517 52.8223 113.511 52.5029 113.505 52.251C113.499 52.1045 113.484 51.9844 113.461 51.8906C113.438 51.7969 113.399 51.7236 113.347 51.6709C113.294 51.6182 113.221 51.583 113.127 51.5654C113.039 51.542 112.925 51.5303 112.784 51.5303C112.661 51.5303 112.523 51.5361 112.371 51.5479C112.219 51.5596 112.066 51.5742 111.914 51.5918C111.768 51.6035 111.633 51.6152 111.51 51.627C111.381 51.6387 111.278 51.6445 111.202 51.6445C111.103 51.6445 111.021 51.6299 110.956 51.6006C110.892 51.5713 110.859 51.5186 110.859 51.4424C110.859 51.3604 110.895 51.3047 110.965 51.2754C111.035 51.2402 111.138 51.2139 111.272 51.1963C111.489 51.167 111.7 51.1436 111.905 51.126C112.116 51.1025 112.365 51.0645 112.652 51.0117C112.898 50.9707 113.092 50.8887 113.232 50.7656C113.373 50.6367 113.484 50.4844 113.566 50.3086C113.648 50.127 113.707 49.9277 113.742 49.7109C113.777 49.4883 113.812 49.2568 113.848 49.0166C113.918 48.4893 114.003 47.9707 114.103 47.4609C114.202 46.9453 114.325 46.4561 114.472 45.9932C114.624 45.5244 114.797 45.0938 114.99 44.7012C115.189 44.3027 115.421 43.96 115.685 43.6729C115.948 43.3857 116.244 43.1602 116.572 42.9961C116.906 42.832 117.281 42.75 117.697 42.75Z" fill="black"/>
<path d="M33.6309 66.8158V67.6703H31.2139V73.9886H30.2276V67.6703H27.8106V66.8158H33.6309ZM34.4073 66.7914H35.2862V69.4672C35.4945 69.2035 35.6817 69.0179 35.8477 68.9105C36.1309 68.725 36.4841 68.6322 36.9073 68.6322C37.6658 68.6322 38.1801 68.8975 38.4503 69.4281C38.5967 69.7178 38.67 70.1198 38.67 70.6341V73.9886H37.7667V70.6927C37.7667 70.3086 37.7178 70.0271 37.6202 69.848C37.4607 69.5616 37.1612 69.4183 36.7217 69.4183C36.3572 69.4183 36.0268 69.5437 35.7305 69.7943C35.4343 70.045 35.2862 70.5186 35.2862 71.2152V73.9886H34.4073V66.7914ZM42.1514 68.642C42.5225 68.642 42.8822 68.7299 43.2305 68.9056C43.5788 69.0782 43.8441 69.3028 44.0264 69.5795C44.2022 69.8431 44.3194 70.1507 44.378 70.5023C44.4301 70.7432 44.4561 71.1273 44.4561 71.6547H40.6231C40.6394 72.1853 40.7647 72.6117 40.9991 72.934C41.2335 73.253 41.5964 73.4125 42.088 73.4125C42.5469 73.4125 42.9131 73.2611 43.1866 72.9584C43.3428 72.7826 43.4535 72.5791 43.5186 72.348H44.3829C44.3601 72.5401 44.2836 72.7549 44.1534 72.9925C44.0264 73.2269 43.8832 73.419 43.7237 73.5687C43.4568 73.8291 43.1264 74.0049 42.7325 74.0961C42.5209 74.1481 42.2816 74.1742 42.0147 74.1742C41.3637 74.1742 40.8119 73.9382 40.3594 73.4662C39.907 72.9909 39.6807 72.3269 39.6807 71.474C39.6807 70.6341 39.9086 69.9522 40.3643 69.4281C40.82 68.904 41.4158 68.642 42.1514 68.642ZM43.5528 70.9564C43.517 70.5756 43.434 70.2712 43.3038 70.0433C43.0629 69.6202 42.6609 69.4086 42.0977 69.4086C41.6941 69.4086 41.3555 69.555 41.0821 69.848C40.8087 70.1377 40.6638 70.5072 40.6475 70.9564H43.5528ZM48.9141 66.8158L50.2667 72.6507L51.8878 66.8158H52.9424L54.5635 72.6507L55.9161 66.8158H56.9805L55.0958 73.9886H54.0753L52.42 68.0414L50.7549 73.9886H49.7344L47.8594 66.8158H48.9141ZM59.7686 68.642C60.1397 68.642 60.4994 68.7299 60.8477 68.9056C61.196 69.0782 61.4613 69.3028 61.6436 69.5795C61.8194 69.8431 61.9366 70.1507 61.9952 70.5023C62.0473 70.7432 62.0733 71.1273 62.0733 71.6547H58.2403C58.2566 72.1853 58.3819 72.6117 58.6163 72.934C58.8506 73.253 59.2136 73.4125 59.7051 73.4125C60.1641 73.4125 60.5303 73.2611 60.8038 72.9584C60.96 72.7826 61.0707 72.5791 61.1358 72.348H62.0001C61.9773 72.5401 61.9008 72.7549 61.7706 72.9925C61.6436 73.2269 61.5004 73.419 61.3409 73.5687C61.074 73.8291 60.7436 74.0049 60.3497 74.0961C60.1381 74.1481 59.8988 74.1742 59.6319 74.1742C58.9809 74.1742 58.4291 73.9382 57.9766 73.4662C57.5241 72.9909 57.2979 72.3269 57.2979 71.474C57.2979 70.6341 57.5258 69.9522 57.9815 69.4281C58.4372 68.904 59.0329 68.642 59.7686 68.642ZM61.17 70.9564C61.1342 70.5756 61.0512 70.2712 60.921 70.0433C60.6801 69.6202 60.2781 69.4086 59.7149 69.4086C59.3113 69.4086 58.9727 69.555 58.6993 69.848C58.4258 70.1377 58.281 70.5072 58.2647 70.9564H61.17ZM63.8311 72.597C63.8311 72.8509 63.9239 73.0511 64.1094 73.1976C64.295 73.3441 64.5147 73.4174 64.7686 73.4174C65.0779 73.4174 65.3773 73.3457 65.6671 73.2025C66.1553 72.9649 66.3995 72.5759 66.3995 72.0355V71.3275C66.2921 71.3959 66.1537 71.4528 65.9844 71.4984C65.8152 71.544 65.6491 71.5765 65.4864 71.5961L64.9542 71.6644C64.6352 71.7067 64.3959 71.7735 64.2364 71.8646C63.9662 72.0176 63.8311 72.2618 63.8311 72.597ZM65.96 70.8197C66.1618 70.7937 66.2969 70.709 66.3653 70.5658C66.4044 70.4877 66.4239 70.3754 66.4239 70.2289C66.4239 69.9294 66.3165 69.7129 66.1016 69.5795C65.89 69.4427 65.5857 69.3744 65.1885 69.3744C64.7296 69.3744 64.404 69.4981 64.212 69.7455C64.1046 69.8822 64.0346 70.0856 64.002 70.3558H63.1817C63.198 69.7113 63.4063 69.2637 63.8067 69.0131C64.2103 68.7591 64.6775 68.6322 65.2081 68.6322C65.8233 68.6322 66.323 68.7494 66.7071 68.9838C67.088 69.2181 67.2784 69.5827 67.2784 70.0775V73.0902C67.2784 73.1813 67.2963 73.2546 67.3321 73.3099C67.3712 73.3653 67.4509 73.3929 67.5714 73.3929C67.6104 73.3929 67.6544 73.3913 67.7032 73.3881C67.752 73.3815 67.8041 73.3734 67.8594 73.3636V74.0131C67.7227 74.0521 67.6186 74.0765 67.5469 74.0863C67.4753 74.0961 67.3777 74.1009 67.254 74.1009C66.9512 74.1009 66.7315 73.9935 66.5948 73.7787C66.5232 73.6647 66.4727 73.5036 66.4434 73.2953C66.2644 73.5297 66.0072 73.7331 65.6719 73.9056C65.3366 74.0782 64.9672 74.1644 64.5635 74.1644C64.0785 74.1644 63.6814 74.0179 63.3721 73.725C63.0661 73.4287 62.9131 73.0593 62.9131 72.6166C62.9131 72.1315 63.0645 71.7556 63.3672 71.4886C63.67 71.2217 64.0671 71.0573 64.5587 70.9955L65.96 70.8197ZM68.8995 67.2992H69.7881V68.7591H70.6231V69.4769H69.7881V72.89C69.7881 73.0723 69.85 73.1944 69.9737 73.2562C70.0421 73.292 70.156 73.3099 70.3155 73.3099C70.3578 73.3099 70.4034 73.3099 70.4522 73.3099C70.501 73.3067 70.558 73.3018 70.6231 73.2953V73.9886C70.5222 74.0179 70.4164 74.0391 70.3057 74.0521C70.1983 74.0651 70.0811 74.0716 69.9542 74.0716C69.544 74.0716 69.2657 73.9675 69.1192 73.7591C68.9727 73.5476 68.8995 73.2741 68.8995 72.9388V69.4769H68.1915V68.7591H68.8995V67.2992ZM71.5069 66.7914H72.3858V69.4672C72.5941 69.2035 72.7813 69.0179 72.9473 68.9105C73.2305 68.725 73.5837 68.6322 74.0069 68.6322C74.7654 68.6322 75.2797 68.8975 75.5499 69.4281C75.6964 69.7178 75.7696 70.1198 75.7696 70.6341V73.9886H74.8663V70.6927C74.8663 70.3086 74.8174 70.0271 74.7198 69.848C74.5603 69.5616 74.2608 69.4183 73.8214 69.4183C73.4568 69.4183 73.1264 69.5437 72.8301 69.7943C72.5339 70.045 72.3858 70.5186 72.3858 71.2152V73.9886H71.5069V66.7914ZM79.251 68.642C79.6221 68.642 79.9818 68.7299 80.3301 68.9056C80.6784 69.0782 80.9437 69.3028 81.126 69.5795C81.3018 69.8431 81.419 70.1507 81.4776 70.5023C81.5297 70.7432 81.5557 71.1273 81.5557 71.6547H77.7227C77.739 72.1853 77.8643 72.6117 78.0987 72.934C78.3331 73.253 78.696 73.4125 79.1876 73.4125C79.6465 73.4125 80.0128 73.2611 80.2862 72.9584C80.4424 72.7826 80.5531 72.5791 80.6182 72.348H81.4825C81.4597 72.5401 81.3832 72.7549 81.253 72.9925C81.126 73.2269 80.9828 73.419 80.8233 73.5687C80.5564 73.8291 80.226 74.0049 79.8321 74.0961C79.6205 74.1481 79.3812 74.1742 79.1143 74.1742C78.4633 74.1742 77.9115 73.9382 77.459 73.4662C77.0066 72.9909 76.7803 72.3269 76.7803 71.474C76.7803 70.6341 77.0082 69.9522 77.4639 69.4281C77.9197 68.904 78.5154 68.642 79.251 68.642ZM80.6524 70.9564C80.6166 70.5756 80.5336 70.2712 80.4034 70.0433C80.1625 69.6202 79.7605 69.4086 79.1973 69.4086C78.7937 69.4086 78.4551 69.555 78.1817 69.848C77.9083 70.1377 77.7634 70.5072 77.7471 70.9564H80.6524ZM82.6641 68.7591H83.4991V69.6625C83.5674 69.4867 83.7351 69.2735 84.002 69.0228C84.2689 68.7689 84.5766 68.642 84.9249 68.642C84.9411 68.642 84.9688 68.6436 85.0079 68.6468C85.0469 68.6501 85.1137 68.6566 85.2081 68.6664V69.5941C85.156 69.5843 85.1072 69.5778 85.0616 69.5746C85.0193 69.5713 84.9721 69.5697 84.92 69.5697C84.4773 69.5697 84.1371 69.7129 83.8995 69.9994C83.6618 70.2826 83.543 70.6097 83.543 70.9808V73.9886H82.6641V68.7591ZM89.4268 72.597C89.4268 72.8509 89.5196 73.0511 89.7051 73.1976C89.8907 73.3441 90.1104 73.4174 90.3643 73.4174C90.6736 73.4174 90.973 73.3457 91.2628 73.2025C91.751 72.9649 91.9952 72.5759 91.9952 72.0355V71.3275C91.8878 71.3959 91.7494 71.4528 91.5801 71.4984C91.4109 71.544 91.2449 71.5765 91.0821 71.5961L90.5499 71.6644C90.2309 71.7067 89.9916 71.7735 89.8321 71.8646C89.5619 72.0176 89.4268 72.2618 89.4268 72.597ZM91.5557 70.8197C91.7575 70.7937 91.8926 70.709 91.961 70.5658C92.0001 70.4877 92.0196 70.3754 92.0196 70.2289C92.0196 69.9294 91.9122 69.7129 91.6973 69.5795C91.4857 69.4427 91.1814 69.3744 90.7842 69.3744C90.3253 69.3744 89.9997 69.4981 89.8077 69.7455C89.7003 69.8822 89.6303 70.0856 89.5977 70.3558H88.7774C88.7937 69.7113 89.002 69.2637 89.4024 69.0131C89.8061 68.7591 90.2732 68.6322 90.8038 68.6322C91.419 68.6322 91.9187 68.7494 92.3028 68.9838C92.6837 69.2181 92.8741 69.5827 92.8741 70.0775V73.0902C92.8741 73.1813 92.892 73.2546 92.9278 73.3099C92.9669 73.3653 93.0466 73.3929 93.1671 73.3929C93.2061 73.3929 93.2501 73.3913 93.2989 73.3881C93.3477 73.3815 93.3998 73.3734 93.4551 73.3636V74.0131C93.3184 74.0521 93.2143 74.0765 93.1426 74.0863C93.071 74.0961 92.9734 74.1009 92.8497 74.1009C92.5469 74.1009 92.3272 73.9935 92.1905 73.7787C92.1189 73.6647 92.0684 73.5036 92.0391 73.2953C91.8601 73.5297 91.6029 73.7331 91.2676 73.9056C90.9324 74.0782 90.5629 74.1644 90.1592 74.1644C89.6742 74.1644 89.2771 74.0179 88.9678 73.725C88.6618 73.4287 88.5089 73.0593 88.5089 72.6166C88.5089 72.1315 88.6602 71.7556 88.963 71.4886C89.2657 71.2217 89.6628 71.0573 90.1544 70.9955L91.5557 70.8197ZM96.5264 73.3978C96.9366 73.3978 97.2768 73.2269 97.5469 72.8851C97.8204 72.5401 97.9571 72.0257 97.9571 71.3422C97.9571 70.9255 97.8969 70.5674 97.7764 70.2679C97.5486 69.6918 97.1319 69.4037 96.5264 69.4037C95.9177 69.4037 95.501 69.708 95.2764 70.3168C95.156 70.6423 95.0958 71.0557 95.0958 71.557C95.0958 71.9606 95.156 72.3041 95.2764 72.5873C95.5043 73.1276 95.921 73.3978 96.5264 73.3978ZM94.251 68.7836H95.1055V69.4769C95.2813 69.2393 95.4734 69.0554 95.6817 68.9252C95.9779 68.7299 96.3262 68.6322 96.7266 68.6322C97.3191 68.6322 97.822 68.8601 98.2354 69.3158C98.6488 69.7683 98.8555 70.416 98.8555 71.2591C98.8555 72.3985 98.5577 73.2123 97.962 73.7006C97.5844 74.0098 97.1449 74.1644 96.6436 74.1644C96.2497 74.1644 95.9193 74.0782 95.6524 73.9056C95.4962 73.808 95.322 73.6403 95.1299 73.4027V76.0736H94.251V68.7836ZM102.093 73.3978C102.503 73.3978 102.843 73.2269 103.113 72.8851C103.387 72.5401 103.523 72.0257 103.523 71.3422C103.523 70.9255 103.463 70.5674 103.343 70.2679C103.115 69.6918 102.698 69.4037 102.093 69.4037C101.484 69.4037 101.067 69.708 100.843 70.3168C100.722 70.6423 100.662 71.0557 100.662 71.557C100.662 71.9606 100.722 72.3041 100.843 72.5873C101.071 73.1276 101.487 73.3978 102.093 73.3978ZM99.8174 68.7836H100.672V69.4769C100.848 69.2393 101.04 69.0554 101.248 68.9252C101.544 68.7299 101.893 68.6322 102.293 68.6322C102.885 68.6322 103.388 68.8601 103.802 69.3158C104.215 69.7683 104.422 70.416 104.422 71.2591C104.422 72.3985 104.124 73.2123 103.528 73.7006C103.151 74.0098 102.711 74.1644 102.21 74.1644C101.816 74.1644 101.486 74.0782 101.219 73.9056C101.063 73.808 100.888 73.6403 100.696 73.4027V76.0736H99.8174V68.7836Z" fill="black"/>
</svg>
