<svg width="313" height="81" viewBox="0 0 313 81" fill="none" xmlns="http://www.w3.org/2000/svg">
    <path d="M13.3359 30.2344C13.1641 29.2031 12.8438 28.3906 12.375 27.7969C11.9062 27.1875 11.4297 26.75 10.9453 26.4844C10.5547 26.2656 10.1641 26.1016 9.77344 25.9922C9.39844 25.8828 9.07031 25.7812 8.78906 25.6875C8.49219 25.5781 8.27344 25.4609 8.13281 25.3359C7.99219 25.2109 7.92188 25.0391 7.92188 24.8203C7.92188 24.3672 8.22656 24.1406 8.83594 24.1406C9.11719 24.1406 9.39062 24.1719 9.65625 24.2344C9.92188 24.2969 10.2422 24.3672 10.6172 24.4453C10.9922 24.5234 11.4375 24.6172 11.9531 24.7266C12.4688 24.8203 13.1094 24.8984 13.875 24.9609C14.5781 25.0234 15.1719 25.0625 15.6562 25.0781C16.1406 25.0781 16.5469 25.0859 16.875 25.1016C17.2188 25.1016 17.5078 25.1172 17.7422 25.1484C17.9766 25.1641 18.1875 25.2109 18.375 25.2891C18.6562 25.4141 19.0234 25.7188 19.4766 26.2031C19.9453 26.6875 20.4609 27.2812 21.0234 27.9844C21.6016 28.6875 22.2109 29.4688 22.8516 30.3281C23.4922 31.1875 24.125 32.0625 24.75 32.9531C25.3906 33.8281 26.0078 34.6797 26.6016 35.5078C27.2109 36.3359 27.7578 37.0703 28.2422 37.7109C28.7422 38.3516 29.1641 38.8672 29.5078 39.2578C29.8672 39.6484 30.1094 39.8438 30.2344 39.8438C30.5 39.8438 31.0156 39.125 31.7812 37.6875C32.5625 36.2344 33.6641 34.0703 35.0859 31.1953C35.4766 30.3984 35.875 29.5547 36.2812 28.6641C36.7031 27.7578 37.1094 26.8672 37.5 25.9922C37.9062 25.1016 38.2891 24.25 38.6484 23.4375C39.0078 22.625 39.3359 21.9062 39.6328 21.2812C39.9453 20.6562 40.2188 20.1562 40.4531 19.7812C40.6875 19.3906 40.8672 19.1797 40.9922 19.1484C41.0703 19.1172 41.1484 19.1016 41.2266 19.1016C41.3203 19.1016 41.4219 19.1016 41.5312 19.1016C41.8125 19.1016 42.2031 19.1094 42.7031 19.125C43.2031 19.1406 43.8516 19.1484 44.6484 19.1484C45.1328 19.1484 45.5703 19.1328 45.9609 19.1016C46.3516 19.0547 46.6953 19.0078 46.9922 18.9609C47.3047 18.9141 47.5859 18.875 47.8359 18.8438C48.0859 18.7969 48.3203 18.7734 48.5391 18.7734C48.8672 18.7734 49.0781 18.8203 49.1719 18.9141C49.2812 19.0078 49.3359 19.1172 49.3359 19.2422C49.3359 19.5234 49.1016 19.7344 48.6328 19.875C48.1797 20.0156 47.5391 20.1641 46.7109 20.3203C45.8984 20.4609 44.9844 20.7109 43.9688 21.0703C43.3438 21.2891 42.9062 21.6875 42.6562 22.2656C42.4062 22.8281 42.2812 23.5312 42.2812 24.375C42.2812 24.9844 42.3281 25.7656 42.4219 26.7188C42.5312 27.6562 42.6719 28.7031 42.8438 29.8594C43.0312 31 43.25 32.2188 43.5 33.5156C43.75 34.7969 44.0156 36.0938 44.2969 37.4062C44.5938 38.7031 44.8984 39.9688 45.2109 41.2031C45.5391 42.4375 45.8672 43.5781 46.1953 44.625C46.5234 45.6719 46.8438 46.5938 47.1562 47.3906C47.4844 48.1719 47.7969 48.7578 48.0938 49.1484C48.375 49.5234 48.6562 49.8438 48.9375 50.1094C49.2344 50.375 49.5547 50.6016 49.8984 50.7891C50.2578 50.9766 50.6406 51.1406 51.0469 51.2812C51.4688 51.4219 51.9375 51.5625 52.4531 51.7031C52.9531 51.8281 53.2969 51.9609 53.4844 52.1016C53.6719 52.2422 53.7656 52.4141 53.7656 52.6172C53.7656 52.8359 53.6328 53.0156 53.3672 53.1562C53.1172 53.2969 52.7188 53.3672 52.1719 53.3672C51.5156 53.3672 50.8281 53.3438 50.1094 53.2969C49.4062 53.25 48.625 53.2266 47.7656 53.2266C46.375 53.2266 45.1016 53.3281 43.9453 53.5312C42.8047 53.7344 41.7578 53.9609 40.8047 54.2109C39.8672 54.4609 39.0156 54.6875 38.25 54.8906C37.4844 55.0938 36.7812 55.1953 36.1406 55.1953C35.9688 55.1953 35.7969 55.1641 35.625 55.1016C35.4531 55.0391 35.3672 54.8984 35.3672 54.6797C35.3672 54.4453 35.5078 54.25 35.7891 54.0938C36.0703 53.9531 36.4297 53.8203 36.8672 53.6953C37.3203 53.5547 37.8203 53.4141 38.3672 53.2734C38.9141 53.1328 39.4531 52.9453 39.9844 52.7109C40.5312 52.4609 40.9219 52.1406 41.1562 51.75C41.4062 51.3438 41.5312 50.8281 41.5312 50.2031C41.5312 49.8438 41.4688 49.2812 41.3438 48.5156C41.2344 47.75 41.0859 46.8594 40.8984 45.8438C40.7109 44.8281 40.4922 43.7344 40.2422 42.5625C40.0078 41.3906 39.7578 40.2188 39.4922 39.0469C39.2422 37.875 38.9844 36.75 38.7188 35.6719C38.4688 34.5781 38.2422 33.6172 38.0391 32.7891C37.8359 31.9609 37.6562 31.2969 37.5 30.7969C37.3594 30.2969 37.2734 30.0469 37.2422 30.0469C37.1953 30.0469 37.0469 30.2578 36.7969 30.6797C36.5625 31.1016 36.2656 31.6641 35.9062 32.3672C35.5469 33.0703 35.1406 33.875 34.6875 34.7812C34.2344 35.6875 33.7734 36.6172 33.3047 37.5703C32.8516 38.5234 32.3984 39.4688 31.9453 40.4062C31.4922 41.3438 31.0781 42.2031 30.7031 42.9844C30.3281 43.75 30.0156 44.3984 29.7656 44.9297C29.5156 45.4453 29.3516 45.7656 29.2734 45.8906C29.1172 46.1875 28.9531 46.5 28.7812 46.8281C28.6094 47.1562 28.4297 47.4609 28.2422 47.7422C28.0703 48.0078 27.9062 48.2344 27.75 48.4219C27.5938 48.5938 27.4609 48.6797 27.3516 48.6797C27.2578 48.6797 27.1328 48.6094 26.9766 48.4688C26.8359 48.3125 26.6875 48.125 26.5312 47.9062C26.375 47.6875 26.2109 47.4531 26.0391 47.2031C25.8828 46.9531 25.75 46.7266 25.6406 46.5234C25.2344 45.8203 24.7578 44.9922 24.2109 44.0391C23.6641 43.0703 23.0859 42.0625 22.4766 41.0156C21.8828 39.9531 21.2891 38.8906 20.6953 37.8281C20.1172 36.7656 19.5703 35.7891 19.0547 34.8984C18.5547 33.9922 18.125 33.2188 17.7656 32.5781C17.4062 31.9219 17.1641 31.4766 17.0391 31.2422C16.7734 30.7734 16.5469 30.3828 16.3594 30.0703C16.1719 29.7422 16.0078 29.4844 15.8672 29.2969C15.7422 29.1094 15.6328 28.9766 15.5391 28.8984C15.4453 28.8047 15.3516 28.7578 15.2578 28.7578C15.1328 28.7578 15.0703 28.8828 15.0703 29.1328C15.0703 29.3828 15.0938 29.7266 15.1406 30.1641C15.1875 30.5859 15.2266 30.9609 15.2578 31.2891C15.4141 32.8047 15.5156 34.2266 15.5625 35.5547C15.625 36.8672 15.6562 38.1328 15.6562 39.3516C15.6562 40.4453 15.5938 41.6328 15.4688 42.9141C15.3438 44.1797 15.1328 45.4531 14.8359 46.7344C14.5391 48 14.1328 49.2188 13.6172 50.3906C13.1172 51.5625 12.4766 52.6016 11.6953 53.5078C10.9141 54.4141 9.98438 55.1328 8.90625 55.6641C7.84375 56.2109 6.60156 56.4844 5.17969 56.4844C4.35156 56.4844 3.61719 56.3516 2.97656 56.0859C2.33594 55.8203 1.78906 55.4609 1.33594 55.0078C0.898438 54.5703 0.5625 54.0703 0.328125 53.5078C0.109375 52.9297 0 52.3281 0 51.7031C0 51.2656 0.0546875 50.8281 0.164062 50.3906C0.289062 49.9531 0.484375 49.5703 0.75 49.2422C1.01562 48.8984 1.35156 48.625 1.75781 48.4219C2.16406 48.2031 2.66406 48.0938 3.25781 48.0938C3.72656 48.0938 4.14062 48.1797 4.5 48.3516C4.875 48.5078 5.20312 48.7109 5.48438 48.9609C5.78125 49.1953 6.04688 49.4609 6.28125 49.7578C6.51562 50.0547 6.72656 50.3359 6.91406 50.6016C7.57031 51.4922 8.28906 51.9375 9.07031 51.9375C9.75781 51.9375 10.3516 51.7266 10.8516 51.3047C11.3516 50.8828 11.7812 50.3203 12.1406 49.6172C12.5156 48.8984 12.8203 48.0781 13.0547 47.1562C13.2891 46.2344 13.4688 45.2734 13.5938 44.2734C13.7344 43.2734 13.8281 42.2734 13.875 41.2734C13.9375 40.2578 13.9688 39.3125 13.9688 38.4375C13.9688 36.8906 13.9062 35.4141 13.7812 34.0078C13.6562 32.6016 13.5078 31.3438 13.3359 30.2344ZM71.5078 41.5781C71.7266 41.9375 71.9219 42.4219 72.0938 43.0312C72.2812 43.6406 72.375 44.2578 72.375 44.8828C72.375 46.0234 72.1875 47.0469 71.8125 47.9531C71.4375 48.8438 70.8984 49.6016 70.1953 50.2266C69.4922 50.8359 68.6406 51.3047 67.6406 51.6328C66.6562 51.9609 65.5469 52.125 64.3125 52.125C62.5312 52.125 60.9375 51.8281 59.5312 51.2344C58.1406 50.625 56.9688 49.7812 56.0156 48.7031C55.0625 47.625 54.3359 46.3438 53.8359 44.8594C53.3359 43.3594 53.0859 41.7188 53.0859 39.9375C53.0859 38.3281 53.2578 36.8672 53.6016 35.5547C53.9453 34.2422 54.4141 33.0703 55.0078 32.0391C55.6016 31.0078 56.2891 30.1094 57.0703 29.3438C57.8516 28.5781 58.6797 27.9453 59.5547 27.4453C60.4297 26.9453 61.3203 26.5781 62.2266 26.3438C63.1328 26.0938 64.0078 25.9688 64.8516 25.9688C65.6797 25.9688 66.5391 26.0781 67.4297 26.2969C68.3203 26.5156 69.1328 26.8906 69.8672 27.4219C70.6172 27.9531 71.2266 28.6562 71.6953 29.5312C72.1797 30.3906 72.4219 31.4766 72.4219 32.7891C72.4219 33.9297 72.25 34.9297 71.9062 35.7891C71.5781 36.6484 71.1406 37.3906 70.5938 38.0156C70.0469 38.6406 69.4219 39.1562 68.7188 39.5625C68.0312 39.9688 67.3203 40.2969 66.5859 40.5469C65.8672 40.7812 65.1562 40.9453 64.4531 41.0391C63.7656 41.1328 63.1562 41.1797 62.625 41.1797C61.8594 41.1797 61.1094 41.125 60.375 41.0156C59.6562 40.9062 59.0938 40.7891 58.6875 40.6641C58.75 41.8828 58.9375 43.0625 59.25 44.2031C59.5781 45.3281 60.0391 46.3203 60.6328 47.1797C61.2266 48.0391 61.9609 48.7266 62.8359 49.2422C63.7266 49.7578 64.7656 50.0156 65.9531 50.0156C66.7812 50.0156 67.4922 49.875 68.0859 49.5938C68.6953 49.3125 69.1953 48.9375 69.5859 48.4688C69.9766 47.9844 70.2656 47.4297 70.4531 46.8047C70.6406 46.1797 70.7344 45.5234 70.7344 44.8359C70.7344 44.4297 70.7031 44.0078 70.6406 43.5703C70.5938 43.1328 70.5 42.7188 70.3594 42.3281C70.2656 42.0938 70.1875 41.875 70.125 41.6719C70.0625 41.4688 70.0312 41.3047 70.0312 41.1797C70.0312 40.8672 70.1719 40.7109 70.4531 40.7109C70.5938 40.7109 70.7578 40.7812 70.9453 40.9219C71.1484 41.0625 71.3359 41.2812 71.5078 41.5781ZM58.5938 39.1172C59 39.2422 59.4609 39.3516 59.9766 39.4453C60.4922 39.5234 61.1406 39.5625 61.9219 39.5625C62.8281 39.5625 63.6641 39.3906 64.4297 39.0469C65.1953 38.7031 65.8516 38.2266 66.3984 37.6172C66.9453 36.9922 67.375 36.2422 67.6875 35.3672C68 34.4922 68.1562 33.5156 68.1562 32.4375C68.1562 31.4844 68.0469 30.6875 67.8281 30.0469C67.625 29.3906 67.3516 28.8672 67.0078 28.4766C66.6641 28.0859 66.2656 27.8125 65.8125 27.6562C65.375 27.4844 64.9219 27.3984 64.4531 27.3984C63.8594 27.3984 63.2188 27.5781 62.5312 27.9375C61.8438 28.2969 61.2031 28.9219 60.6094 29.8125C60.0312 30.7031 59.5469 31.9062 59.1562 33.4219C58.7812 34.9219 58.5938 36.8203 58.5938 39.1172ZM74.1797 39.6094C74.1797 37.8594 74.4531 36.2812 75 34.875C75.5469 33.4531 76.3203 32.2422 77.3203 31.2422C78.3203 30.2422 79.5234 29.4766 80.9297 28.9453C82.3516 28.3984 83.9219 28.125 85.6406 28.125C87.1875 28.125 88.6094 28.3828 89.9062 28.8984C91.2188 29.4141 92.3516 30.1562 93.3047 31.125C94.2578 32.0781 95 33.2422 95.5312 34.6172C96.0781 35.9766 96.3516 37.5078 96.3516 39.2109C96.3516 41.2266 96.0156 42.9531 95.3438 44.3906C94.6875 45.8281 93.8359 47.0078 92.7891 47.9297C91.7578 48.8516 90.6016 49.5312 89.3203 49.9688C88.0391 50.3906 86.7812 50.6016 85.5469 50.6016C84.0625 50.6016 82.6328 50.3594 81.2578 49.875C79.8984 49.375 78.6953 48.6562 77.6484 47.7188C76.6016 46.7812 75.7578 45.6328 75.1172 44.2734C74.4922 42.8984 74.1797 41.3438 74.1797 39.6094ZM85.3125 29.0391C84.4219 29.0391 83.6484 29.2656 82.9922 29.7188C82.3516 30.1562 81.8203 30.7578 81.3984 31.5234C80.9766 32.2734 80.6641 33.1562 80.4609 34.1719C80.2734 35.1719 80.1797 36.2266 80.1797 37.3359C80.1797 38.2578 80.2344 39.1875 80.3438 40.125C80.4531 41.0625 80.6172 41.9688 80.8359 42.8438C81.0703 43.7031 81.3516 44.5156 81.6797 45.2812C82.0234 46.0312 82.4297 46.6875 82.8984 47.25C83.3672 47.8125 83.8984 48.2578 84.4922 48.5859C85.1016 48.8984 85.7734 49.0547 86.5078 49.0547C87.4609 49.0547 88.2578 48.8438 88.8984 48.4219C89.5547 47.9844 90.0781 47.4219 90.4688 46.7344C90.8594 46.0312 91.1328 45.25 91.2891 44.3906C91.4609 43.5156 91.5469 42.6406 91.5469 41.7656C91.5469 39.6094 91.3906 37.7344 91.0781 36.1406C90.7656 34.5469 90.3281 33.2266 89.7656 32.1797C89.2031 31.1172 88.5391 30.3281 87.7734 29.8125C87.0234 29.2969 86.2031 29.0391 85.3125 29.0391ZM110.32 30.7734C110.32 30.8984 110.25 31.0234 110.109 31.1484C109.984 31.2578 109.828 31.3672 109.641 31.4766C109.469 31.5859 109.281 31.7031 109.078 31.8281C108.891 31.9375 108.727 32.0469 108.586 32.1562C108.32 32.4062 108.141 32.6797 108.047 32.9766C107.969 33.2734 107.93 33.5781 107.93 33.8906C107.93 34.25 108.008 34.8125 108.164 35.5781C108.32 36.3438 108.523 37.1953 108.773 38.1328C109.023 39.0547 109.289 40.0078 109.57 40.9922C109.867 41.9766 110.148 42.875 110.414 43.6875C110.68 44.5 110.914 45.1641 111.117 45.6797C111.32 46.1953 111.453 46.4531 111.516 46.4531C111.594 46.4531 111.742 46.2109 111.961 45.7266C112.18 45.2422 112.445 44.6172 112.758 43.8516C113.07 43.0859 113.406 42.2266 113.766 41.2734C114.141 40.3047 114.508 39.3438 114.867 38.3906C115.242 37.4375 115.602 36.5391 115.945 35.6953C116.289 34.8516 116.586 34.1562 116.836 33.6094C116.945 33.3906 117.055 33.2188 117.164 33.0938C117.273 32.9531 117.391 32.8828 117.516 32.8828C117.656 32.8828 117.781 32.9531 117.891 33.0938C118 33.2188 118.117 33.3906 118.242 33.6094C118.508 34.1094 118.82 34.7188 119.18 35.4375C119.555 36.1406 119.945 36.8828 120.352 37.6641C120.758 38.4453 121.164 39.2266 121.57 40.0078C121.977 40.7734 122.352 41.4688 122.695 42.0938C123.039 42.7031 123.328 43.2031 123.562 43.5938C123.812 43.9688 123.977 44.1562 124.055 44.1562C124.117 44.1562 124.227 43.9219 124.383 43.4531C124.555 42.9688 124.734 42.3594 124.922 41.625C125.109 40.8906 125.305 40.0781 125.508 39.1875C125.727 38.2969 125.922 37.4453 126.094 36.6328C126.266 35.8203 126.406 35.1016 126.516 34.4766C126.625 33.8359 126.68 33.3984 126.68 33.1641C126.68 32.8828 126.625 32.6797 126.516 32.5547C126.422 32.4141 126.242 32.3438 125.977 32.3438C125.758 32.3438 125.5 32.3672 125.203 32.4141C124.906 32.4609 124.602 32.4844 124.289 32.4844C124.102 32.4844 123.961 32.4453 123.867 32.3672C123.789 32.2891 123.75 32.2031 123.75 32.1094C123.75 31.9844 123.781 31.8906 123.844 31.8281C123.922 31.7656 124.008 31.7188 124.102 31.6875C124.367 31.6094 124.836 31.5625 125.508 31.5469C126.195 31.5156 127.07 31.3984 128.133 31.1953C129.242 31.0078 130.148 30.7969 130.852 30.5625C131.555 30.3125 132.102 30.1875 132.492 30.1875C132.852 30.1875 133.031 30.3203 133.031 30.5859C133.031 30.8047 132.898 30.9609 132.633 31.0547C132.398 31.1484 132.094 31.25 131.719 31.3594C131.359 31.4531 130.961 31.5781 130.523 31.7344C130.195 31.8438 129.914 31.9688 129.68 32.1094C129.461 32.25 129.266 32.4219 129.094 32.625C128.938 32.8125 128.797 33.0469 128.672 33.3281C128.547 33.6094 128.43 33.9375 128.32 34.3125C128.211 34.6562 128.07 35.1562 127.898 35.8125C127.727 36.4688 127.531 37.2188 127.312 38.0625C127.094 38.9062 126.852 39.8125 126.586 40.7812C126.32 41.7344 126.047 42.6953 125.766 43.6641C125.5 44.6172 125.227 45.5391 124.945 46.4297C124.664 47.3047 124.383 48.0781 124.102 48.75C123.836 49.4219 123.578 49.9609 123.328 50.3672C123.094 50.7734 122.883 50.9766 122.695 50.9766C122.492 50.9766 122.234 50.8203 121.922 50.5078C121.609 50.1797 121.266 49.7578 120.891 49.2422C120.531 48.7266 120.141 48.1406 119.719 47.4844C119.312 46.8125 118.914 46.1328 118.523 45.4453C117.586 43.8203 116.594 41.9688 115.547 39.8906C115.516 40 115.414 40.2812 115.242 40.7344C115.086 41.1719 114.891 41.7031 114.656 42.3281C114.438 42.9375 114.195 43.6016 113.93 44.3203C113.664 45.0234 113.406 45.6953 113.156 46.3359C112.922 46.9766 112.703 47.5469 112.5 48.0469C112.312 48.5469 112.18 48.8984 112.102 49.1016C111.852 49.7578 111.578 50.4375 111.281 51.1406C111 51.8281 110.719 52.4688 110.438 53.0625C110.156 53.6406 109.898 54.1172 109.664 54.4922C109.43 54.8672 109.234 55.0547 109.078 55.0547C108.922 55.0547 108.711 54.8281 108.445 54.375C108.18 53.9219 107.883 53.3203 107.555 52.5703C107.227 51.8203 106.875 50.9609 106.5 49.9922C106.141 49.0078 105.773 47.9922 105.398 46.9453C105.023 45.8828 104.656 44.8359 104.297 43.8047C103.938 42.7578 103.609 41.7891 103.312 40.8984C103.016 40.0078 102.75 39.2344 102.516 38.5781C102.297 37.9219 102.133 37.4609 102.023 37.1953C101.82 36.7109 101.57 36.3828 101.273 36.2109C100.977 36.0391 100.648 35.9531 100.289 35.9531C99.8984 35.9531 99.5234 36 99.1641 36.0938C98.8203 36.1875 98.5078 36.2344 98.2266 36.2344C98.0859 36.2344 97.9453 36.1953 97.8047 36.1172C97.6641 36.0391 97.5938 35.9062 97.5938 35.7188C97.5938 35.4531 97.6953 35.2656 97.8984 35.1562C98.1016 35.0469 98.3672 34.9453 98.6953 34.8516C98.9766 34.7891 99.3359 34.7031 99.7734 34.5938C100.227 34.4844 100.719 34.3594 101.25 34.2188C101.781 34.0625 102.328 33.8906 102.891 33.7031C103.469 33.5156 104.008 33.3047 104.508 33.0703C105.305 32.7109 106 32.3672 106.594 32.0391C107.188 31.7109 107.695 31.4219 108.117 31.1719C108.539 30.9062 108.891 30.7031 109.172 30.5625C109.469 30.4062 109.711 30.3281 109.898 30.3281C110.023 30.3281 110.125 30.3672 110.203 30.4453C110.281 30.5078 110.32 30.6172 110.32 30.7734ZM161.766 12.1406C162.766 12.1406 163.625 12.2812 164.344 12.5625C165.062 12.8438 165.656 13.2266 166.125 13.7109C166.594 14.1953 166.938 14.75 167.156 15.375C167.391 16 167.508 16.6484 167.508 17.3203C167.508 18.6484 167.234 19.9141 166.688 21.1172C166.141 22.3203 165.438 23.5 164.578 24.6562C163.719 25.8125 162.766 26.9609 161.719 28.1016C160.688 29.2422 159.68 30.4219 158.695 31.6406C159.32 32.9531 159.977 34.2109 160.664 35.4141C161.352 36.6016 162.008 37.6797 162.633 38.6484C163.273 39.6172 163.852 40.4609 164.367 41.1797C164.898 41.8984 165.305 42.4453 165.586 42.8203C165.82 43.1328 166.117 43.5 166.477 43.9219C166.836 44.3438 167.242 44.8047 167.695 45.3047C168.148 45.7891 168.641 46.2969 169.172 46.8281C169.719 47.3438 170.273 47.8594 170.836 48.375C171.508 47.6094 172.094 46.7969 172.594 45.9375C173.094 45.0625 173.508 44.1875 173.836 43.3125C174.164 42.4375 174.406 41.5781 174.562 40.7344C174.734 39.875 174.82 39.0781 174.82 38.3438C174.82 36.8125 174.594 35.7266 174.141 35.0859C173.688 34.4453 173.109 34.125 172.406 34.125C171.906 34.125 171.312 34.2031 170.625 34.3594C169.938 34.5 169.234 34.6562 168.516 34.8281C167.812 35 167.141 35.1641 166.5 35.3203C165.859 35.4609 165.336 35.5312 164.93 35.5312C164.68 35.5312 164.477 35.4922 164.32 35.4141C164.18 35.3359 164.109 35.2109 164.109 35.0391C164.109 34.8359 164.25 34.6875 164.531 34.5938C164.828 34.4844 165.266 34.3594 165.844 34.2188C166.422 34.0625 167.141 33.8438 168 33.5625C168.875 33.2812 169.898 32.8594 171.07 32.2969C172.039 31.8281 172.859 31.3359 173.531 30.8203C174.203 30.2891 174.766 29.8047 175.219 29.3672C175.672 28.9141 176.039 28.5391 176.32 28.2422C176.602 27.9453 176.836 27.7969 177.023 27.7969C177.195 27.7969 177.344 27.9062 177.469 28.125C177.609 28.3438 177.727 28.6406 177.82 29.0156C177.914 29.375 177.984 29.8047 178.031 30.3047C178.094 30.7891 178.125 31.2969 178.125 31.8281C178.125 33.4531 178 35.0781 177.75 36.7031C177.5 38.3281 177.125 39.9062 176.625 41.4375C176.125 42.9531 175.492 44.3984 174.727 45.7734C173.977 47.1328 173.094 48.3672 172.078 49.4766C172.609 49.9297 173.133 50.3516 173.648 50.7422C174.18 51.1172 174.695 51.4453 175.195 51.7266C175.695 52.0078 176.172 52.2266 176.625 52.3828C177.094 52.5391 177.531 52.6172 177.938 52.6172C178.281 52.6172 178.602 52.5156 178.898 52.3125C179.211 52.0938 179.5 51.8203 179.766 51.4922C180.031 51.1641 180.273 50.8203 180.492 50.4609C180.727 50.0859 180.938 49.7344 181.125 49.4062C181.312 49.0781 181.484 48.8125 181.641 48.6094C181.797 48.3906 181.938 48.2812 182.062 48.2812C182.219 48.2812 182.297 48.4141 182.297 48.6797C182.297 48.9141 182.188 49.3281 181.969 49.9219C181.766 50.5156 181.492 51.1875 181.148 51.9375C180.82 52.6719 180.438 53.4375 180 54.2344C179.562 55.0469 179.117 55.7891 178.664 56.4609C178.227 57.1328 177.797 57.6797 177.375 58.1016C176.969 58.5391 176.609 58.7578 176.297 58.7578C176.016 58.7578 175.617 58.6484 175.102 58.4297C174.586 58.2266 173.969 57.8906 173.25 57.4219C172.531 56.9531 171.719 56.3359 170.812 55.5703C169.922 54.8047 168.953 53.8672 167.906 52.7578C166.797 53.3516 165.594 53.8203 164.297 54.1641C163.016 54.5078 161.625 54.6797 160.125 54.6797C158.297 54.6797 156.617 54.4375 155.086 53.9531C153.57 53.4688 152.266 52.75 151.172 51.7969C150.078 50.8438 149.227 49.6562 148.617 48.2344C148.008 46.8125 147.703 45.1641 147.703 43.2891C147.703 42.0234 147.867 40.8203 148.195 39.6797C148.523 38.5391 148.969 37.4453 149.531 36.3984C150.094 35.3516 150.75 34.3438 151.5 33.375C152.266 32.4062 153.078 31.4766 153.938 30.5859C153.078 27.8203 152.648 25.0312 152.648 22.2188C152.648 20.6094 152.875 19.1797 153.328 17.9297C153.797 16.6641 154.438 15.6094 155.25 14.7656C156.062 13.9062 157.023 13.2578 158.133 12.8203C159.258 12.3672 160.469 12.1406 161.766 12.1406ZM163.148 47.1797C160.086 43.1641 157.672 39.2812 155.906 35.5312C155.281 36.6406 154.781 37.7891 154.406 38.9766C154.031 40.1484 153.844 41.3984 153.844 42.7266C153.844 44.1328 154.023 45.4531 154.383 46.6875C154.758 47.9062 155.297 48.9688 156 49.875C156.719 50.7656 157.594 51.4688 158.625 51.9844C159.656 52.5 160.828 52.7578 162.141 52.7578C163.016 52.7578 163.844 52.6562 164.625 52.4531C165.406 52.25 166.148 51.9844 166.852 51.6562C166.305 51 165.703 50.3125 165.047 49.5938C164.406 48.8594 163.773 48.0547 163.148 47.1797ZM155.625 20.1094C155.625 21.3438 155.742 22.5781 155.977 23.8125C156.227 25.0469 156.57 26.2969 157.008 27.5625C158.008 26.6094 158.961 25.6641 159.867 24.7266C160.773 23.7734 161.562 22.8359 162.234 21.9141C162.906 20.9766 163.438 20.0469 163.828 19.125C164.234 18.1875 164.438 17.25 164.438 16.3125C164.438 15.3281 164.164 14.5234 163.617 13.8984C163.07 13.2734 162.258 12.9609 161.18 12.9609C160.492 12.9609 159.812 13.0938 159.141 13.3594C158.484 13.6094 157.891 14.0156 157.359 14.5781C156.844 15.1406 156.422 15.875 156.094 16.7812C155.781 17.6875 155.625 18.7969 155.625 20.1094ZM209.227 30.7734C209.227 30.8984 209.156 31.0234 209.016 31.1484C208.891 31.2578 208.734 31.3672 208.547 31.4766C208.375 31.5859 208.188 31.7031 207.984 31.8281C207.797 31.9375 207.633 32.0469 207.492 32.1562C207.227 32.4062 207.047 32.6797 206.953 32.9766C206.875 33.2734 206.836 33.5781 206.836 33.8906C206.836 34.25 206.914 34.8125 207.07 35.5781C207.227 36.3438 207.43 37.1953 207.68 38.1328C207.93 39.0547 208.195 40.0078 208.477 40.9922C208.773 41.9766 209.055 42.875 209.32 43.6875C209.586 44.5 209.82 45.1641 210.023 45.6797C210.227 46.1953 210.359 46.4531 210.422 46.4531C210.5 46.4531 210.648 46.2109 210.867 45.7266C211.086 45.2422 211.352 44.6172 211.664 43.8516C211.977 43.0859 212.312 42.2266 212.672 41.2734C213.047 40.3047 213.414 39.3438 213.773 38.3906C214.148 37.4375 214.508 36.5391 214.852 35.6953C215.195 34.8516 215.492 34.1562 215.742 33.6094C215.852 33.3906 215.961 33.2188 216.07 33.0938C216.18 32.9531 216.297 32.8828 216.422 32.8828C216.562 32.8828 216.688 32.9531 216.797 33.0938C216.906 33.2188 217.023 33.3906 217.148 33.6094C217.414 34.1094 217.727 34.7188 218.086 35.4375C218.461 36.1406 218.852 36.8828 219.258 37.6641C219.664 38.4453 220.07 39.2266 220.477 40.0078C220.883 40.7734 221.258 41.4688 221.602 42.0938C221.945 42.7031 222.234 43.2031 222.469 43.5938C222.719 43.9688 222.883 44.1562 222.961 44.1562C223.023 44.1562 223.133 43.9219 223.289 43.4531C223.461 42.9688 223.641 42.3594 223.828 41.625C224.016 40.8906 224.211 40.0781 224.414 39.1875C224.633 38.2969 224.828 37.4453 225 36.6328C225.172 35.8203 225.312 35.1016 225.422 34.4766C225.531 33.8359 225.586 33.3984 225.586 33.1641C225.586 32.8828 225.531 32.6797 225.422 32.5547C225.328 32.4141 225.148 32.3438 224.883 32.3438C224.664 32.3438 224.406 32.3672 224.109 32.4141C223.812 32.4609 223.508 32.4844 223.195 32.4844C223.008 32.4844 222.867 32.4453 222.773 32.3672C222.695 32.2891 222.656 32.2031 222.656 32.1094C222.656 31.9844 222.688 31.8906 222.75 31.8281C222.828 31.7656 222.914 31.7188 223.008 31.6875C223.273 31.6094 223.742 31.5625 224.414 31.5469C225.102 31.5156 225.977 31.3984 227.039 31.1953C228.148 31.0078 229.055 30.7969 229.758 30.5625C230.461 30.3125 231.008 30.1875 231.398 30.1875C231.758 30.1875 231.938 30.3203 231.938 30.5859C231.938 30.8047 231.805 30.9609 231.539 31.0547C231.305 31.1484 231 31.25 230.625 31.3594C230.266 31.4531 229.867 31.5781 229.43 31.7344C229.102 31.8438 228.82 31.9688 228.586 32.1094C228.367 32.25 228.172 32.4219 228 32.625C227.844 32.8125 227.703 33.0469 227.578 33.3281C227.453 33.6094 227.336 33.9375 227.227 34.3125C227.117 34.6562 226.977 35.1562 226.805 35.8125C226.633 36.4688 226.438 37.2188 226.219 38.0625C226 38.9062 225.758 39.8125 225.492 40.7812C225.227 41.7344 224.953 42.6953 224.672 43.6641C224.406 44.6172 224.133 45.5391 223.852 46.4297C223.57 47.3047 223.289 48.0781 223.008 48.75C222.742 49.4219 222.484 49.9609 222.234 50.3672C222 50.7734 221.789 50.9766 221.602 50.9766C221.398 50.9766 221.141 50.8203 220.828 50.5078C220.516 50.1797 220.172 49.7578 219.797 49.2422C219.438 48.7266 219.047 48.1406 218.625 47.4844C218.219 46.8125 217.82 46.1328 217.43 45.4453C216.492 43.8203 215.5 41.9688 214.453 39.8906C214.422 40 214.32 40.2812 214.148 40.7344C213.992 41.1719 213.797 41.7031 213.562 42.3281C213.344 42.9375 213.102 43.6016 212.836 44.3203C212.57 45.0234 212.312 45.6953 212.062 46.3359C211.828 46.9766 211.609 47.5469 211.406 48.0469C211.219 48.5469 211.086 48.8984 211.008 49.1016C210.758 49.7578 210.484 50.4375 210.188 51.1406C209.906 51.8281 209.625 52.4688 209.344 53.0625C209.062 53.6406 208.805 54.1172 208.57 54.4922C208.336 54.8672 208.141 55.0547 207.984 55.0547C207.828 55.0547 207.617 54.8281 207.352 54.375C207.086 53.9219 206.789 53.3203 206.461 52.5703C206.133 51.8203 205.781 50.9609 205.406 49.9922C205.047 49.0078 204.68 47.9922 204.305 46.9453C203.93 45.8828 203.562 44.8359 203.203 43.8047C202.844 42.7578 202.516 41.7891 202.219 40.8984C201.922 40.0078 201.656 39.2344 201.422 38.5781C201.203 37.9219 201.039 37.4609 200.93 37.1953C200.727 36.7109 200.477 36.3828 200.18 36.2109C199.883 36.0391 199.555 35.9531 199.195 35.9531C198.805 35.9531 198.43 36 198.07 36.0938C197.727 36.1875 197.414 36.2344 197.133 36.2344C196.992 36.2344 196.852 36.1953 196.711 36.1172C196.57 36.0391 196.5 35.9062 196.5 35.7188C196.5 35.4531 196.602 35.2656 196.805 35.1562C197.008 35.0469 197.273 34.9453 197.602 34.8516C197.883 34.7891 198.242 34.7031 198.68 34.5938C199.133 34.4844 199.625 34.3594 200.156 34.2188C200.688 34.0625 201.234 33.8906 201.797 33.7031C202.375 33.5156 202.914 33.3047 203.414 33.0703C204.211 32.7109 204.906 32.3672 205.5 32.0391C206.094 31.7109 206.602 31.4219 207.023 31.1719C207.445 30.9062 207.797 30.7031 208.078 30.5625C208.375 30.4062 208.617 30.3281 208.805 30.3281C208.93 30.3281 209.031 30.3672 209.109 30.4453C209.188 30.5078 209.227 30.6172 209.227 30.7734ZM232.055 39.6094C232.055 37.8594 232.328 36.2812 232.875 34.875C233.422 33.4531 234.195 32.2422 235.195 31.2422C236.195 30.2422 237.398 29.4766 238.805 28.9453C240.227 28.3984 241.797 28.125 243.516 28.125C245.062 28.125 246.484 28.3828 247.781 28.8984C249.094 29.4141 250.227 30.1562 251.18 31.125C252.133 32.0781 252.875 33.2422 253.406 34.6172C253.953 35.9766 254.227 37.5078 254.227 39.2109C254.227 41.2266 253.891 42.9531 253.219 44.3906C252.562 45.8281 251.711 47.0078 250.664 47.9297C249.633 48.8516 248.477 49.5312 247.195 49.9688C245.914 50.3906 244.656 50.6016 243.422 50.6016C241.938 50.6016 240.508 50.3594 239.133 49.875C237.773 49.375 236.57 48.6562 235.523 47.7188C234.477 46.7812 233.633 45.6328 232.992 44.2734C232.367 42.8984 232.055 41.3438 232.055 39.6094ZM243.188 29.0391C242.297 29.0391 241.523 29.2656 240.867 29.7188C240.227 30.1562 239.695 30.7578 239.273 31.5234C238.852 32.2734 238.539 33.1562 238.336 34.1719C238.148 35.1719 238.055 36.2266 238.055 37.3359C238.055 38.2578 238.109 39.1875 238.219 40.125C238.328 41.0625 238.492 41.9688 238.711 42.8438C238.945 43.7031 239.227 44.5156 239.555 45.2812C239.898 46.0312 240.305 46.6875 240.773 47.25C241.242 47.8125 241.773 48.2578 242.367 48.5859C242.977 48.8984 243.648 49.0547 244.383 49.0547C245.336 49.0547 246.133 48.8438 246.773 48.4219C247.43 47.9844 247.953 47.4219 248.344 46.7344C248.734 46.0312 249.008 45.25 249.164 44.3906C249.336 43.5156 249.422 42.6406 249.422 41.7656C249.422 39.6094 249.266 37.7344 248.953 36.1406C248.641 34.5469 248.203 33.2266 247.641 32.1797C247.078 31.1172 246.414 30.3281 245.648 29.8125C244.898 29.2969 244.078 29.0391 243.188 29.0391ZM265.266 17.8594C265.844 17.6094 266.445 17.3906 267.07 17.2031C267.711 17.0156 268.344 16.8672 268.969 16.7578C269.609 16.6328 270.227 16.5469 270.82 16.5C271.43 16.4375 271.992 16.4062 272.508 16.4062C274.32 16.4062 276 16.6328 277.547 17.0859C279.094 17.5391 280.492 18.1719 281.742 18.9844C282.992 19.7812 284.094 20.7344 285.047 21.8438C286.016 22.9375 286.82 24.1406 287.461 25.4531C288.117 26.7656 288.609 28.1562 288.938 29.625C289.281 31.0938 289.453 32.5938 289.453 34.125C289.453 36.5156 289.07 38.7422 288.305 40.8047C287.555 42.8516 286.469 44.6328 285.047 46.1484C283.641 47.6484 281.922 48.8281 279.891 49.6875C277.875 50.5469 275.609 50.9766 273.094 50.9766C271.703 50.9766 270.305 50.8281 268.898 50.5312C267.508 50.2188 266.172 49.7422 264.891 49.1016C263.609 48.4609 262.414 47.6562 261.305 46.6875C260.195 45.7188 259.227 44.5703 258.398 43.2422C257.586 41.8984 256.945 40.3828 256.477 38.6953C256.008 36.9922 255.773 35.1016 255.773 33.0234C255.773 31.4297 255.977 29.875 256.383 28.3594C256.805 26.8281 257.414 25.3984 258.211 24.0703C259.023 22.7422 260.016 21.5469 261.188 20.4844C262.375 19.4062 263.734 18.5312 265.266 17.8594ZM271.688 17.8594C269.906 17.8594 268.352 18.2422 267.023 19.0078C265.711 19.7734 264.617 20.8047 263.742 22.1016C262.867 23.3828 262.211 24.875 261.773 26.5781C261.352 28.2656 261.141 30.0469 261.141 31.9219C261.141 34.5156 261.43 36.8828 262.008 39.0234C262.586 41.1484 263.422 42.9766 264.516 44.5078C265.625 46.0391 266.977 47.2266 268.57 48.0703C270.164 48.9141 271.977 49.3359 274.008 49.3359C275.773 49.3359 277.273 48.9609 278.508 48.2109C279.742 47.4609 280.75 46.4453 281.531 45.1641C282.312 43.8828 282.875 42.3984 283.219 40.7109C283.578 39.0234 283.758 37.2422 283.758 35.3672C283.758 29.6797 282.758 25.3438 280.758 22.3594C278.758 19.3594 275.734 17.8594 271.688 17.8594ZM305.859 0C306.734 0 307.578 0.140625 308.391 0.421875C309.203 0.6875 309.922 1.125 310.547 1.73438C311.188 2.32813 311.695 3.09375 312.07 4.03125C312.445 4.96875 312.633 6.10156 312.633 7.42969C312.633 8.61719 312.484 9.69531 312.188 10.6641C311.891 11.6328 311.477 12.4609 310.945 13.1484C310.414 13.8359 309.781 14.3672 309.047 14.7422C308.312 15.1172 307.508 15.3047 306.633 15.3047C306.055 15.3047 305.539 15.2187 305.086 15.0469C304.633 14.8594 304.25 14.6172 303.938 14.3203C303.625 14.0078 303.383 13.6484 303.211 13.2422C303.055 12.8203 302.977 12.375 302.977 11.9062C302.977 11.5781 303.016 11.2422 303.094 10.8984C303.172 10.5547 303.32 10.2266 303.539 9.91406C303.758 9.60156 304.055 9.29688 304.43 9C304.82 8.70312 305.312 8.4375 305.906 8.20312C307.062 7.75 307.906 7.19531 308.438 6.53906C308.984 5.88281 309.258 5.09375 309.258 4.17188C309.258 3.85937 309.203 3.50781 309.094 3.11719C308.984 2.72656 308.789 2.36719 308.508 2.03906C308.227 1.69531 307.836 1.40625 307.336 1.17188C306.836 0.9375 306.195 0.820312 305.414 0.820312C304.445 0.820312 303.609 1.07812 302.906 1.59375C302.219 2.09375 301.633 2.76562 301.148 3.60938C300.664 4.4375 300.273 5.39062 299.977 6.46875C299.68 7.53125 299.453 8.625 299.297 9.75C299.141 10.8594 299.031 11.9531 298.969 13.0312C298.922 14.0937 298.898 15.0469 298.898 15.8906C298.898 16.5 298.906 17.1094 298.922 17.7188C298.953 18.3125 299.047 18.8516 299.203 19.3359C299.359 19.8047 299.602 20.1875 299.93 20.4844C300.258 20.7812 300.727 20.9297 301.336 20.9297C301.82 20.9297 302.312 20.8828 302.812 20.7891C303.328 20.6953 303.812 20.6016 304.266 20.5078C304.734 20.3984 305.164 20.2969 305.555 20.2031C305.945 20.1094 306.273 20.0625 306.539 20.0625C306.977 20.0625 307.195 20.2266 307.195 20.5547C307.195 20.7734 307.094 20.9453 306.891 21.0703C306.703 21.1953 306.359 21.3047 305.859 21.3984C305.625 21.4453 305.359 21.4922 305.062 21.5391C304.781 21.5703 304.453 21.6094 304.078 21.6562C303.703 21.7031 303.281 21.7656 302.812 21.8438C302.344 21.9219 301.805 22.0312 301.195 22.1719C300.789 22.2656 300.461 22.3906 300.211 22.5469C299.977 22.6875 299.797 22.8516 299.672 23.0391C299.516 23.2891 299.414 23.6016 299.367 23.9766C299.336 24.3359 299.32 24.7422 299.32 25.1953C299.32 25.3203 299.328 25.7891 299.344 26.6016C299.375 27.4141 299.406 28.4453 299.438 29.6953C299.484 30.9453 299.531 32.3594 299.578 33.9375C299.625 35.5156 299.672 37.1328 299.719 38.7891C299.781 40.4453 299.836 42.0859 299.883 43.7109C299.945 45.3203 300 46.7891 300.047 48.1172C300.094 49.4453 300.133 50.5781 300.164 51.5156C300.211 52.4375 300.25 53.0391 300.281 53.3203C300.359 54.2578 300.539 55.0312 300.82 55.6406C301.117 56.25 301.625 56.6641 302.344 56.8828C302.594 56.9609 302.82 57.0156 303.023 57.0469C303.242 57.0938 303.461 57.125 303.68 57.1406C303.914 57.1719 304.156 57.2031 304.406 57.2344C304.672 57.2656 304.977 57.3047 305.32 57.3516C305.727 57.3984 306.047 57.4766 306.281 57.5859C306.516 57.7109 306.633 57.8906 306.633 58.125C306.633 58.4375 306.453 58.6641 306.094 58.8047C305.734 58.9609 305.242 59.0391 304.617 59.0391C304.258 59.0391 303.766 59.0312 303.141 59.0156C302.531 59 301.883 58.9922 301.195 58.9922C299.727 59.0078 298.43 59.1484 297.305 59.4141C296.18 59.6953 295.188 60 294.328 60.3281C293.484 60.6562 292.75 60.9531 292.125 61.2188C291.516 61.5 290.992 61.6406 290.555 61.6406C290.195 61.6406 290.016 61.4922 290.016 61.1953C290.016 61.0078 290.102 60.8438 290.273 60.7031C290.461 60.5781 290.727 60.4375 291.07 60.2812C291.773 60 292.359 59.7031 292.828 59.3906C293.297 59.0781 293.68 58.7109 293.977 58.2891C294.273 57.8672 294.484 57.3516 294.609 56.7422C294.75 56.1484 294.836 55.4141 294.867 54.5391C294.898 53.8047 294.914 52.8984 294.914 51.8203C294.914 50.7422 294.914 49.5469 294.914 48.2344C294.914 46.9375 294.906 45.5625 294.891 44.1094C294.891 42.6562 294.883 41.1953 294.867 39.7266C294.867 38.2578 294.859 36.8047 294.844 35.3672C294.828 33.9297 294.812 32.5781 294.797 31.3125C294.781 30.0469 294.758 28.9062 294.727 27.8906C294.711 26.8594 294.695 26.0078 294.68 25.3359C294.664 24.9453 294.625 24.625 294.562 24.375C294.5 24.125 294.398 23.9297 294.258 23.7891C294.117 23.6484 293.922 23.5547 293.672 23.5078C293.438 23.4453 293.133 23.4141 292.758 23.4141C292.43 23.4141 292.062 23.4297 291.656 23.4609C291.25 23.4922 290.844 23.5312 290.438 23.5781C290.047 23.6094 289.688 23.6406 289.359 23.6719C289.016 23.7031 288.742 23.7188 288.539 23.7188C288.273 23.7188 288.055 23.6797 287.883 23.6016C287.711 23.5234 287.625 23.3828 287.625 23.1797C287.625 22.9609 287.719 22.8125 287.906 22.7344C288.094 22.6406 288.367 22.5703 288.727 22.5234C289.305 22.4453 289.867 22.3828 290.414 22.3359C290.977 22.2734 291.641 22.1719 292.406 22.0312C293.062 21.9219 293.578 21.7031 293.953 21.375C294.328 21.0312 294.625 20.625 294.844 20.1562C295.062 19.6719 295.219 19.1406 295.312 18.5625C295.406 17.9688 295.5 17.3516 295.594 16.7109C295.781 15.3047 296.008 13.9219 296.273 12.5625C296.539 11.1875 296.867 9.88281 297.258 8.64844C297.664 7.39844 298.125 6.25 298.641 5.20312C299.172 4.14062 299.789 3.22656 300.492 2.46094C301.195 1.69531 301.984 1.09375 302.859 0.65625C303.75 0.21875 304.75 0 305.859 0Z" fill="black"/>
    <path d="M96.8157 66.4445V67.6408H93.4319V76.4865H92.0511V67.6408H88.6673V66.4445H96.8157ZM97.9026 66.4103H99.1331V70.1564C99.4248 69.7873 99.6868 69.5275 99.9193 69.3771C100.316 69.1173 100.81 68.9875 101.403 68.9875C102.464 68.9875 103.185 69.3589 103.563 70.1017C103.768 70.5073 103.87 71.0701 103.87 71.7902V76.4865H102.606V71.8722C102.606 71.3345 102.537 70.9403 102.401 70.6896C102.177 70.2886 101.758 70.088 101.143 70.088C100.632 70.088 100.17 70.2635 99.7552 70.6144C99.3405 70.9653 99.1331 71.6284 99.1331 72.6037V76.4865H97.9026V66.4103ZM108.744 69.0011C109.264 69.0011 109.768 69.1242 110.255 69.3703C110.743 69.6118 111.114 69.9263 111.369 70.3136C111.616 70.6828 111.78 71.1134 111.862 71.6056C111.935 71.9429 111.971 72.4806 111.971 73.2189H106.605C106.628 73.9617 106.803 74.5587 107.131 75.0099C107.459 75.4565 107.967 75.6798 108.656 75.6798C109.298 75.6798 109.811 75.4679 110.194 75.0441C110.412 74.798 110.567 74.5132 110.659 74.1896H111.868C111.837 74.4585 111.729 74.7593 111.547 75.0919C111.369 75.4201 111.169 75.689 110.946 75.8986C110.572 76.2632 110.109 76.5093 109.558 76.6369C109.262 76.7098 108.927 76.7462 108.553 76.7462C107.642 76.7462 106.869 76.4158 106.236 75.755C105.602 75.0897 105.285 74.16 105.285 72.966C105.285 71.7902 105.604 70.8354 106.242 70.1017C106.881 69.368 107.714 69.0011 108.744 69.0011ZM110.706 72.2414C110.656 71.7082 110.54 71.2821 110.358 70.963C110.02 70.3706 109.458 70.0744 108.669 70.0744C108.104 70.0744 107.63 70.2794 107.247 70.6896C106.865 71.0952 106.662 71.6125 106.639 72.2414H110.706ZM118.212 66.4445L120.106 74.6134L122.375 66.4445H123.852L126.121 74.6134L128.015 66.4445H129.505L126.867 76.4865H125.438L123.12 68.1603L120.789 76.4865H119.361L116.736 66.4445H118.212ZM133.409 69.0011C133.928 69.0011 134.432 69.1242 134.919 69.3703C135.407 69.6118 135.778 69.9263 136.034 70.3136C136.28 70.6828 136.444 71.1134 136.526 71.6056C136.599 71.9429 136.635 72.4806 136.635 73.2189H131.269C131.292 73.9617 131.467 74.5587 131.795 75.0099C132.123 75.4565 132.631 75.6798 133.32 75.6798C133.962 75.6798 134.475 75.4679 134.858 75.0441C135.076 74.798 135.231 74.5132 135.323 74.1896H136.533C136.501 74.4585 136.394 74.7593 136.211 75.0919C136.034 75.4201 135.833 75.689 135.61 75.8986C135.236 76.2632 134.773 76.5093 134.222 76.6369C133.926 76.7098 133.591 76.7462 133.217 76.7462C132.306 76.7462 131.533 76.4158 130.9 75.755C130.266 75.0897 129.95 74.16 129.95 72.966C129.95 71.7902 130.269 70.8354 130.907 70.1017C131.545 69.368 132.379 69.0011 133.409 69.0011ZM135.37 72.2414C135.32 71.7082 135.204 71.2821 135.022 70.963C134.685 70.3706 134.122 70.0744 133.333 70.0744C132.768 70.0744 132.294 70.2794 131.911 70.6896C131.529 71.0952 131.326 71.6125 131.303 72.2414H135.37ZM139.096 74.5382C139.096 74.8937 139.226 75.174 139.486 75.3791C139.745 75.5841 140.053 75.6867 140.409 75.6867C140.841 75.6867 141.261 75.5864 141.666 75.3859C142.35 75.0532 142.692 74.5086 142.692 73.7521V72.7609C142.541 72.8566 142.348 72.9364 142.111 73.0002C141.874 73.064 141.641 73.1095 141.413 73.1369L140.668 73.2326C140.222 73.2918 139.887 73.3852 139.663 73.5128C139.285 73.727 139.096 74.0688 139.096 74.5382ZM142.076 72.05C142.359 72.0135 142.548 71.895 142.644 71.6945C142.699 71.5851 142.726 71.4279 142.726 71.2228C142.726 70.8035 142.576 70.5005 142.275 70.3136C141.978 70.1222 141.552 70.0265 140.996 70.0265C140.354 70.0265 139.898 70.1997 139.629 70.5461C139.479 70.7375 139.381 71.0223 139.335 71.4005H138.187C138.21 70.4982 138.501 69.8716 139.062 69.5207C139.627 69.1652 140.281 68.9875 141.024 68.9875C141.885 68.9875 142.585 69.1515 143.122 69.4796C143.656 69.8078 143.922 70.3182 143.922 71.0109V75.2287C143.922 75.3563 143.947 75.4588 143.997 75.5363C144.052 75.6138 144.164 75.6525 144.332 75.6525C144.387 75.6525 144.449 75.6502 144.517 75.6457C144.585 75.6365 144.658 75.6252 144.736 75.6115V76.5207C144.544 76.5753 144.398 76.6095 144.298 76.6232C144.198 76.6369 144.061 76.6437 143.888 76.6437C143.464 76.6437 143.157 76.4933 142.965 76.1925C142.865 76.033 142.794 75.8074 142.753 75.5158C142.503 75.8439 142.143 76.1287 141.673 76.3703C141.204 76.6118 140.687 76.7326 140.121 76.7326C139.442 76.7326 138.886 76.5275 138.453 76.1173C138.025 75.7026 137.811 75.1854 137.811 74.5656C137.811 73.8865 138.023 73.3602 138.447 72.9865C138.87 72.6128 139.426 72.3826 140.115 72.2961L142.076 72.05ZM146.192 67.1212H147.436V69.1652H148.605V70.1701H147.436V74.9484C147.436 75.2036 147.522 75.3745 147.696 75.4611C147.791 75.5112 147.951 75.5363 148.174 75.5363C148.233 75.5363 148.297 75.5363 148.366 75.5363C148.434 75.5317 148.514 75.5249 148.605 75.5158V76.4865C148.464 76.5275 148.315 76.5571 148.16 76.5753C148.01 76.5936 147.846 76.6027 147.668 76.6027C147.094 76.6027 146.704 76.4569 146.499 76.1652C146.294 75.869 146.192 75.4862 146.192 75.0168V70.1701H145.201V69.1652H146.192V67.1212ZM149.842 66.4103H151.073V70.1564C151.364 69.7873 151.626 69.5275 151.859 69.3771C152.255 69.1173 152.75 68.9875 153.342 68.9875C154.404 68.9875 155.124 69.3589 155.502 70.1017C155.707 70.5073 155.81 71.0701 155.81 71.7902V76.4865H154.545V71.8722C154.545 71.3345 154.477 70.9403 154.34 70.6896C154.117 70.2886 153.698 70.088 153.082 70.088C152.572 70.088 152.109 70.2635 151.695 70.6144C151.28 70.9653 151.073 71.6284 151.073 72.6037V76.4865H149.842V66.4103ZM160.684 69.0011C161.203 69.0011 161.707 69.1242 162.195 69.3703C162.682 69.6118 163.054 69.9263 163.309 70.3136C163.555 70.6828 163.719 71.1134 163.801 71.6056C163.874 71.9429 163.91 72.4806 163.91 73.2189H158.544C158.567 73.9617 158.742 74.5587 159.071 75.0099C159.399 75.4565 159.907 75.6798 160.595 75.6798C161.238 75.6798 161.75 75.4679 162.133 75.0441C162.352 74.798 162.507 74.5132 162.598 74.1896H163.808C163.776 74.4585 163.669 74.7593 163.487 75.0919C163.309 75.4201 163.108 75.689 162.885 75.8986C162.511 76.2632 162.049 76.5093 161.497 76.6369C161.201 76.7098 160.866 76.7462 160.492 76.7462C159.581 76.7462 158.809 76.4158 158.175 75.755C157.542 75.0897 157.225 74.16 157.225 72.966C157.225 71.7902 157.544 70.8354 158.182 70.1017C158.82 69.368 159.654 69.0011 160.684 69.0011ZM162.646 72.2414C162.596 71.7082 162.479 71.2821 162.297 70.963C161.96 70.3706 161.397 70.0744 160.609 70.0744C160.044 70.0744 159.57 70.2794 159.187 70.6896C158.804 71.0952 158.601 71.6125 158.578 72.2414H162.646ZM165.462 69.1652H166.631V70.4298C166.727 70.1837 166.962 69.8852 167.335 69.5343C167.709 69.1789 168.14 69.0011 168.627 69.0011C168.65 69.0011 168.689 69.0034 168.743 69.008C168.798 69.0125 168.892 69.0216 169.024 69.0353V70.3341C168.951 70.3205 168.882 70.3114 168.819 70.3068C168.759 70.3022 168.693 70.3 168.62 70.3C168.001 70.3 167.524 70.5005 167.192 70.9015C166.859 71.298 166.693 71.756 166.693 72.2755V76.4865H165.462V69.1652ZM174.93 74.5382C174.93 74.8937 175.06 75.174 175.32 75.3791C175.579 75.5841 175.887 75.6867 176.242 75.6867C176.675 75.6867 177.095 75.5864 177.5 75.3859C178.184 75.0532 178.526 74.5086 178.526 73.7521V72.7609C178.375 72.8566 178.182 72.9364 177.945 73.0002C177.708 73.064 177.475 73.1095 177.247 73.1369L176.502 73.2326C176.056 73.2918 175.721 73.3852 175.497 73.5128C175.119 73.727 174.93 74.0688 174.93 74.5382ZM177.91 72.05C178.193 72.0135 178.382 71.895 178.478 71.6945C178.533 71.5851 178.56 71.4279 178.56 71.2228C178.56 70.8035 178.409 70.5005 178.109 70.3136C177.812 70.1222 177.386 70.0265 176.83 70.0265C176.188 70.0265 175.732 70.1997 175.463 70.5461C175.313 70.7375 175.215 71.0223 175.169 71.4005H174.021C174.044 70.4982 174.335 69.8716 174.896 69.5207C175.461 69.1652 176.115 68.9875 176.858 68.9875C177.719 68.9875 178.419 69.1515 178.956 69.4796C179.49 69.8078 179.756 70.3182 179.756 71.0109V75.2287C179.756 75.3563 179.781 75.4588 179.831 75.5363C179.886 75.6138 179.998 75.6525 180.166 75.6525C180.221 75.6525 180.283 75.6502 180.351 75.6457C180.419 75.6365 180.492 75.6252 180.57 75.6115V76.5207C180.378 76.5753 180.232 76.6095 180.132 76.6232C180.032 76.6369 179.895 76.6437 179.722 76.6437C179.298 76.6437 178.991 76.4933 178.799 76.1925C178.699 76.033 178.628 75.8074 178.587 75.5158C178.337 75.8439 177.977 76.1287 177.507 76.3703C177.038 76.6118 176.52 76.7326 175.955 76.7326C175.276 76.7326 174.72 76.5275 174.287 76.1173C173.859 75.7026 173.645 75.1854 173.645 74.5656C173.645 73.8865 173.857 73.3602 174.281 72.9865C174.704 72.6128 175.26 72.3826 175.949 72.2961L177.91 72.05ZM184.869 75.6593C185.444 75.6593 185.92 75.4201 186.298 74.9416C186.681 74.4585 186.872 73.7384 186.872 72.7814C186.872 72.1981 186.788 71.6968 186.619 71.2775C186.3 70.4709 185.717 70.0675 184.869 70.0675C184.017 70.0675 183.434 70.4936 183.119 71.3459C182.951 71.8016 182.867 72.3804 182.867 73.0822C182.867 73.6473 182.951 74.1281 183.119 74.5246C183.438 75.2811 184.022 75.6593 184.869 75.6593ZM181.684 69.1994H182.88V70.1701C183.126 69.8374 183.395 69.5799 183.687 69.3976C184.102 69.1242 184.589 68.9875 185.15 68.9875C185.979 68.9875 186.683 69.3065 187.262 69.9445C187.841 70.578 188.13 71.4849 188.13 72.6652C188.13 74.2602 187.713 75.3996 186.879 76.0832C186.351 76.5161 185.735 76.7326 185.034 76.7326C184.482 76.7326 184.02 76.6118 183.646 76.3703C183.427 76.2336 183.183 75.9989 182.914 75.6662V79.4054H181.684V69.1994ZM192.662 75.6593C193.237 75.6593 193.713 75.4201 194.091 74.9416C194.474 74.4585 194.665 73.7384 194.665 72.7814C194.665 72.1981 194.581 71.6968 194.412 71.2775C194.093 70.4709 193.51 70.0675 192.662 70.0675C191.81 70.0675 191.227 70.4936 190.912 71.3459C190.744 71.8016 190.659 72.3804 190.659 73.0822C190.659 73.6473 190.744 74.1281 190.912 74.5246C191.231 75.2811 191.815 75.6593 192.662 75.6593ZM189.477 69.1994H190.673V70.1701C190.919 69.8374 191.188 69.5799 191.48 69.3976C191.895 69.1242 192.382 68.9875 192.943 68.9875C193.772 68.9875 194.476 69.3065 195.055 69.9445C195.634 70.578 195.923 71.4849 195.923 72.6652C195.923 74.2602 195.506 75.3996 194.672 76.0832C194.144 76.5161 193.528 76.7326 192.826 76.7326C192.275 76.7326 191.812 76.6118 191.439 76.3703C191.22 76.2336 190.976 75.9989 190.707 75.6662V79.4054H189.477V69.1994Z" fill="black"/>
</svg>
